<?xml version="1.0" standalone="no"?>
<!DOCTYPE svg PUBLIC "-//W3C//DTD SVG 20010904//EN"
 "http://www.w3.org/TR/2001/REC-SVG-20010904/DTD/svg10.dtd">
<svg version="1.0" xmlns="http://www.w3.org/2000/svg"
 width="1280.000000pt" height="1280.000000pt" viewBox="0 0 1280.000000 1280.000000"
 preserveAspectRatio="xMidYMid meet">
<metadata>
Created by potrace 1.11, written by Peter Selinger 2001-2013
</metadata>
<g transform="translate(0.000000,1280.000000) scale(0.100000,-0.100000)"
fill="#000000" stroke="none">
<path d="M7996 12741 c-17 -6 -17 -8 -4 -14 10 -3 19 0 22 9 3 8 4 14 3 13 -1
0 -11 -4 -21 -8z"/>
<path d="M8046 12719 c3 -6 0 -15 -7 -20 -10 -6 -7 -8 9 -6 12 0 22 2 22 3 0
12 -14 34 -22 34 -5 0 -6 -5 -2 -11z"/>
<path d="M8085 12720 c-3 -5 -1 -10 4 -10 6 0 11 5 11 10 0 6 -2 10 -4 10 -3
0 -8 -4 -11 -10z"/>
<path d="M8129 12703 c-13 -16 -12 -17 4 -4 16 13 21 21 13 21 -2 0 -10 -8
-17 -17z"/>
<path d="M8145 12690 c-10 -11 -14 -20 -9 -20 5 0 15 9 22 20 7 11 11 20 9 20
-2 0 -12 -9 -22 -20z"/>
<path d="M8096 12685 c5 -11 2 -14 -12 -9 -11 4 -16 4 -12 0 3 -4 14 -9 25
-11 10 -1 17 -8 15 -15 -1 -6 2 -9 8 -5 5 3 10 1 10 -5 0 -6 4 -9 9 -6 11 7
51 -27 52 -45 0 -8 4 -4 9 9 5 12 13 22 18 22 4 0 8 9 8 20 0 11 -4 20 -8 20
-4 0 -8 -9 -8 -19 0 -11 -3 -22 -8 -24 -9 -6 -53 28 -46 36 3 3 -3 4 -13 4
-10 -1 -22 8 -28 21 -11 24 -28 31 -19 7z"/>
<path d="M8165 12680 c-3 -5 -2 -10 4 -10 5 0 13 5 16 10 3 6 2 10 -4 10 -5 0
-13 -4 -16 -10z"/>
<path d="M8192 12670 c-20 -17 -20 -19 -5 -31 13 -11 15 -11 9 -1 -11 18 11
41 34 35 11 -3 20 -3 20 0 0 14 -39 12 -58 -3z"/>
<path d="M8262 12664 c-12 -8 -21 -23 -21 -32 1 -14 2 -14 5 -2 5 17 44 45 44
31 0 -5 -7 -14 -15 -21 -9 -7 -14 -19 -11 -27 4 -10 -1 -12 -18 -7 -14 3 -27
1 -32 -7 -5 -9 -2 -10 10 -6 10 4 27 2 38 -4 15 -8 19 -8 14 0 -4 6 0 11 9 11
9 0 14 -4 11 -9 -8 -12 20 -22 39 -15 8 4 12 10 9 15 -3 5 2 9 11 9 9 0 14 -3
12 -7 -3 -5 6 -9 20 -9 17 -2 23 2 19 12 -3 7 -1 16 4 19 4 3 10 0 12 -7 3 -8
7 -6 11 4 4 13 1 16 -14 13 -15 -3 -19 0 -15 11 3 9 2 12 -4 9 -6 -4 -9 -14
-8 -22 2 -9 -2 -18 -8 -20 -7 -2 -10 6 -9 20 2 15 -2 24 -11 24 -10 0 -11 -4
-2 -14 15 -19 4 -26 -42 -26 -49 0 -59 8 -37 30 9 9 20 13 24 9 4 -4 2 -11 -5
-15 -8 -5 -1 -8 18 -8 17 0 26 3 20 7 -7 4 -11 10 -11 14 1 3 -1 5 -3 4 -2 -2
-13 5 -23 14 -17 16 -21 16 -41 2z m68 -74 c0 -5 -4 -10 -10 -10 -5 0 -10 5
-10 10 0 6 5 10 10 10 6 0 10 -4 10 -10z"/>
<path d="M8445 12609 c-4 -5 1 -19 11 -30 21 -23 8 -25 -18 -2 -10 9 -18 12
-18 7 0 -5 16 -19 36 -32 37 -24 41 -42 5 -22 -16 8 -27 8 -42 -1 -15 -8 -24
-8 -32 0 -6 6 -16 11 -21 11 -6 0 0 -7 13 -17 19 -13 27 -14 43 -4 11 7 22 10
25 7 3 -2 -4 -10 -15 -17 -17 -11 -19 -17 -10 -33 9 -16 7 -23 -11 -37 -17
-14 -18 -18 -5 -23 8 -3 12 -2 9 3 -3 5 -1 12 5 16 10 6 13 -5 11 -35 0 -10 1
-11 5 -2 9 19 23 14 19 -7 -3 -14 2 -19 16 -18 22 2 26 17 4 17 -8 0 -14 3
-14 8 3 19 -2 33 -10 28 -5 -3 -12 1 -15 10 -4 12 -2 15 9 10 20 -7 19 -1 -2
19 -23 23 -6 47 35 50 31 3 32 2 18 -14 -9 -10 -13 -21 -9 -26 5 -4 1 -5 -7
-3 -8 3 -14 11 -12 17 1 6 -2 11 -8 11 -13 0 -12 -11 3 -31 11 -14 15 -15 31
-4 10 8 25 11 34 8 12 -4 11 -1 -3 10 -23 18 -20 24 18 31 19 3 27 1 24 -7 -2
-7 -12 -11 -21 -9 -15 3 -15 1 1 -17 18 -22 29 -28 18 -11 -8 13 17 50 33 50
10 0 10 -4 -2 -16 -30 -29 -16 -32 15 -3 18 16 35 27 38 23 3 -3 -5 -14 -18
-25 -13 -10 -19 -19 -14 -19 6 0 18 9 27 19 14 15 15 24 7 39 -6 11 -8 21 -6
24 3 3 -2 5 -10 5 -8 0 -12 -4 -9 -9 3 -4 0 -8 -5 -8 -6 0 -11 5 -11 10 0 6
-5 10 -12 10 -6 0 -2 -10 10 -23 l22 -23 -40 0 c-27 1 -39 5 -36 13 3 7 -1 10
-11 6 -13 -5 -14 -3 -4 15 12 22 5 28 -23 23 -5 -1 -5 6 -2 16 6 14 4 15 -5 6
-13 -13 -3 -37 12 -28 15 10 10 -22 -7 -35 -12 -11 -18 -11 -30 2 -11 11 -12
18 -5 22 6 4 11 2 11 -3 0 -6 5 -11 11 -11 6 0 4 9 -5 21 -8 12 -12 29 -9 38
4 11 1 10 -10 -4 -8 -11 -19 -16 -23 -12 -5 4 -2 12 6 17 9 6 10 10 3 10 -6 0
-15 -5 -18 -11z m90 -79 c3 -5 -1 -10 -10 -10 -9 0 -13 5 -10 10 3 6 8 10 10
10 2 0 7 -4 10 -10z"/>
<path d="M8555 12590 c27 -12 43 -12 25 0 -8 5 -22 9 -30 9 -10 0 -8 -3 5 -9z"/>
<path d="M8216 12571 c-4 -5 3 -7 14 -4 19 5 26 -6 20 -32 -1 -5 2 -7 6 -2 4
4 16 0 26 -10 10 -9 18 -12 18 -7 0 5 -9 15 -20 22 -12 7 -18 17 -15 21 2 5
-2 12 -11 15 -22 8 -32 8 -38 -3z"/>
<path d="M8280 12561 c0 -17 19 -22 37 -11 15 9 14 10 -6 4 -16 -4 -21 -3 -17
5 4 6 2 11 -3 11 -6 0 -11 -4 -11 -9z"/>
<path d="M8340 12560 c0 -5 5 -10 10 -10 6 0 10 5 10 10 0 6 -4 10 -10 10 -5
0 -10 -4 -10 -10z"/>
<path d="M8370 12561 c0 -14 30 -22 47 -13 13 8 13 10 -1 15 -10 4 -15 3 -11
-3 3 -6 1 -10 -4 -10 -6 0 -11 5 -11 10 0 6 -4 10 -10 10 -5 0 -10 -4 -10 -9z"/>
<path d="M8566 12555 c4 -8 10 -15 15 -15 4 0 6 7 3 15 -4 8 -10 15 -15 15 -4
0 -6 -7 -3 -15z"/>
<path d="M8660 12565 c0 -5 5 -17 10 -25 8 -13 12 -12 27 4 14 16 15 17 1 7
-14 -10 -18 -9 -27 6 -6 10 -10 14 -11 8z"/>
<path d="M8330 12529 c0 -5 -4 -8 -8 -5 -16 10 -10 -33 6 -46 9 -7 14 -9 10
-4 -4 5 -1 15 7 22 19 19 24 18 22 -6 -1 -11 -5 -20 -9 -20 -4 0 -8 -5 -8 -12
0 -6 3 -8 7 -5 3 4 13 1 22 -6 14 -11 14 -10 2 6 -15 19 -2 24 17 5 9 -9 12
-9 12 0 0 7 -4 12 -10 12 -5 0 -8 6 -6 13 1 6 1 9 -1 5 -8 -14 -23 -8 -17 6 9
23 -16 29 -37 10 -23 -21 -25 -8 -2 18 9 11 11 18 5 18 -7 0 -12 -5 -12 -11z"/>
<path d="M8701 12526 c-9 -10 -8 -15 3 -19 11 -4 13 -1 9 10 -5 13 -2 13 21
-2 15 -10 29 -15 33 -11 3 3 13 0 22 -6 9 -7 13 -8 9 -4 -4 5 -2 16 5 25 10
14 10 14 -5 3 -14 -11 -17 -10 -21 5 -4 17 -5 17 -6 1 0 -10 -6 -18 -12 -18
-5 0 -7 6 -3 13 4 6 4 9 -1 5 -4 -4 -16 -3 -25 2 -13 7 -21 5 -29 -4z"/>
<path d="M8666 12503 c-6 -14 -5 -15 5 -6 7 7 10 15 7 18 -3 3 -9 -2 -12 -12z"/>
<path d="M8840 12511 c0 -6 4 -13 10 -16 6 -3 7 1 4 9 -7 18 -14 21 -14 7z"/>
<path d="M8495 12450 c-11 -17 9 -40 25 -30 13 8 12 10 -2 10 -10 0 -18 5 -18
11 0 6 9 9 20 6 11 -3 22 -2 24 2 3 4 -6 8 -19 9 -13 1 -27 -3 -30 -8z"/>
<path d="M8470 12435 c0 -5 5 -17 10 -25 5 -8 10 -10 10 -5 0 6 -5 17 -10 25
-5 8 -10 11 -10 5z"/>
<path d="M8520 12399 c0 -5 -4 -7 -10 -4 -5 3 -7 0 -4 -8 3 -8 1 -18 -5 -21
-17 -11 -1 -36 23 -35 19 0 19 1 -4 10 -24 10 -24 11 -6 25 11 8 16 14 12 14
-5 0 -3 7 4 15 9 10 9 15 1 15 -6 0 -11 -5 -11 -11z"/>
<path d="M3813 12334 c-56 -20 -121 -79 -162 -148 -44 -74 -81 -185 -142 -432
l-50 -203 38 -34 c191 -171 273 -244 361 -325 57 -53 113 -104 125 -115 129
-111 890 -862 1157 -1142 291 -304 440 -465 440 -476 1 -36 -288 -763 -417
-1049 -81 -178 -368 -836 -446 -1020 -195 -461 -318 -790 -558 -1495 -60 -176
-113 -322 -117 -326 -4 -3 -63 -25 -132 -49 -69 -23 -138 -48 -155 -55 -16 -7
-91 -39 -165 -70 -699 -294 -1306 -781 -1650 -1324 -184 -290 -286 -557 -345
-906 -6 -36 -18 -213 -19 -272 -1 -31 -5 -43 -16 -44 -10 0 -8 -3 5 -9 19 -8
19 -9 -1 -9 -12 -1 -25 -8 -28 -17 -10 -26 -7 -29 9 -8 17 22 20 12 4 -17 -5
-11 -14 -17 -19 -14 -5 3 -12 0 -16 -6 -4 -7 -3 -9 3 -6 6 4 14 -1 18 -11 7
-20 7 -22 -1 -21 -18 2 -21 -27 -6 -45 9 -11 12 -16 5 -13 -6 4 -14 3 -18 -3
-3 -5 -1 -10 4 -10 6 0 11 -4 11 -10 0 -5 -6 -7 -14 -4 -10 4 -14 17 -11 40 1
19 -1 36 -5 39 -4 3 -6 -9 -5 -26 2 -17 -4 -37 -14 -46 -15 -16 -15 -16 2 -10
9 3 17 2 17 -3 0 -6 8 -10 18 -10 15 -1 15 -2 -2 -12 -18 -10 -18 -11 5 -25
l24 -14 -24 7 c-15 4 -21 2 -17 -4 3 -6 2 -14 -4 -17 -8 -5 -7 -11 1 -21 8
-10 9 -18 2 -25 -6 -6 -10 -5 -11 3 0 7 -3 23 -6 36 -3 12 -2 21 2 18 4 -2 8
9 8 25 2 28 -6 36 -19 22 -4 -3 -2 -12 4 -20 9 -9 8 -13 0 -13 -7 0 -10 -10
-7 -24 2 -14 -1 -27 -7 -30 -7 -2 -5 -5 4 -5 9 -1 16 -7 17 -13 2 -12 9 -55
11 -68 1 -3 5 2 11 10 5 8 12 11 16 7 4 -4 -3 -16 -16 -27 -26 -23 -38 -26
-21 -7 6 8 7 17 3 21 -7 7 -8 11 -11 39 -1 8 -4 8 -10 -3 -6 -8 -7 -19 -3 -25
4 -5 7 -19 7 -30 0 -14 7 -20 22 -20 12 0 26 -5 30 -9 4 -5 3 -7 -2 -3 -6 3
-16 -3 -23 -14 -14 -21 -3 -25 18 -7 12 11 12 10 2 -3 -9 -12 -9 -18 0 -27 9
-9 9 -15 1 -23 -8 -8 -13 -7 -18 2 -5 8 -4 10 3 5 7 -4 12 -3 12 2 0 6 -6 12
-13 15 -8 3 -13 -3 -13 -18 0 -24 31 -30 44 -9 5 8 14 3 26 -15 20 -26 20 -26
0 -8 -20 16 -34 14 -34 -5 0 -5 5 -6 12 -2 6 4 8 3 4 -4 -3 -5 0 -13 6 -15 10
-4 9 -6 -1 -6 -11 -1 -10 -6 4 -21 14 -15 16 -23 7 -32 -16 -16 -47 9 -32 27
7 8 6 12 -4 12 -16 0 -15 -19 3 -41 7 -8 10 -19 8 -23 -3 -5 3 -9 13 -9 10 0
17 4 14 7 -2 4 0 11 6 14 13 8 40 -12 40 -29 0 -6 -5 -3 -11 6 -5 10 -15 18
-20 18 -6 0 -8 -4 -5 -9 8 -12 -19 -33 -29 -23 -5 4 -5 1 -1 -6 4 -7 12 -10
17 -7 13 9 11 -9 -3 -25 -11 -12 -10 -12 2 -4 8 6 26 11 40 12 18 1 21 -1 10
-8 -8 -5 -17 -7 -21 -4 -4 2 -11 -1 -15 -7 -4 -8 -3 -9 4 -5 11 7 17 -7 12
-29 -1 -5 2 -6 7 -2 4 5 8 14 8 19 0 6 7 13 15 15 9 3 11 1 5 -4 -5 -4 -11
-15 -13 -23 -2 -8 -8 -17 -13 -18 -5 -2 -6 -8 -3 -14 4 -5 15 3 25 19 23 34
24 25 4 -23 -14 -34 -14 -36 6 -41 16 -4 18 -8 7 -14 -9 -6 -9 -9 -1 -9 22 0
25 21 5 27 -13 3 -19 10 -15 19 6 17 27 13 29 -4 1 -7 3 -13 4 -14 4 -4 11
-50 11 -72 0 -22 9 -15 13 11 2 10 -1 21 -6 24 -6 4 -6 9 1 13 6 4 11 2 11 -4
0 -6 5 -8 12 -4 10 6 10 5 1 -8 -7 -8 -10 -18 -6 -22 4 -4 12 4 19 16 12 23
12 23 11 -4 -1 -14 -5 -24 -9 -21 -5 2 -8 -8 -8 -22 0 -17 -4 -24 -12 -19 -7
4 -8 3 -4 -5 6 -9 11 -9 22 0 7 6 11 15 8 20 -3 5 0 9 5 9 14 0 14 -6 1 -30
-7 -13 -6 -21 2 -27 23 -14 37 -11 32 5 -5 15 -4 15 5 0 7 -9 20 -15 31 -13
17 3 19 1 10 -16 -13 -24 -21 -25 -13 -1 5 13 3 14 -7 5 -15 -14 -3 -36 17
-29 8 3 12 2 9 -2 -2 -4 8 -16 24 -27 16 -10 28 -27 27 -36 -1 -10 -5 -15 -9
-13 -5 3 -5 10 -2 16 5 7 2 8 -6 3 -8 -5 -11 -4 -6 3 3 6 2 13 -4 17 -25 15
-7 -26 25 -58 33 -33 50 -38 22 -7 -10 12 -9 12 4 2 12 -9 20 -8 38 4 22 16
22 15 10 -4 -7 -11 -17 -19 -21 -16 -4 3 -7 -6 -6 -20 1 -13 6 -22 10 -20 5 3
5 10 2 16 -5 7 -2 8 5 4 7 -5 10 -14 7 -22 -3 -8 -1 -14 5 -14 6 0 7 -6 3 -13
-4 -6 -3 -9 1 -4 5 4 16 0 26 -9 11 -10 19 -12 24 -5 3 6 11 11 16 11 6 0 3
-7 -6 -16 -12 -13 -13 -19 -5 -24 7 -4 8 -10 4 -12 -5 -3 -4 -4 2 -2 6 1 16
-2 22 -8 6 -6 12 -6 17 3 5 8 4 10 -4 5 -7 -5 -10 -2 -9 6 2 7 -3 12 -9 10 -7
-1 -13 2 -13 7 0 6 9 9 19 8 11 0 19 -6 18 -12 -1 -5 4 -9 11 -7 8 1 11 -1 8
-6 -6 -11 30 -43 39 -34 4 4 6 2 5 -3 -5 -22 1 -36 12 -29 6 4 8 3 4 -4 -3 -6
1 -15 10 -20 9 -5 15 -12 15 -15 -3 -23 1 -26 24 -15 13 6 22 16 18 22 -3 6
-3 8 2 4 4 -4 13 -4 19 2 8 6 12 3 12 -9 0 -11 -6 -17 -12 -14 -7 3 -11 -3
-10 -13 2 -10 9 -20 16 -22 8 -3 10 0 6 9 -4 8 5 -1 21 -19 15 -18 33 -32 40
-32 6 0 15 -5 19 -12 5 -8 2 -9 -12 -4 -10 5 -24 9 -31 9 -7 0 -9 5 -6 10 3 6
1 7 -6 3 -9 -6 -9 -11 0 -22 6 -7 16 -11 21 -8 5 3 23 -9 39 -27 21 -24 28
-28 24 -14 -6 20 -6 20 9 1 8 -10 13 -23 9 -29 -3 -6 -1 -7 5 -3 7 4 12 1 12
-8 0 -8 3 -17 8 -19 4 -3 7 5 7 18 0 13 -3 21 -7 19 -4 -3 -12 5 -18 16 -7 13
-7 20 0 20 5 0 10 -7 10 -16 0 -8 4 -13 9 -10 5 3 14 -1 21 -9 7 -8 16 -13 20
-10 5 3 11 1 15 -5 4 -6 11 -8 16 -5 10 7 1 -24 -13 -41 -6 -8 -1 -11 14 -10
16 1 23 -5 23 -16 0 -10 3 -17 7 -17 30 3 45 13 43 27 -1 10 0 11 2 4 3 -7 10
-9 16 -6 8 5 8 2 0 -7 -19 -19 -16 -29 10 -29 16 0 18 3 9 9 -11 6 -9 9 5 13
12 3 20 0 20 -8 0 -8 -4 -14 -9 -14 -5 0 -6 -5 -3 -10 5 -8 11 -8 20 0 10 8
16 4 26 -20 14 -31 20 -35 33 -23 3 4 17 8 29 10 20 2 20 2 4 -8 -10 -6 -14
-15 -10 -22 4 -7 0 -6 -10 2 -9 7 -17 9 -17 3 0 -5 7 -13 16 -16 8 -3 12 -11
8 -17 -4 -7 -3 -9 4 -5 5 3 12 3 15 -1 2 -5 2 -3 1 4 -4 16 28 26 37 12 4 -7
5 -19 2 -27 -5 -12 -2 -12 18 -2 22 12 23 12 10 -4 -13 -16 -12 -16 12 -5 15
7 24 16 20 22 -3 6 -1 7 6 3 6 -4 9 -12 6 -17 -4 -5 1 -12 9 -15 9 -3 16 -11
16 -17 0 -5 -9 -2 -20 8 -17 15 -23 16 -33 5 -6 -7 -7 -10 -1 -7 14 8 56 -22
48 -34 -3 -6 3 -5 14 2 12 7 18 18 15 24 -4 5 2 3 13 -6 10 -9 25 -15 32 -13
7 1 8 0 2 -3 -5 -2 -7 -9 -4 -15 4 -7 15 -1 26 13 11 13 17 18 13 11 -9 -18
-16 -80 -7 -66 10 17 71 13 65 -4 -3 -7 2 -21 11 -31 9 -10 13 -20 10 -24 -12
-11 24 -1 40 12 9 7 16 10 16 6 0 -4 7 -2 16 5 12 11 15 11 12 -1 -2 -9 4 -13
16 -11 18 3 18 3 2 -14 -13 -12 -14 -19 -6 -24 6 -4 11 -11 10 -16 -1 -5 4
-10 12 -12 9 -3 10 -1 1 5 -8 6 -8 13 3 28 12 16 16 17 27 5 9 -10 9 -12 0 -6
-8 4 -13 1 -13 -8 0 -18 16 -21 25 -6 5 8 11 7 20 0 8 -7 26 -13 40 -14 27 -3
48 -16 26 -16 -7 0 -9 -5 -6 -10 5 -8 11 -7 21 1 9 7 14 8 13 3 -1 -5 0 -12 1
-16 1 -5 3 -14 4 -20 1 -7 8 -12 15 -10 8 2 11 -3 8 -13 -4 -8 -2 -15 3 -15
15 0 12 17 -6 46 -15 22 -15 24 0 18 9 -3 13 -10 10 -15 -3 -5 -1 -9 5 -9 5 0
12 6 15 13 3 6 3 2 1 -10 -3 -12 -1 -24 5 -28 6 -3 7 -11 4 -17 -4 -7 -2 -8 4
-4 7 4 12 2 12 -4 0 -6 4 -9 9 -5 6 3 14 -3 20 -12 6 -10 11 -13 11 -6 0 6 -8
18 -18 25 -21 16 -27 45 -8 45 8 0 11 -7 8 -19 -2 -10 1 -18 7 -18 6 0 11 8
12 18 0 13 2 14 6 2 3 -8 13 -21 22 -29 14 -12 14 -13 0 -8 -9 3 -16 0 -16 -8
0 -10 6 -11 23 -3 13 6 21 14 19 18 -2 4 2 7 10 7 8 0 12 -4 9 -9 -3 -4 0 -8
5 -8 6 0 11 -5 11 -11 0 -8 -4 -8 -13 0 -14 11 -37 -3 -37 -23 0 -5 6 -1 14
10 14 18 15 18 21 1 5 -12 11 -15 20 -7 6 5 15 7 18 3 4 -3 7 -2 7 4 0 5 -3
13 -7 17 -4 3 -8 14 -9 22 -1 9 1 13 4 9 4 -4 7 -10 7 -13 0 -4 8 -18 18 -32
9 -13 17 -21 17 -17 0 4 10 3 22 -4 17 -9 20 -9 15 3 -3 8 0 15 7 15 14 0 15
-32 1 -44 -4 -5 -5 -3 -1 4 4 8 0 11 -14 8 -11 -2 -20 0 -20 4 0 4 -7 8 -15 8
-33 0 -16 -16 35 -31 3 -1 11 -5 19 -10 10 -7 12 -6 6 4 -5 8 -3 11 6 8 8 -3
13 -12 11 -19 -2 -9 3 -8 16 4 18 17 32 14 32 -7 0 -6 -4 -5 -9 2 -7 11 -9 11
-14 -2 -4 -9 -3 -15 1 -15 4 1 10 0 15 -1 4 -1 13 -3 20 -4 6 -1 11 -7 10 -13
-1 -6 11 -9 28 -8 22 2 29 -1 25 -11 -8 -21 2 -17 14 6 6 11 7 19 3 18 -4 -2
-9 0 -10 5 -2 4 -1 7 2 7 3 0 10 0 16 0 6 0 9 -7 5 -15 -3 -8 -1 -15 5 -15 5
0 12 7 15 15 6 14 8 13 21 -2 10 -13 16 -15 19 -5 3 6 10 12 15 12 5 0 4 -9
-3 -19 -7 -12 -16 -17 -23 -12 -11 9 -43 7 -53 -4 -4 -4 2 -5 13 -3 13 2 19
-2 17 -10 -2 -9 2 -11 10 -6 7 5 19 9 27 11 8 1 17 7 21 13 5 8 9 7 13 -5 5
-12 11 -13 25 -6 14 7 18 6 18 -9 0 -10 -4 -16 -8 -14 -4 3 -8 0 -8 -6 0 -7 6
-10 14 -7 7 3 19 0 25 -6 6 -6 11 -7 11 -1 0 5 4 3 9 -4 4 -7 17 -15 27 -17
10 -2 20 -4 22 -5 19 -16 62 23 57 51 -2 8 3 16 10 16 8 0 11 -5 7 -11 -4 -6
-7 -13 -8 -16 0 -3 -6 -18 -13 -34 -6 -16 -9 -31 -6 -34 3 -3 5 0 5 5 0 12 18
12 37 0 20 -13 54 -17 48 -6 -4 5 -11 7 -16 4 -5 -4 -9 -1 -9 5 0 6 -4 9 -9 5
-5 -3 -12 -1 -16 5 -4 6 -11 8 -16 5 -5 -3 -6 1 -2 10 3 9 9 12 12 7 3 -5 14
-8 24 -6 9 1 15 -2 12 -6 -3 -5 4 -11 15 -15 11 -3 20 -10 20 -14 0 -4 12 -13
26 -19 14 -7 23 -8 19 -3 -3 5 -1 12 5 16 5 3 10 -1 10 -9 0 -9 3 -15 7 -15
20 3 27 -2 13 -11 -12 -7 -11 -9 5 -9 34 1 56 -7 66 -22 6 -10 9 -11 9 -1 0
14 31 12 43 -3 4 -6 15 -1 26 13 28 32 36 27 11 -7 -13 -19 -17 -32 -10 -36 6
-4 9 -1 8 6 -2 6 3 14 11 17 8 2 11 0 8 -5 -3 -5 4 -9 16 -9 13 1 21 -4 19
-12 -2 -10 2 -10 18 -2 15 8 20 8 20 -2 0 -9 3 -9 10 2 8 13 11 13 19 1 7 -11
10 -9 16 7 5 18 9 19 20 9 7 -6 11 -16 8 -21 -3 -4 -9 -2 -14 5 -7 11 -9 11
-9 -2 0 -9 7 -20 16 -23 8 -3 12 -2 9 4 -8 13 1 13 26 -1 11 -6 17 -15 12 -22
-5 -9 -3 -9 8 -1 23 18 69 23 69 8 0 -13 12 -18 33 -15 4 0 7 -4 7 -9 0 -6 11
-8 25 -4 14 3 24 2 23 -2 -2 -5 0 -10 5 -11 16 -6 19 -2 9 10 -8 9 -8 17 0 27
8 12 9 12 4 -2 -3 -12 0 -18 10 -18 8 0 13 -4 10 -8 -3 -5 0 -9 7 -10 7 0 21
-3 32 -5 11 -3 27 -7 35 -9 8 -1 19 -7 23 -13 5 -6 7 -4 5 5 -4 19 3 23 25 15
9 -4 24 -2 31 4 11 9 15 9 18 0 2 -7 12 -13 21 -15 18 -2 22 6 9 22 -4 5 3 -2
15 -15 12 -14 20 -28 17 -33 -3 -4 0 -8 5 -8 6 0 11 6 11 14 0 8 7 17 16 20
14 5 15 4 5 -8 -10 -11 -10 -19 -1 -33 8 -12 10 -13 7 -3 -3 9 2 25 10 35 13
17 15 17 10 2 -4 -9 -2 -17 3 -17 6 0 10 5 10 12 0 6 6 3 14 -8 13 -17 16 -17
28 -4 7 8 12 13 11 11 -2 -2 2 -10 7 -16 7 -9 -1 -11 -35 -10 -25 2 -45 -2
-45 -7 0 -5 4 -7 9 -4 5 4 12 0 14 -6 4 -9 6 -9 6 -1 1 13 41 5 41 -8 0 -5 8
-1 18 9 11 10 15 21 11 28 -5 6 -3 11 6 11 7 0 13 -5 12 -11 -1 -6 6 -10 15
-8 9 1 19 -2 23 -8 5 -8 12 -7 23 2 15 12 16 11 3 -4 -9 -12 -19 -15 -30 -10
-20 10 -41 10 -41 0 0 -5 3 -8 8 -9 4 0 14 -7 23 -15 15 -13 17 -13 23 2 5 13
9 14 21 4 8 -7 15 -9 15 -5 0 4 8 1 17 -6 14 -12 15 -12 9 0 -7 10 -3 12 15 6
20 -5 21 -4 9 5 -13 10 -13 11 1 7 9 -3 21 -1 27 5 6 6 16 7 27 1 16 -9 16
-10 0 -17 -9 -3 -22 -3 -27 1 -6 3 -8 1 -4 -5 3 -5 0 -13 -6 -16 -7 -3 -2 -3
12 1 39 11 81 7 91 -8 6 -9 9 -10 9 -2 0 7 -8 17 -17 22 -16 9 -17 10 -1 11 9
0 20 -9 23 -20 3 -11 11 -20 16 -20 6 0 8 4 5 9 -3 5 0 11 7 14 18 7 43 -8 29
-17 -6 -3 -13 0 -15 6 -4 8 -6 9 -6 2 -1 -6 7 -18 16 -25 9 -8 14 -9 10 -3 -9
15 19 38 34 28 8 -5 10 -2 7 8 -4 8 -1 15 7 15 7 0 10 -8 7 -19 -2 -10 -11
-17 -20 -16 -8 2 -17 -4 -19 -12 -4 -12 -3 -12 5 -1 8 11 11 11 16 0 5 -11 7
-11 12 -1 3 6 14 12 24 12 11 0 23 7 27 15 7 12 10 11 21 -5 7 -12 8 -20 2
-20 -5 0 -10 5 -10 11 0 5 -5 7 -10 4 -14 -9 -5 -21 20 -28 11 -3 18 -1 14 4
-3 5 0 9 7 9 10 0 10 3 1 12 -7 7 -12 16 -12 22 0 5 6 1 14 -9 8 -11 12 -23
10 -26 -2 -4 3 -12 11 -19 11 -9 18 -10 28 -1 8 6 17 7 21 3 4 -4 16 -8 27 -8
37 -3 40 -4 33 -16 -5 -7 -3 -8 6 -3 10 6 8 12 -10 27 -18 15 -26 16 -39 6
-13 -10 -13 -9 1 7 14 15 20 16 32 5 12 -9 19 -10 30 -1 11 9 18 8 31 -5 14
-15 18 -15 25 -3 7 11 12 11 22 1 6 -6 10 -12 8 -13 -3 0 -14 -2 -24 -4 -11
-2 -25 -1 -30 3 -6 3 -17 7 -24 8 -10 2 -10 -1 -2 -11 10 -12 78 -14 98 -1 9
6 43 -29 36 -38 -2 -3 -1 -3 4 0 4 3 7 10 7 15 0 5 5 9 10 8 6 -1 9 -5 7 -11
-1 -5 2 -7 8 -3 6 3 8 10 5 15 -3 4 -2 10 2 13 5 2 2 2 -5 0 -7 -1 -10 2 -7 7
3 6 13 10 21 10 11 0 13 -6 9 -21 l-7 -22 30 22 c17 11 34 21 39 21 4 0 2 -4
-5 -9 -11 -7 -9 -13 9 -30 17 -16 25 -18 31 -9 6 10 8 9 8 -2 0 -13 2 -13 9 0
13 19 2 34 -14 20 -8 -7 -19 -9 -24 -6 -12 8 -3 36 11 36 5 0 6 -5 2 -11 -4
-7 -1 -10 7 -7 8 3 22 1 31 -3 15 -8 17 -4 14 27 -2 19 -1 33 2 29 13 -13 9
-61 -6 -80 -10 -12 -11 -15 -2 -7 16 14 34 16 26 3 -7 -11 20 -8 31 2 4 5 15
-2 25 -15 15 -18 17 -19 11 -4 -5 14 -3 17 7 11 8 -5 11 -4 7 2 -4 6 0 13 7
16 11 4 13 0 11 -15 -4 -19 -3 -19 13 -5 11 11 22 13 32 7 8 -5 18 -6 22 -4 4
3 8 0 8 -6 0 -6 5 -8 10 -5 18 11 11 24 -10 20 -11 -2 -18 0 -16 4 3 5 -6 7
-19 5 -30 -3 -32 7 -5 23 15 10 21 10 27 0 11 -17 53 -18 53 -1 0 8 4 14 10
14 5 0 7 -7 4 -15 -5 -11 -1 -14 12 -9 15 5 16 4 5 -4 -8 -6 -23 -9 -34 -6
-11 2 -16 0 -13 -4 4 -4 11 -7 14 -7 4 -1 18 -6 32 -13 23 -12 24 -12 6 2 -19
16 -19 16 1 16 12 0 25 4 28 10 6 10 40 8 51 -3 15 -14 33 -7 28 10 -4 14 -3
15 4 5 5 -8 12 -13 16 -13 16 1 35 -12 29 -22 -3 -6 -1 -7 6 -3 6 4 9 11 6 16
-3 4 3 18 13 30 15 18 19 19 19 7 0 -9 -5 -13 -10 -10 -5 3 -7 0 -5 -8 3 -8
15 -13 28 -11 16 3 20 0 14 -10 -6 -9 -3 -9 10 2 16 13 20 12 31 -3 10 -13 14
-15 17 -5 4 11 8 10 21 -1 15 -12 18 -10 28 18 6 17 16 31 21 31 6 0 6 -6 -2
-14 -8 -11 -9 -20 -1 -33 8 -14 10 -15 11 -3 0 13 1 13 10 0 7 -12 10 -12 10
-1 0 8 6 11 16 7 15 -6 15 -4 0 19 -19 28 -11 34 11 8 8 -10 12 -13 9 -6 -4 6
-1 15 5 19 8 4 9 3 5 -4 -4 -7 -2 -12 5 -12 8 0 8 -4 -1 -15 -7 -9 -10 -18 -6
-22 3 -3 6 0 6 8 0 12 2 11 11 -1 9 -13 10 -12 5 3 -3 9 -1 17 5 17 6 0 7 4 4
10 -4 6 1 7 11 3 10 -3 15 -2 12 3 -4 5 5 10 18 10 15 1 23 -3 21 -10 -2 -6
-11 -10 -19 -8 -9 1 -22 -5 -29 -15 -13 -14 -12 -15 6 -7 23 11 45 11 61 2 6
-4 11 -1 11 7 0 8 -3 12 -7 10 -4 -2 -7 2 -7 10 0 8 4 12 9 9 4 -3 8 1 8 8 0
9 3 9 10 -2 7 -10 13 -11 18 -4 4 6 13 4 25 -8 17 -18 16 -18 -13 -13 -19 3
-30 1 -30 -7 0 -6 3 -8 7 -5 3 4 12 -1 20 -11 12 -16 13 -16 7 1 -5 13 -2 16
9 11 21 -8 30 11 12 26 -8 7 -15 18 -15 24 0 6 5 3 11 -7 5 -9 15 -17 21 -17
7 0 7 5 -1 14 -9 11 -9 16 0 22 7 4 9 3 5 -4 -3 -6 -1 -14 5 -18 6 -3 15 -1
19 6 5 9 9 9 14 1 4 -6 1 -11 -6 -11 -10 0 -9 -3 2 -11 12 -8 10 -9 -7 -4 -15
4 -23 2 -23 -6 0 -7 3 -9 6 -6 4 3 15 2 25 -4 15 -7 19 -7 17 3 -2 7 3 12 11
10 15 -3 43 17 37 27 -3 4 4 7 14 8 11 1 22 -2 25 -7 2 -4 -3 -7 -13 -6 -11 1
-16 -5 -14 -18 2 -10 -1 -15 -7 -12 -5 4 -12 2 -15 -3 -4 -5 2 -8 11 -6 10 1
17 9 17 17 -1 10 7 16 22 16 13 0 21 -5 18 -10 -4 -6 3 -5 14 1 27 14 35 14
26 -1 -4 -7 -3 -8 5 -4 6 4 9 12 6 17 -9 13 9 11 24 -4 9 -7 11 -7 8 -1 -4 7
0 15 8 18 8 3 14 11 13 17 -2 6 3 13 10 14 7 2 8 1 2 -2 -7 -3 -7 -10 2 -21
11 -13 11 -14 -1 -7 -10 5 -12 4 -7 -3 4 -7 2 -12 -5 -12 -7 0 -9 -3 -6 -6 4
-4 14 -1 23 7 18 15 36 20 75 21 16 1 25 6 23 13 -3 6 7 11 23 10 15 0 31 3
34 8 5 7 13 10 49 16 3 1 -2 6 -10 12 -12 9 -11 10 5 4 23 -8 25 -8 47 -6 12
1 16 7 12 19 -5 16 -5 16 6 0 6 -10 18 -15 28 -12 14 5 14 4 2 -4 -8 -6 -18
-8 -22 -6 -4 3 -8 1 -8 -4 0 -5 -12 -8 -27 -6 -15 1 -32 0 -38 -4 -5 -4 -14
-7 -20 -7 -5 0 -10 -8 -11 -18 -2 -13 -1 -14 3 -2 4 13 8 14 19 4 12 -10 15
-10 12 1 -2 9 7 15 25 16 17 2 25 -1 21 -8 -4 -5 5 -2 19 7 15 9 32 13 38 9 8
-5 9 -3 4 6 -6 10 -4 12 9 7 11 -4 15 -3 11 4 -9 13 27 8 37 -6 5 -6 8 -5 8 3
0 7 4 10 10 7 6 -3 7 1 4 9 -3 9 -10 16 -16 16 -5 0 -7 -4 -4 -8 2 -4 -8 -8
-23 -7 -15 0 -28 5 -28 12 0 8 6 9 18 3 12 -7 21 -5 29 5 11 13 14 13 27 -2
13 -16 14 -16 10 -1 -4 11 0 15 11 13 9 -1 22 2 28 6 6 5 19 7 28 3 12 -5 13
-11 5 -27 -10 -21 -10 -21 5 -3 14 17 14 21 1 36 -8 9 -15 20 -15 24 0 4 14
-8 30 -26 21 -22 29 -26 24 -13 -7 18 -6 19 12 5 17 -14 18 -13 7 1 -7 9 -9
20 -5 25 4 4 -1 2 -10 -5 -10 -7 -18 -9 -18 -5 0 5 9 15 21 22 12 8 18 9 14 3
-3 -6 -1 -11 5 -11 6 0 8 -5 4 -12 -4 -7 -3 -8 4 -4 7 4 12 2 12 -3 0 -6 4
-11 10 -11 5 0 0 16 -11 35 -12 20 -16 35 -10 35 6 0 11 -6 11 -13 0 -8 10
-22 22 -33 14 -12 18 -13 10 -3 -6 9 -8 20 -4 24 4 5 1 5 -6 1 -11 -7 -11 -4
0 13 7 12 14 17 16 11 2 -6 16 -1 32 10 l29 20 -5 -27 c-3 -19 -2 -24 5 -14 5
7 13 11 18 8 5 -3 10 0 10 8 0 8 -4 12 -9 9 -4 -3 -5 2 -2 10 6 17 34 10 30
-7 -1 -7 -1 -9 1 -4 3 4 8 5 13 2 4 -3 6 4 3 15 -3 12 0 20 6 20 7 0 10 -4 7
-8 -2 -4 -1 -14 5 -22 5 -10 9 -11 9 -3 0 7 7 10 18 7 14 -5 15 -4 2 5 -16 12
-11 14 33 14 13 0 15 3 6 13 -6 8 -8 14 -3 14 4 0 3 5 -4 12 -7 7 -12 16 -12
22 0 5 6 3 13 -6 11 -14 15 -13 44 7 18 12 29 26 25 30 -4 5 -2 5 5 2 10 -6
73 37 81 56 2 4 8 7 13 7 6 0 7 -4 4 -10 -3 -5 -2 -10 4 -10 14 0 23 18 12 24
-11 7 -9 32 4 43 4 5 5 2 0 -6 -6 -10 -4 -13 6 -9 17 7 24 -28 8 -37 -5 -4 -7
-10 -4 -15 3 -4 -6 -7 -19 -6 -14 2 -30 -1 -38 -6 -8 -6 1 -8 27 -5 26 2 40 8
40 17 1 8 7 14 14 12 8 -2 10 4 6 18 -4 14 -2 18 7 15 8 -3 22 1 32 8 15 11
16 16 6 22 -8 5 -11 4 -7 -2 4 -6 1 -13 -6 -16 -8 -3 -14 1 -14 9 0 8 4 15 9
15 4 1 13 3 18 4 6 1 14 3 19 4 5 0 8 9 7 19 -1 11 5 16 18 14 11 -2 15 1 11
7 -3 6 -1 11 4 11 6 0 11 -6 12 -12 0 -7 4 -3 10 10 5 13 13 21 18 18 15 -10
7 34 -9 45 -11 7 -8 8 11 3 15 -3 30 -1 34 5 3 7 3 11 -2 10 -19 -3 -33 2 -33
12 0 6 5 7 13 2 20 -12 47 -14 47 -2 0 5 -4 8 -9 5 -5 -3 -11 3 -14 14 -4 17
-2 18 15 9 16 -9 19 -8 13 2 -6 9 -3 10 10 5 15 -5 16 -4 6 8 -7 8 -19 12 -27
9 -8 -3 -14 0 -14 6 0 6 6 10 13 9 7 -2 12 6 11 19 -1 13 3 23 8 23 6 0 8 -6
5 -13 -3 -7 2 -22 10 -32 15 -19 15 -19 8 4 -5 17 -4 21 5 16 9 -5 9 -1 -1 16
-14 26 -19 73 -7 61 4 -4 9 -19 11 -32 2 -14 7 -24 10 -22 4 1 12 2 19 2 6 0
3 6 -8 14 -15 12 -17 17 -6 27 16 17 16 29 0 25 -7 -1 -10 -1 -5 1 4 3 4 10 0
16 -4 7 1 6 10 -2 15 -12 17 -11 17 3 0 9 5 16 10 16 6 0 10 6 9 13 -3 27 1
38 14 31 9 -6 9 -4 1 7 -12 16 -12 29 -1 46 5 7 5 13 0 13 -4 0 -1 5 7 10 9 6
11 10 3 10 -7 0 -10 6 -7 14 3 8 0 17 -7 22 -7 4 -10 3 -6 -3 3 -5 -1 -10 -9
-10 -10 0 -11 4 -5 10 7 7 5 15 -7 24 -11 9 -5 8 17 -2 l33 -17 -18 25 c-11
14 -22 23 -26 21 -9 -6 -4 24 7 33 4 4 5 3 1 -4 -13 -24 18 -26 37 -2 15 17
18 19 14 6 -5 -13 -3 -17 5 -14 7 2 12 14 11 26 -2 11 1 21 5 21 12 0 11 -32
-1 -47 -12 -17 5 -17 22 0 11 10 12 8 6 -10 -4 -15 -2 -23 5 -23 6 0 8 5 5 10
-3 6 -2 10 3 10 6 0 9 7 8 16 0 9 5 18 12 20 7 1 8 0 2 -3 -5 -2 -10 -9 -10
-14 0 -6 6 -7 13 -3 8 5 7 2 -2 -9 -22 -27 -4 -33 20 -6 11 13 18 18 14 12 -3
-7 -1 -13 4 -13 6 0 11 -5 11 -11 0 -5 -3 -8 -8 -5 -4 2 -18 -2 -32 -9 -25
-13 -24 -13 10 -12 24 2 34 -2 32 -11 -2 -9 2 -11 10 -5 19 12 58 11 58 -2 0
-5 4 -3 10 5 5 8 12 11 16 7 4 -3 1 -13 -6 -22 -8 -10 -9 -15 -1 -15 6 0 11 4
11 8 0 20 27 43 43 36 21 -8 22 -21 2 -21 -8 0 -12 4 -9 9 3 4 1 8 -5 8 -5 0
-9 -9 -8 -20 1 -10 3 -17 6 -15 2 3 10 0 17 -6 7 -6 28 -12 46 -14 24 -3 29
-2 18 5 -12 8 -13 10 -1 10 8 0 24 -8 35 -18 20 -16 20 -16 7 0 -13 17 -2 26
13 11 12 -13 36 -11 36 2 0 8 5 17 12 21 7 4 8 3 4 -4 -4 -7 5 -10 29 -8 34 4
46 -6 25 -19 -5 -3 -10 -2 -10 4 0 5 -10 8 -21 6 -25 -5 -38 -15 -20 -15 7 0
9 -5 5 -12 -6 -10 -4 -10 7 -2 8 6 32 11 54 10 22 -1 49 4 61 11 11 7 24 10
29 6 4 -5 5 1 1 12 -5 15 -4 17 5 8 13 -13 3 -36 -13 -27 -7 4 -8 2 -4 -4 5
-8 2 -10 -8 -6 -9 3 -16 2 -16 -4 0 -11 25 -10 36 1 14 13 26 7 15 -7 -9 -11
-9 -16 0 -22 7 -4 9 -3 5 4 -3 6 -2 13 4 17 6 4 7 12 3 18 -4 8 -1 7 9 -1 13
-10 18 -10 24 -1 5 8 3 9 -6 4 -9 -5 -11 -4 -6 4 4 6 11 9 16 6 5 -3 12 -1 15
5 5 8 11 7 21 -1 7 -6 11 -15 8 -20 -3 -5 2 -12 10 -15 9 -3 13 -11 10 -18 -3
-6 2 -2 10 8 9 11 16 16 16 12 0 -5 7 -3 15 4 8 7 15 9 15 5 0 -4 7 -2 15 5
13 11 14 10 9 -4 -3 -9 -1 -16 5 -16 6 0 12 12 12 28 1 16 3 20 6 9 7 -27 24
-20 19 8 -3 13 -1 27 4 30 5 3 7 -3 5 -13 -2 -11 5 -32 15 -48 17 -25 19 -25
17 -7 0 12 -4 20 -7 18 -4 -2 -7 3 -7 11 0 10 4 11 11 4 15 -15 26 -12 19 7
-4 11 -3 14 5 9 16 -9 15 -33 0 -38 -8 -3 -6 -7 5 -11 9 -3 16 -3 16 1 -3 19
2 33 10 28 5 -3 15 2 22 11 12 14 12 16 -1 11 -11 -4 -16 0 -16 13 0 12 4 15
12 9 6 -6 14 -6 18 -2 4 4 6 0 4 -8 -2 -11 4 -14 21 -12 29 4 45 -17 28 -37
-10 -12 -9 -12 11 0 12 8 22 17 22 22 0 4 -4 6 -8 3 -5 -3 -9 1 -9 8 0 15 21
15 34 1 4 -4 2 -5 -6 0 -10 5 -12 4 -7 -3 5 -9 13 -9 27 -1 11 6 27 8 35 5 8
-3 14 0 13 7 -3 24 1 35 17 41 8 3 12 2 9 -4 -3 -6 -1 -10 4 -10 6 0 11 8 11
18 0 14 2 15 10 2 9 -13 14 -7 11 13 -2 12 6 8 20 -10 12 -14 12 -16 0 -8 -9
5 -12 4 -8 -2 3 -5 1 -10 -6 -11 -46 -6 -57 -9 -64 -17 -5 -4 -3 -5 4 -1 6 3
15 1 19 -5 4 -8 9 -7 16 2 8 11 11 11 15 1 3 -8 11 -4 25 13 16 21 18 28 8 40
-9 11 -9 15 -1 15 6 0 11 -4 11 -10 0 -5 13 -7 30 -4 25 5 30 3 31 -12 0 -18
1 -18 8 -1 4 10 11 17 15 15 5 -2 10 5 12 15 2 15 0 16 -12 6 -8 -7 -14 -7
-14 -1 0 18 29 21 39 4 6 -9 11 -12 11 -5 0 6 6 13 13 16 6 2 4 3 -5 2 -10 -2
-18 1 -18 5 0 14 24 18 45 7 11 -5 17 -6 13 -2 -4 5 -2 15 5 24 10 14 10 14
-4 3 -13 -10 -19 -9 -30 5 -12 14 -12 16 0 8 11 -6 13 -3 9 13 -4 12 -2 20 3
16 5 -3 9 -11 9 -17 0 -7 9 -13 20 -14 11 -1 18 2 15 7 -8 12 21 20 33 8 6 -6
12 -6 16 0 3 5 -2 16 -11 23 -14 12 -16 12 -9 -1 6 -10 3 -10 -10 2 -13 13
-15 21 -7 29 13 13 36 3 28 -12 -4 -5 3 -9 13 -9 11 0 23 7 26 16 3 8 10 13
15 10 5 -4 8 2 6 11 -2 10 -4 22 -4 26 -1 5 -6 5 -12 1 -8 -5 -8 -9 1 -14 9
-5 9 -9 1 -14 -12 -8 -12 -7 -16 41 -1 18 2 30 6 27 4 -2 5 -12 2 -22 -6 -16
-5 -16 14 1 16 14 20 14 20 2 0 -8 -5 -11 -11 -8 -6 4 -5 -1 3 -10 17 -22 18
-22 17 8 -1 14 -11 32 -21 40 -19 14 -18 15 6 4 21 -9 32 -8 55 6 16 9 21 14
12 11 -20 -6 -34 10 -16 17 10 4 10 6 1 6 -7 1 -13 8 -13 17 0 8 -4 12 -10 9
-5 -3 -10 -1 -10 5 0 7 7 10 15 6 9 -3 15 0 15 10 0 9 -5 12 -12 8 -9 -5 -9
-3 1 9 12 15 31 15 31 1 0 -3 -5 -2 -12 2 -7 4 -8 3 -4 -5 12 -18 23 -4 21 26
-1 15 2 35 6 44 5 10 3 16 -5 16 -7 0 -12 -12 -11 -32 2 -26 -2 -31 -19 -30
-12 1 -26 -2 -32 -6 -7 -5 -11 -3 -11 6 0 8 4 12 8 9 4 -2 10 0 14 5 3 6 11 8
19 5 7 -3 13 2 13 13 0 18 -31 46 -55 50 -8 1 -17 4 -20 7 -3 4 4 5 16 3 12
-2 28 -9 34 -15 17 -17 25 -15 23 8 -1 11 -10 27 -21 36 -18 15 -17 15 6 1 24
-13 25 -13 25 9 0 17 -3 20 -12 12 -9 -7 -13 -7 -13 0 0 6 5 14 10 17 6 3 10
11 10 17 0 6 -6 6 -15 -2 -9 -7 -18 -10 -22 -6 -3 3 -1 6 5 6 7 0 12 7 12 16
0 8 5 12 10 9 6 -3 10 -2 10 3 0 12 -30 26 -47 23 -7 -1 -13 3 -13 9 0 6 -4 9
-8 6 -5 -3 -9 1 -9 9 0 8 4 12 8 9 9 -5 19 9 24 36 2 11 0 20 -6 20 -8 0 -13
-15 -10 -32 2 -12 -17 -10 -24 2 -3 5 -1 10 6 10 9 0 9 4 -1 15 -6 8 -9 19 -6
24 4 5 2 12 -4 16 -6 4 -8 11 -4 16 3 5 0 8 -7 7 -6 -2 -14 3 -17 11 -2 8 0
11 5 8 5 -3 10 0 10 7 0 8 -7 12 -16 11 -9 -2 -19 -4 -23 -4 -5 -1 -8 -6 -8
-12 0 -5 3 -8 8 -6 4 3 15 -5 24 -18 15 -20 15 -24 2 -41 -14 -18 -14 -18 -4
3 10 22 7 27 -13 24 -5 -1 -6 3 -3 8 3 5 -1 11 -8 14 -8 3 -14 15 -13 26 0 11
5 17 9 15 4 -3 8 0 8 5 0 18 -20 12 -28 -8 -7 -19 -8 -18 -19 5 -8 17 -8 26
-1 31 6 3 8 2 5 -4 -3 -5 0 -10 8 -10 20 0 19 13 -1 21 -8 3 -12 11 -8 17 4 7
3 9 -4 5 -6 -3 -17 3 -25 14 -13 18 -15 19 -21 5 -4 -10 -2 -14 6 -9 7 5 8 3
3 -6 -6 -9 -4 -11 5 -5 9 6 11 4 5 -5 -5 -9 -4 -11 3 -6 8 5 10 1 6 -9 -6 -13
-9 -12 -23 7 -8 13 -14 32 -13 43 2 19 2 19 -11 3 -8 -10 -20 -18 -28 -18 -10
1 -9 4 4 11 9 5 17 15 17 21 0 6 -7 5 -17 -3 -9 -8 -14 -9 -10 -3 4 7 1 14 -7
17 -9 4 -12 -2 -11 -17 2 -14 -3 -23 -11 -23 -10 0 -11 4 -3 13 7 9 6 22 -6
44 -9 18 -13 30 -8 27 5 -3 15 -1 23 4 13 8 13 9 0 7 -9 -2 -28 7 -44 20 -16
12 -22 22 -15 22 10 1 8 4 -4 11 -10 6 -23 8 -30 5 -7 -2 -4 -5 6 -5 10 -1 16
-5 12 -10 -3 -6 3 -14 12 -20 10 -6 12 -11 6 -11 -7 0 -13 -5 -13 -11 0 -8 6
-7 18 2 15 13 16 12 4 -3 -16 -20 -41 -13 -37 10 1 9 -6 25 -17 36 -23 22 -36
15 -13 -8 9 -9 11 -16 5 -16 -6 0 -13 7 -16 15 -4 8 -11 12 -18 9 -6 -3 -1 4
12 15 l23 20 -41 -2 c-23 -2 -44 2 -47 7 -3 5 -1 6 5 2 7 -4 12 -3 12 3 0 6 8
8 18 5 13 -5 14 -4 3 4 -18 13 -49 4 -53 -17 -3 -12 -5 -10 -10 7 -3 12 -3 20
1 18 4 -3 13 -1 20 3 9 6 3 10 -17 13 -18 2 -29 0 -28 -6 2 -6 1 -8 -1 -3 -3
4 -9 5 -14 1 -5 -3 -9 -3 -9 0 0 2 37 31 83 63 531 374 943 963 1406 2013
l100 225 -4 140 c-3 165 -23 281 -71 425 -77 231 -231 479 -429 689 -65 69
-218 218 -275 267 -25 21 -47 41 -50 45 -37 41 -437 344 -910 689 -271 198
-549 420 -646 517 -6 7 -15 33 -19 58 -3 26 -19 99 -35 163 -77 314 -151 447
-283 511 -78 38 -150 49 -291 45 -215 -7 -358 -66 -455 -188 l-29 -36 -73 98
c-132 176 -419 542 -638 815 -119 148 -223 278 -231 290 -13 18 -15 86 -14
466 0 245 2 556 4 691 5 275 -4 348 -66 538 -87 267 -279 539 -504 712 -25 19
-54 43 -65 52 -46 40 -248 162 -350 212 -160 79 -388 166 -434 166 -8 0 -7
-10 2 -33 57 -134 207 -686 251 -922 21 -111 46 -258 51 -300 4 -27 8 -57 10
-65 10 -38 16 -163 10 -192 l-7 -32 -26 29 c-29 35 -96 109 -237 260 -57 61
-117 126 -135 145 -295 320 -1004 1028 -1360 1357 -36 33 -92 86 -125 116 -65
62 -81 66 -152 41z m3328 -4626 c62 -73 116 -135 119 -138 3 -3 84 -97 180
-210 96 -113 184 -216 196 -229 l21 -23 -22 -62 c-12 -33 -34 -85 -49 -115
-16 -30 -30 -65 -32 -79 -3 -14 -12 -52 -20 -86 -21 -90 -30 -310 -14 -377 31
-135 104 -237 257 -356 66 -51 85 -72 92 -101 14 -52 82 -434 79 -438 -2 -2
-42 8 -88 22 -129 38 -340 90 -485 119 -71 14 -133 29 -136 33 -4 4 -10 44
-13 88 -4 45 -9 93 -11 105 -2 13 -6 54 -9 91 -3 36 -8 81 -10 100 -3 18 -10
85 -17 148 -6 63 -13 126 -14 140 -2 14 -6 61 -10 105 -3 44 -8 91 -10 105 -3
14 -10 77 -15 140 -6 63 -13 128 -15 145 -4 31 -11 103 -20 215 -3 36 -7 83
-10 105 -3 22 -7 74 -10 115 -3 41 -8 86 -10 100 -2 14 -7 66 -11 115 -3 50
-8 97 -9 105 -2 9 -6 65 -10 125 -4 61 -9 113 -12 118 -17 28 20 -11 118 -125z
m-5576 -4948 c3 -5 1 -10 -4 -10 -6 0 -11 5 -11 10 0 6 2 10 4 10 3 0 8 -4 11
-10z m15 -33 c0 -2 -9 -12 -19 -21 -14 -13 -21 -14 -27 -5 -4 8 -3 10 5 5 6
-4 14 0 17 8 5 14 24 23 24 13z m10 -61 c0 -3 -4 -8 -10 -11 -5 -3 -10 -1 -10
4 0 6 5 11 10 11 6 0 10 -2 10 -4z m-23 -83 c-4 -3 -1 -13 6 -22 11 -14 10
-14 -5 -2 -16 12 -16 31 -1 31 4 0 3 -3 0 -7z m-40 -28 c0 -8 -4 -12 -9 -9 -5
3 -6 10 -3 15 9 13 12 11 12 -6z m33 -109 c0 -2 -8 -10 -17 -17 -16 -13 -17
-12 -4 4 13 16 21 21 21 13z m7 -73 c0 -9 -4 -10 -14 -2 -7 6 -13 12 -13 14 0
1 6 2 13 2 8 0 14 -6 14 -14z m127 -111 c3 -5 -1 -9 -9 -9 -8 0 -12 4 -9 9 3
4 7 8 9 8 2 0 6 -4 9 -8z m8105 -26 c9 -11 9 -16 -1 -22 -7 -4 -10 -4 -6 1 4
4 3 14 -3 22 -6 7 -9 13 -6 13 2 0 10 -6 16 -14z m51 0 c0 -2 -8 -10 -17 -17
-16 -13 -17 -12 -4 4 13 16 21 21 21 13z m55 -36 c3 -5 1 -10 -4 -10 -6 0 -11
5 -11 10 0 6 2 10 4 10 3 0 8 -4 11 -10z m-8310 -40 c3 -5 2 -10 -4 -10 -5 0
-13 5 -16 10 -3 6 -2 10 4 10 5 0 13 -4 16 -10z m8211 -5 c-1 -8 -5 -17 -8
-21 -5 -4 -4 16 1 34 3 9 9 -1 7 -13z m138 3 c-3 -4 -11 -5 -19 -1 -21 7 -19
12 4 10 11 0 18 -5 15 -9z m36 -13 c0 -2 -6 -8 -13 -14 -10 -8 -14 -7 -14 2 0
8 6 14 14 14 7 0 13 -1 13 -2z m-8310 -9 c0 -2 -8 -10 -17 -17 -16 -13 -17
-12 -4 4 13 16 21 21 21 13z m7894 -14 c3 -5 -1 -9 -9 -9 -8 0 -12 4 -9 9 3 4
7 8 9 8 2 0 6 -4 9 -8z m306 4 c0 -3 -4 -8 -10 -11 -5 -3 -10 -1 -10 4 0 6 5
11 10 11 6 0 10 -2 10 -4z m134 -4 c3 -5 -1 -9 -9 -9 -8 0 -12 4 -9 9 3 4 7 8
9 8 2 0 6 -4 9 -8z m41 -2 c3 -5 1 -10 -4 -10 -6 0 -11 5 -11 10 0 6 2 10 4
10 3 0 8 -4 11 -10z m-8359 -25 c1 -8 -1 -17 -5 -19 -4 -3 -7 6 -7 19 0 25 8
25 12 0z m39 6 c3 -5 2 -12 -3 -15 -5 -3 -9 1 -9 9 0 17 3 19 12 6z m7826 -18
c13 -16 12 -17 -3 -4 -10 7 -18 15 -18 17 0 8 8 3 21 -13z m59 13 c0 -2 -6 -9
-14 -15 -11 -9 -16 -9 -22 0 -4 7 -3 9 4 5 6 -3 13 -2 17 4 6 10 15 14 15 6z
m260 1 c0 -2 -10 -12 -22 -23 l-23 -19 19 23 c18 21 26 27 26 19z m160 -1 c0
-2 -8 -10 -17 -17 -16 -13 -17 -12 -4 4 13 16 21 21 21 13z m-8259 -19 c-6 -8
-8 -16 -5 -19 3 -3 1 -9 -4 -12 -6 -3 -9 0 -8 6 2 16 15 38 23 38 3 0 0 -6 -6
-13z m7985 1 c3 -4 -1 -5 -10 -4 -8 1 -18 5 -22 8 -3 4 1 5 10 4 8 -1 18 -5
22 -8z m-8092 -14 c3 -8 2 -12 -4 -9 -6 3 -10 10 -10 16 0 14 7 11 14 -7z
m8263 1 c0 -8 -4 -12 -9 -9 -5 3 -6 10 -3 15 9 13 12 11 12 -6z m118 6 c3 -5
2 -12 -3 -15 -5 -3 -9 1 -9 9 0 17 3 19 12 6z m-8315 -5 c0 -2 -7 -7 -16 -10
-8 -3 -12 -2 -9 4 6 10 25 14 25 6z m8165 -6 c3 -6 -1 -7 -9 -4 -18 7 -21 14
-7 14 6 0 13 -4 16 -10z m-307 -25 c-3 -3 -9 2 -12 12 -6 14 -5 15 5 6 7 -7
10 -15 7 -18z m-7854 7 c3 -5 -1 -9 -9 -9 -8 0 -12 4 -9 9 3 4 7 8 9 8 2 0 6
-4 9 -8z m-50 -18 c3 -8 2 -12 -4 -9 -6 3 -10 10 -10 16 0 14 7 11 14 -7z
m8051 -4 c-3 -5 -12 -10 -18 -10 -7 0 -6 4 3 10 19 12 23 12 15 0z m31 -5 c-1
-8 -5 -17 -8 -21 -5 -4 -4 16 1 34 3 9 9 -1 7 -13z m379 6 c3 -5 2 -12 -3 -15
-5 -3 -9 1 -9 9 0 17 3 19 12 6z m-277 -26 c-3 -3 -9 2 -12 12 -6 14 -5 15 5
6 7 -7 10 -15 7 -18z m59 11 c0 -15 -21 -16 -34 -1 -4 4 -3 5 4 1 6 -3 14 -2
18 4 8 14 12 13 12 -4z m-303 -12 c3 -8 2 -12 -4 -9 -6 3 -10 10 -10 16 0 14
7 11 14 -7z m36 10 c0 -8 -19 -13 -24 -6 -3 5 1 9 9 9 8 0 15 -2 15 -3z m390
0 c0 -8 -19 -13 -24 -6 -3 5 1 9 9 9 8 0 15 -2 15 -3z m11 -17 c-10 -9 -11 -8
-5 6 3 10 9 15 12 12 3 -3 0 -11 -7 -18z m-775 -13 c1 -9 0 -13 -4 -10 -3 4
-7 14 -8 22 -1 9 0 13 4 10 3 -4 7 -14 8 -22z m900 -10 c1 -9 0 -13 -3 -10 -4
3 -11 1 -18 -4 -8 -7 -12 -5 -12 5 0 7 5 13 11 12 6 -1 10 5 8 13 -2 8 0 11 4
7 4 -4 9 -15 10 -23z m-483 1 c-3 -9 -8 -14 -10 -11 -3 3 -2 9 2 15 9 16 15
13 8 -4z m285 -10 c-3 -3 -9 2 -12 12 -6 14 -5 15 5 6 7 -7 10 -15 7 -18z
m-8214 7 c3 -5 -1 -9 -9 -9 -8 0 -15 4 -15 9 0 4 4 8 9 8 6 0 12 -4 15 -8z
m7850 0 c3 -5 -1 -9 -9 -9 -8 0 -12 4 -9 9 3 4 7 8 9 8 2 0 6 -4 9 -8z m103
-7 c0 -8 -4 -12 -9 -9 -5 3 -6 10 -3 15 9 13 12 11 12 -6z m343 5 c0 -5 -5
-10 -11 -10 -5 0 -7 5 -4 10 3 6 8 10 11 10 2 0 4 -4 4 -10z m34 2 c3 -5 -1
-9 -9 -9 -8 0 -12 4 -9 9 3 4 7 8 9 8 2 0 6 -4 9 -8z m-8317 -52 c-2 -23 -10
-17 -12 10 -1 10 2 17 6 14 4 -2 7 -13 6 -24z m7362 17 c8 -10 7 -14 -2 -14
-8 0 -14 6 -14 14 0 7 1 13 2 13 2 0 8 -6 14 -13z m34 -2 c-3 -9 -8 -14 -10
-11 -3 3 -2 9 2 15 9 16 15 13 8 -4z m702 6 c3 -5 2 -12 -3 -15 -5 -3 -9 1 -9
9 0 17 3 19 12 6z m-8055 -9 c0 -5 -7 -9 -15 -9 -8 0 -12 4 -9 9 3 4 9 8 15 8
5 0 9 -4 9 -8z m7271 -15 c-10 -9 -11 -8 -5 6 3 10 9 15 12 12 3 -3 0 -11 -7
-18z m444 14 c-9 -8 -36 -10 -30 -2 2 4 11 8 20 8 8 0 13 -3 10 -6z m142 -6
c0 -8 -4 -12 -9 -9 -5 3 -6 10 -3 15 9 13 12 11 12 -6z m99 3 c4 -7 4 -10 -1
-6 -4 4 -15 2 -24 -5 -14 -11 -14 -10 -2 6 16 20 18 21 27 5z m318 0 c-3 -4
-11 -5 -19 -1 -21 7 -19 12 4 10 11 0 18 -5 15 -9z m86 6 c0 -8 -19 -13 -24
-6 -3 5 1 9 9 9 8 0 15 -2 15 -3z m40 -4 c0 -5 -2 -10 -4 -10 -3 0 -8 5 -11
10 -3 6 -1 10 4 10 6 0 11 -4 11 -10z m-8477 -30 c-3 -11 -9 -17 -15 -14 -5 3
-4 12 3 20 16 19 18 18 12 -6z m7622 10 c3 -6 -1 -7 -9 -4 -18 7 -21 14 -7 14
6 0 13 -4 16 -10z m35 0 c0 -5 -2 -10 -4 -10 -3 0 -8 5 -11 10 -3 6 -1 10 4
10 6 0 11 -4 11 -10z m511 -7 c13 -16 12 -17 -3 -4 -10 7 -18 15 -18 17 0 8 8
3 21 -13z m-378 -8 c-3 -9 -8 -14 -10 -11 -3 3 -2 9 2 15 9 16 15 13 8 -4z
m483 3 c5 4 5 3 1 -2 -12 -15 -34 -15 -34 0 0 9 4 11 12 4 7 -5 16 -6 21 -2z
m-901 -7 c-9 -8 -36 -10 -30 -2 2 4 11 8 20 8 8 0 13 -3 10 -6z m179 1 c3 -5
-1 -9 -9 -9 -8 0 -12 4 -9 9 3 4 7 8 9 8 2 0 6 -4 9 -8z m61 -1 c3 -5 2 -12
-3 -15 -5 -3 -9 1 -9 9 0 17 3 19 12 6z m321 -3 c3 -4 -1 -5 -10 -4 -8 1 -18
5 -22 8 -3 4 1 5 10 4 8 -1 18 -5 22 -8z m98 0 c-3 -4 -11 -5 -19 -1 -21 7
-19 12 4 10 11 0 18 -5 15 -9z m86 8 c0 -3 -4 -8 -10 -11 -5 -3 -10 -1 -10 4
0 6 5 11 10 11 6 0 10 -2 10 -4z m-8024 -31 c-1 -13 -4 -27 -7 -30 -5 -4 -4
41 0 53 4 10 8 -2 7 -23z m7204 9 c0 -8 -19 -13 -24 -6 -3 5 1 9 9 9 8 0 15
-2 15 -3z m117 -9 c0 -8 -4 -12 -9 -9 -5 3 -6 10 -3 15 9 13 12 11 12 -6z
m327 3 c-3 -4 -9 -8 -15 -8 -5 0 -9 4 -9 8 0 5 7 9 15 9 8 0 12 -4 9 -9z
m-487 -11 c0 -8 -6 -14 -14 -14 -9 0 -10 4 -2 14 6 7 12 13 14 13 1 0 2 -6 2
-13z m863 9 c0 -2 -8 -10 -17 -17 -16 -13 -17 -12 -4 4 13 16 21 21 21 13z
m160 0 c0 -2 -8 -10 -17 -17 -16 -13 -17 -12 -4 4 13 16 21 21 21 13z m237
-11 c0 -8 -4 -15 -9 -15 -10 0 -11 14 -1 23 9 10 10 9 10 -8z m-1323 -3 c3 -5
-1 -9 -9 -9 -8 0 -12 4 -9 9 3 4 7 8 9 8 2 0 6 -4 9 -8z m667 -19 c13 -16 12
-17 -3 -4 -10 7 -18 15 -18 17 0 8 8 3 21 -13z m36 2 c0 -8 -4 -12 -9 -9 -5 3
-6 10 -3 15 9 13 12 11 12 -6z m-237 1 c0 -2 -7 -7 -16 -10 -8 -3 -12 -2 -9 4
6 10 25 14 25 6z m485 -6 c3 -6 -1 -7 -9 -4 -18 7 -21 14 -7 14 6 0 13 -4 16
-10z m159 2 c3 -5 -1 -9 -9 -9 -8 0 -15 4 -15 9 0 4 4 8 9 8 6 0 12 -4 15 -8z
m-8187 -17 c0 -8 -4 -12 -9 -9 -5 3 -6 10 -3 15 9 13 12 11 12 -6z m7660 0 c0
-8 -4 -12 -9 -9 -5 3 -6 10 -3 15 9 13 12 11 12 -6z m647 -3 c3 -5 -1 -9 -9
-9 -8 0 -12 4 -9 9 3 4 7 8 9 8 2 0 6 -4 9 -8z m-1171 -37 c-7 -21 -12 -19
-10 4 0 11 5 18 9 15 4 -3 5 -11 1 -19z m284 10 c0 -8 -4 -12 -9 -9 -5 3 -6
10 -3 15 9 13 12 11 12 -6z m189 -13 c-12 -12 -19 -13 -27 -5 -8 8 -6 11 7 10
11 -1 18 4 16 11 -1 8 2 11 9 7 8 -5 6 -12 -5 -23z m49 10 c-3 -3 -11 0 -18 7
-9 10 -8 11 6 5 10 -3 15 -9 12 -12z m600 0 c-3 -3 -11 0 -18 7 -9 10 -8 11 6
5 10 -3 15 -9 12 -12z m-8201 -21 c-2 -3 -12 3 -22 13 -16 17 -16 18 5 5 12
-7 20 -15 17 -18z m7944 4 c-3 -3 -9 2 -12 12 -6 14 -5 15 5 6 7 -7 10 -15 7
-18z m217 5 c-1 -11 -4 -22 -7 -25 -4 -5 -4 34 1 43 4 8 7 -1 6 -18z m279 11
c3 -4 -3 -16 -13 -25 -17 -15 -19 -15 -32 1 -12 16 -12 17 2 5 13 -10 18 -10
28 1 6 8 8 17 4 20 -3 4 -4 7 0 7 3 0 8 -4 11 -9z m-1388 -13 c3 -4 -1 -5 -10
-4 -8 1 -18 5 -22 8 -3 4 1 5 10 4 8 -1 18 -5 22 -8z m385 -11 c-10 -9 -11 -8
-5 6 3 10 9 15 12 12 3 -3 0 -11 -7 -18z m269 19 c0 -3 -4 -8 -10 -11 -5 -3
-10 -1 -10 4 0 6 5 11 10 11 6 0 10 -2 10 -4z m290 -2 c0 -8 -19 -13 -24 -6
-3 5 1 9 9 9 8 0 15 -2 15 -3z m-8039 -27 c-10 -9 -11 -8 -5 6 3 10 9 15 12
12 3 -3 0 -11 -7 -18z m7804 14 c3 -5 2 -12 -3 -15 -5 -3 -9 1 -9 9 0 17 3 19
12 6z m-790 -11 c3 -6 -1 -7 -9 -4 -18 7 -21 14 -7 14 6 0 13 -4 16 -10z m35
0 c0 -5 -2 -10 -4 -10 -3 0 -8 5 -11 10 -3 6 -1 10 4 10 6 0 11 -4 11 -10z
m480 6 c0 -3 -4 -8 -10 -11 -5 -3 -10 -1 -10 4 0 6 5 11 10 11 6 0 10 -2 10
-4z m213 -21 c-3 -9 -8 -14 -10 -11 -3 3 -2 9 2 15 9 16 15 13 8 -4z m-799 -3
c3 -5 -1 -9 -9 -9 -8 0 -12 4 -9 9 3 4 7 8 9 8 2 0 6 -4 9 -8z m61 -1 c3 -5 2
-12 -3 -15 -5 -3 -9 1 -9 9 0 17 3 19 12 6z m575 -14 c0 -2 -9 -12 -19 -21
-14 -13 -21 -14 -27 -5 -4 7 -3 10 3 6 6 -4 16 0 23 8 12 14 20 19 20 12z m27
-12 c0 -8 -4 -12 -9 -9 -5 3 -6 10 -3 15 9 13 12 11 12 -6z m203 11 c0 -2 -7
-7 -16 -10 -8 -3 -12 -2 -9 4 6 10 25 14 25 6z m-7717 -13 c-7 -2 -19 -2 -25
0 -7 3 -2 5 12 5 14 0 19 -2 13 -5z m7418 -10 c13 -16 12 -17 -3 -4 -10 7 -18
15 -18 17 0 8 8 3 21 -13z m497 -8 c-3 -3 -9 2 -12 12 -6 14 -5 15 5 6 7 -7
10 -15 7 -18z m-917 2 c-6 -8 -8 -16 -5 -19 3 -3 1 -9 -4 -12 -6 -3 -9 0 -8 6
2 16 15 38 23 38 3 0 0 -6 -6 -13z m173 5 c3 -5 -1 -9 -9 -9 -8 0 -12 4 -9 9
3 4 7 8 9 8 2 0 6 -4 9 -8z m40 -8 c3 -8 2 -12 -4 -9 -6 3 -10 10 -10 16 0 14
7 11 14 -7z m866 1 c-5 -7 -9 -14 -7 -16 1 -2 0 -3 -2 -1 -11 7 -7 29 5 29 9
0 11 -4 4 -12z m280 0 c0 -2 -9 -3 -19 -2 -11 0 -18 5 -15 9 4 6 34 0 34 -7z
m-8354 -20 c-2 -7 1 -19 7 -26 7 -7 3 -6 -9 4 -23 19 -28 48 -7 40 8 -3 12
-11 9 -18z m71 10 c0 -8 -4 -12 -9 -9 -5 3 -6 10 -3 15 9 13 12 11 12 -6z
m7964 -2 c13 -16 12 -17 -3 -4 -10 7 -18 15 -18 17 0 8 8 3 21 -13z m-7991 -8
c0 -2 -6 -5 -13 -8 -8 -3 -14 1 -14 8 0 7 6 11 14 8 7 -3 13 -6 13 -8z m6910
11 c0 -2 -7 -7 -16 -10 -8 -3 -12 -2 -9 4 6 10 25 14 25 6z m1245 -6 c-3 -5
-12 -10 -18 -10 -7 0 -6 4 3 10 19 12 23 12 15 0z m-747 -25 c-3 -3 -9 2 -12
12 -6 14 -5 15 5 6 7 -7 10 -15 7 -18z m-358 9 c0 -8 -19 -13 -24 -6 -3 5 1 9
9 9 8 0 15 -2 15 -3z m831 -17 c-10 -9 -11 -8 -5 6 3 10 9 15 12 12 3 -3 0
-11 -7 -18z m89 13 c0 -5 -2 -10 -4 -10 -3 0 -8 5 -11 10 -3 6 -1 10 4 10 6 0
11 -4 11 -10z m110 4 c0 -8 -19 -13 -24 -6 -3 5 1 9 9 9 8 0 15 -2 15 -3z
m121 -17 c-10 -9 -11 -8 -5 6 3 10 9 15 12 12 3 -3 0 -11 -7 -18z m-1534 -4
c-4 -3 -1 -13 6 -22 11 -14 10 -14 -5 -2 -16 12 -16 31 -1 31 4 0 3 -3 0 -7z
m38 -2 c3 -5 2 -12 -3 -15 -5 -3 -9 1 -9 9 0 17 3 19 12 6z m400 -1 c3 -5 1
-10 -4 -10 -6 0 -11 5 -11 10 0 6 2 10 4 10 3 0 8 -4 11 -10z m40 -8 c-3 -3
-11 0 -18 7 -9 10 -8 11 6 5 10 -3 15 -9 12 -12z m1002 3 c0 -8 -4 -12 -9 -9
-5 3 -6 10 -3 15 9 13 12 11 12 -6z m-964 -10 c-3 -9 -8 -14 -10 -11 -3 3 -2
9 2 15 9 16 15 13 8 -4z m317 0 c-7 -9 -15 -13 -18 -10 -3 3 -12 -1 -21 -8
-14 -11 -14 -10 -2 5 7 10 17 16 21 13 5 -3 11 -1 15 5 3 5 9 10 12 10 3 0 0
-7 -7 -15z m-7393 -10 c0 -8 -4 -12 -9 -9 -5 3 -6 10 -3 15 9 13 12 11 12 -6z
m7280 0 c0 -8 -4 -12 -9 -9 -5 3 -6 10 -3 15 9 13 12 11 12 -6z m556 0 c4 -8
3 -16 -1 -19 -4 -3 -9 4 -9 15 -2 23 3 25 10 4z m267 5 c0 -5 -5 -10 -11 -10
-5 0 -7 5 -4 10 3 6 8 10 11 10 2 0 4 -4 4 -10z m-1303 -15 c0 -8 -4 -12 -9
-9 -5 3 -6 10 -3 15 9 13 12 11 12 -6z m1360 0 c0 -8 -4 -12 -9 -9 -5 3 -6 10
-3 15 9 13 12 11 12 -6z m-8152 -25 c3 -6 -1 -7 -9 -4 -18 7 -21 14 -7 14 6 0
13 -4 16 -10z m7169 -6 c3 -8 2 -12 -4 -9 -6 3 -10 10 -10 16 0 14 7 11 14 -7z
m277 -7 c-10 -9 -11 -8 -5 6 3 10 9 15 12 12 3 -3 0 -11 -7 -18z m-7406 -6
c-9 -8 -36 -10 -30 -2 2 4 11 8 20 8 8 0 13 -3 10 -6z m6512 -6 c0 -8 -4 -12
-9 -9 -5 3 -6 10 -3 15 9 13 12 11 12 -6z m958 -3 c-3 -3 -11 0 -18 7 -9 10
-8 11 6 5 10 -3 15 -9 12 -12z m560 9 c3 -5 2 -12 -3 -15 -5 -3 -9 1 -9 9 0
17 3 19 12 6z m-1061 -27 c3 -8 2 -12 -4 -9 -6 3 -10 10 -10 16 0 14 7 11 14
-7z m36 10 c0 -8 -19 -13 -24 -6 -3 5 1 9 9 9 8 0 15 -2 15 -3z m125 -4 c3 -5
1 -10 -4 -10 -6 0 -11 5 -11 10 0 6 2 10 4 10 3 0 8 -4 11 -10z m285 0 c0 -5
-5 -10 -11 -10 -5 0 -7 5 -4 10 3 6 8 10 11 10 2 0 4 -4 4 -10z m140 4 c0 -8
-19 -13 -24 -6 -3 5 1 9 9 9 8 0 15 -2 15 -3z m11 -17 c-10 -9 -11 -8 -5 6 3
10 9 15 12 12 3 -3 0 -11 -7 -18z m184 5 c-3 -3 -11 0 -18 7 -9 10 -8 11 6 5
10 -3 15 -9 12 -12z m339 2 c3 -8 2 -12 -4 -9 -6 3 -10 10 -10 16 0 14 7 11
14 -7z m-8099 -4 c-3 -5 -1 -10 6 -10 7 0 10 -2 7 -5 -3 -3 -13 -2 -22 1 -14
5 -15 9 -4 15 17 11 20 11 13 -1z m6765 -10 c0 -5 -2 -10 -4 -10 -3 0 -8 5
-11 10 -3 6 -1 10 4 10 6 0 11 -4 11 -10z m1040 6 c0 -3 -4 -8 -10 -11 -5 -3
-10 -1 -10 4 0 6 5 11 10 11 6 0 10 -2 10 -4z m-747 -21 c-3 -9 -8 -14 -10
-11 -3 3 -2 9 2 15 9 16 15 13 8 -4z m445 -10 c-3 -3 -9 2 -12 12 -6 14 -5 15
5 6 7 -7 10 -15 7 -18z m-943 6 c-9 -8 -36 -10 -30 -2 2 4 11 8 20 8 8 0 13
-3 10 -6z m136 -14 c-10 -9 -11 -8 -5 6 3 10 9 15 12 12 3 -3 0 -11 -7 -18z
m209 17 c0 -8 -19 -13 -24 -6 -3 5 1 9 9 9 8 0 15 -2 15 -3z m74 -2 c2 -4 -5
-9 -17 -9 -17 -2 -19 0 -7 7 18 12 18 12 24 2z m626 -7 c0 -2 -9 -3 -19 -2
-11 0 -18 5 -15 9 4 6 34 0 34 -7z m70 9 c0 -8 -19 -13 -24 -6 -3 5 1 9 9 9 8
0 15 -2 15 -3z m184 -10 c3 -8 2 -12 -4 -9 -6 3 -10 10 -10 16 0 14 7 11 14
-7z m241 6 c3 -5 1 -10 -4 -10 -6 0 -11 5 -11 10 0 6 2 10 4 10 3 0 8 -4 11
-10z m-1459 -18 c-3 -3 0 -12 6 -21 10 -13 10 -14 -2 -4 -16 15 -23 46 -8 37
5 -3 7 -9 4 -12z m1280 3 c-1 -8 -5 -17 -8 -21 -5 -4 -4 16 1 34 3 9 9 -1 7
-13z m279 5 c3 -5 1 -10 -4 -10 -6 0 -11 5 -11 10 0 6 2 10 4 10 3 0 8 -4 11
-10z m-1750 -10 c-3 -5 -12 -10 -18 -10 -7 0 -6 4 3 10 19 12 23 12 15 0z
m680 1 c-9 -8 -36 -10 -30 -2 2 4 11 8 20 8 8 0 13 -3 10 -6z m32 -6 c0 -8 -4
-12 -9 -9 -5 3 -6 10 -3 15 9 13 12 11 12 -6z m238 6 c3 -5 2 -12 -3 -15 -5
-3 -9 1 -9 9 0 17 3 19 12 6z m51 -3 c3 -4 -1 -5 -10 -4 -8 1 -18 5 -22 8 -3
4 1 5 10 4 8 -1 18 -5 22 -8z m724 -3 c0 -2 -9 -3 -19 -2 -11 0 -18 5 -15 9 4
6 34 0 34 -7z m-1613 -10 c0 -8 -4 -12 -9 -9 -5 3 -6 10 -3 15 9 13 12 11 12
-6z m1438 6 c3 -5 2 -12 -3 -15 -5 -3 -9 1 -9 9 0 17 3 19 12 6z m-1645 -7 c0
-8 -19 -13 -24 -6 -3 5 1 9 9 9 8 0 15 -2 15 -3z m30 -4 c0 -5 -5 -10 -11 -10
-5 0 -7 5 -4 10 3 6 8 10 11 10 2 0 4 -4 4 -10z m335 1 c-9 -8 -36 -10 -30 -2
2 4 11 8 20 8 8 0 13 -3 10 -6z m1141 -3 c3 -4 -1 -5 -10 -4 -8 1 -18 5 -22 8
-3 4 1 5 10 4 8 -1 18 -5 22 -8z m221 -3 c0 -8 -4 -12 -9 -9 -5 3 -6 10 -3 15
9 13 12 11 12 -6z m123 5 c0 -5 -4 -10 -10 -10 -5 0 -10 5 -10 10 0 6 5 10 10
10 6 0 10 -4 10 -10z m-8040 -4 c0 -2 -8 -10 -17 -17 -16 -13 -17 -12 -4 4 13
16 21 21 21 13z m6717 -11 c0 -8 -4 -12 -9 -9 -5 3 -6 10 -3 15 9 13 12 11 12
-6z m798 6 c3 -5 2 -12 -3 -15 -5 -3 -9 1 -9 9 0 17 3 19 12 6z m-830 -11 c3
-6 -1 -7 -9 -4 -18 7 -21 14 -7 14 6 0 13 -4 16 -10z m875 6 c0 -2 -7 -7 -16
-10 -8 -3 -12 -2 -9 4 6 10 25 14 25 6z m-1307 -21 c-3 -9 -8 -14 -10 -11 -3
3 -2 9 2 15 9 16 15 13 8 -4z m163 3 c5 4 5 3 1 -2 -12 -15 -34 -15 -34 0 0 9
4 11 12 4 7 -5 16 -6 21 -2z m364 -8 c0 -5 -5 -10 -11 -10 -5 0 -7 5 -4 10 3
6 8 10 11 10 2 0 4 -4 4 -10z m71 -13 c-10 -9 -11 -8 -5 6 3 10 9 15 12 12 3
-3 0 -11 -7 -18z m89 13 c0 -5 -2 -10 -4 -10 -3 0 -8 5 -11 10 -3 6 -1 10 4
10 6 0 11 -4 11 -10z m274 2 c3 -5 -1 -9 -9 -9 -8 0 -12 4 -9 9 3 4 7 8 9 8 2
0 6 -4 9 -8z m86 4 c0 -3 -4 -8 -10 -11 -5 -3 -10 -1 -10 4 0 6 5 11 10 11 6
0 10 -2 10 -4z m74 -12 c3 -8 2 -12 -4 -9 -6 3 -10 10 -10 16 0 14 7 11 14 -7z
m81 6 c3 -5 1 -10 -4 -10 -6 0 -11 5 -11 10 0 6 2 10 4 10 3 0 8 -4 11 -10z
m365 0 c0 -5 -2 -10 -4 -10 -3 0 -8 5 -11 10 -3 6 -1 10 4 10 6 0 11 -4 11
-10z m100 5 c0 -7 -30 -13 -34 -7 -3 4 4 9 15 9 10 1 19 0 19 -2z m-7883 -18
c0 -8 -6 -14 -14 -14 -9 0 -10 4 -2 14 6 7 12 13 14 13 1 0 2 -6 2 -13z m6684
-4 c13 -16 12 -17 -3 -4 -10 7 -18 15 -18 17 0 8 8 3 21 -13z m799 13 c0 -2
-8 -10 -17 -17 -16 -13 -17 -12 -4 4 13 16 21 21 21 13z m-1324 -30 c1 -7 -4
-13 -12 -13 -9 0 -11 4 -4 12 5 7 8 15 5 18 -3 4 -2 5 2 2 4 -3 8 -11 9 -19z
m35 7 c13 -16 12 -17 -3 -4 -10 7 -18 15 -18 17 0 8 8 3 21 -13z m189 3 c0 -2
-8 -10 -17 -17 -16 -13 -17 -12 -4 4 13 16 21 21 21 13z m93 -11 c-3 -9 -8
-14 -10 -11 -3 3 -2 9 2 15 9 16 15 13 8 -4z m425 -10 c-3 -3 -9 2 -12 12 -6
14 -5 15 5 6 7 -7 10 -15 7 -18z m355 10 c-3 -9 -8 -14 -10 -11 -3 3 -2 9 2
15 9 16 15 13 8 -4z m647 11 c0 -2 -8 -10 -17 -17 -16 -13 -17 -12 -4 4 13 16
21 21 21 13z m-7931 -27 c-15 -9 -32 -2 -24 11 3 5 13 6 21 3 12 -4 13 -8 3
-14z m51 11 c0 -5 -5 -10 -11 -10 -5 0 -7 5 -4 10 3 6 8 10 11 10 2 0 4 -4 4
-10z m6100 4 c0 -8 -19 -13 -24 -6 -3 5 1 9 9 9 8 0 15 -2 15 -3z m640 2 c0
-2 -7 -7 -16 -10 -8 -3 -12 -2 -9 4 6 10 25 14 25 6z m114 -4 c3 -5 -1 -9 -9
-9 -8 0 -12 4 -9 9 3 4 7 8 9 8 2 0 6 -4 9 -8z m410 0 c3 -5 -1 -9 -9 -9 -8 0
-12 4 -9 9 3 4 7 8 9 8 2 0 6 -4 9 -8z m121 -2 c3 -6 -1 -7 -9 -4 -18 7 -21
14 -7 14 6 0 13 -4 16 -10z m514 -14 c9 -11 9 -16 0 -22 -8 -4 -9 -3 -5 4 4 7
2 12 -3 12 -6 0 -11 5 -11 10 0 14 5 13 19 -4z m-1519 0 c0 -3 -4 -8 -10 -11
-5 -3 -10 -1 -10 4 0 6 5 11 10 11 6 0 10 -2 10 -4z m1360 0 c0 -2 -7 -7 -16
-10 -8 -3 -12 -2 -9 4 6 10 25 14 25 6z m-1803 -21 c0 -8 -4 -12 -9 -9 -5 3
-6 10 -3 15 9 13 12 11 12 -6z m73 -1 c0 -8 -19 -13 -24 -6 -3 5 1 9 9 9 8 0
15 -2 15 -3z m424 -10 c3 -8 2 -12 -4 -9 -6 3 -10 10 -10 16 0 14 7 11 14 -7z
m1237 -7 c-10 -9 -11 -8 -5 6 3 10 9 15 12 12 3 -3 0 -11 -7 -18z m73 15 c3
-5 -1 -9 -9 -9 -8 0 -12 4 -9 9 3 4 7 8 9 8 2 0 6 -4 9 -8z m-7648 -28 c1 -9
0 -13 -4 -10 -3 4 -7 14 -8 22 -1 9 0 13 4 10 3 -4 7 -14 8 -22z m5799 6 c3
-5 1 -10 -4 -10 -6 0 -11 5 -11 10 0 6 2 10 4 10 3 0 8 -4 11 -10z m40 -8 c-3
-3 -11 0 -18 7 -9 10 -8 11 6 5 10 -3 15 -9 12 -12z m918 -7 c-7 -21 -12 -19
-10 4 0 11 5 18 9 15 4 -3 5 -11 1 -19z m404 3 c2 -17 0 -19 -7 -8 -5 8 -6 18
-4 22 8 12 10 10 11 -14z m579 10 c4 -7 3 -8 -4 -4 -7 4 -12 2 -12 -5 0 -7 -3
-10 -6 -6 -6 5 3 27 11 27 2 0 7 -5 11 -12z m-1475 -15 c13 -16 12 -17 -3 -4
-17 13 -22 21 -14 21 2 0 10 -8 17 -17z m-6227 -9 c3 -8 2 -12 -4 -9 -6 3 -10
10 -10 16 0 14 7 11 14 -7z m5690 8 c3 -5 -1 -9 -9 -9 -8 0 -12 4 -9 9 3 4 7
8 9 8 2 0 6 -4 9 -8z m36 -2 c0 -5 -2 -10 -4 -10 -3 0 -8 5 -11 10 -3 6 -1 10
4 10 6 0 11 -4 11 -10z m161 -3 c-6 -8 -7 -18 -3 -22 4 -5 1 -5 -6 -1 -10 6
-10 11 -1 22 6 8 14 14 16 14 3 0 0 -6 -6 -13z m99 -1 c-7 -7 -13 -7 -20 0 -6
6 -3 10 10 10 13 0 16 -4 10 -10z m290 8 c0 -8 -19 -13 -24 -6 -3 5 1 9 9 9 8
0 15 -2 15 -3z m304 -2 c3 -5 -1 -9 -9 -9 -8 0 -12 4 -9 9 3 4 7 8 9 8 2 0 6
-4 9 -8z m103 -11 c0 -11 -5 -18 -9 -15 -4 3 -5 11 -1 19 7 21 12 19 10 -4z
m604 6 c-6 -8 -7 -18 -3 -22 4 -5 1 -5 -6 -1 -10 6 -10 11 -1 22 6 8 14 14 16
14 3 0 0 -6 -6 -13z m43 5 c3 -5 -1 -9 -9 -9 -8 0 -12 4 -9 9 3 4 7 8 9 8 2 0
6 -4 9 -8z m-7373 -21 c7 11 9 11 9 1 0 -8 5 -10 13 -6 9 6 9 4 -1 -8 -9 -12
-10 -17 -1 -20 7 -2 5 -9 -7 -18 -16 -13 -17 -13 -11 2 6 18 -15 43 -27 31 -4
-4 -4 1 0 12 5 13 9 15 12 6 4 -11 6 -11 13 0z m84 -9 c-3 -3 -11 0 -18 7 -9
10 -8 11 6 5 10 -3 15 -9 12 -12z m6562 3 c0 -8 -4 -12 -9 -9 -5 3 -6 10 -3
15 9 13 12 11 12 -6z m48 5 c3 -6 -1 -7 -9 -4 -18 7 -21 14 -7 14 6 0 13 -4
16 -10z m235 6 c0 -3 -4 -8 -10 -11 -5 -3 -10 -1 -10 4 0 6 5 11 10 11 6 0 10
-2 10 -4z m40 0 c0 -2 -7 -7 -16 -10 -8 -3 -12 -2 -9 4 6 10 25 14 25 6z m637
-11 c0 -8 -4 -12 -9 -9 -5 3 -6 10 -3 15 9 13 12 11 12 -6z m-1619 -20 c-3 -3
-9 2 -12 12 -6 14 -5 15 5 6 7 -7 10 -15 7 -18z m-134 7 c3 -5 -1 -9 -9 -9 -8
0 -12 4 -9 9 3 4 7 8 9 8 2 0 6 -4 9 -8z m551 -10 c-3 -3 -11 0 -18 7 -9 10
-8 11 6 5 10 -3 15 -9 12 -12z m385 8 c0 -5 -5 -10 -11 -10 -5 0 -7 5 -4 10 3
6 8 10 11 10 2 0 4 -4 4 -10z m177 -5 c0 -8 -4 -12 -9 -9 -5 3 -6 10 -3 15 9
13 12 11 12 -6z m67 7 c3 -5 -1 -9 -9 -9 -8 0 -12 4 -9 9 3 4 7 8 9 8 2 0 6
-4 9 -8z m501 -2 c-3 -5 -12 -10 -18 -10 -7 0 -6 4 3 10 19 12 23 12 15 0z
m135 6 c0 -2 -7 -7 -16 -10 -8 -3 -12 -2 -9 4 6 10 25 14 25 6z m-939 -23 c13
-16 12 -17 -3 -4 -10 7 -18 15 -18 17 0 8 8 3 21 -13z m-6584 -8 c0 -8 -4 -12
-9 -9 -5 3 -6 10 -3 15 9 13 12 11 12 -6z m5658 -3 c-3 -3 -11 0 -18 7 -9 10
-8 11 6 5 10 -3 15 -9 12 -12z m130 8 c3 -6 -1 -7 -9 -4 -18 7 -21 14 -7 14 6
0 13 -4 16 -10z m85 7 c0 -2 -10 -12 -22 -23 l-23 -19 19 23 c18 21 26 27 26
19z m27 -12 c0 -8 -4 -12 -9 -9 -5 3 -6 10 -3 15 9 13 12 11 12 -6z m208 5
c-3 -5 -12 -10 -18 -10 -7 0 -6 4 3 10 19 12 23 12 15 0z m592 -5 c0 -8 -4
-12 -9 -9 -5 3 -6 10 -3 15 9 13 12 11 12 -6z m760 1 c-3 -7 0 -19 6 -25 9 -9
8 -11 -5 -6 -17 7 -21 45 -5 45 5 0 7 -6 4 -14z m-696 -13 c13 -16 12 -17 -3
-4 -10 7 -18 15 -18 17 0 8 8 3 21 -13z m-470 -10 c13 -16 12 -17 -3 -4 -10 7
-18 15 -18 17 0 8 8 3 21 -13z m519 11 c0 -8 -19 -13 -24 -6 -3 5 1 9 9 9 8 0
15 -2 15 -3z m344 -10 c3 -8 2 -12 -4 -9 -6 3 -10 10 -10 16 0 14 7 11 14 -7z
m80 0 c3 -8 2 -12 -4 -9 -6 3 -10 10 -10 16 0 14 7 11 14 -7z m-7217 -26 c2
-18 0 -20 -7 -8 -12 18 -13 30 -2 30 4 0 9 -10 9 -22z m49 10 c3 -4 -1 -5 -10
-4 -8 1 -18 5 -22 8 -3 4 1 5 10 4 8 -1 18 -5 22 -8z m6324 7 c0 -2 -6 -8 -13
-14 -10 -8 -14 -7 -14 2 0 8 6 14 14 14 7 0 13 -1 13 -2z m155 -5 c3 -6 -1 -7
-9 -4 -18 7 -21 14 -7 14 6 0 13 -4 16 -10z m-930 -9 c3 -5 2 -12 -3 -15 -5
-3 -9 1 -9 9 0 17 3 19 12 6z m1105 -12 c0 -5 -4 -9 -8 -9 -5 0 -9 7 -9 15 0
8 4 12 9 9 4 -3 8 -9 8 -15z m78 -4 c-3 -3 -9 2 -12 12 -6 14 -5 15 5 6 7 -7
10 -15 7 -18z m-1244 3 c-3 -4 -11 -5 -19 -1 -21 7 -19 12 4 10 11 0 18 -5 15
-9z m381 3 c-9 -8 -36 -10 -30 -2 2 4 11 8 20 8 8 0 13 -3 10 -6z m369 -2 c-4
-7 0 -9 14 -5 11 4 23 2 27 -4 3 -6 11 -7 17 -4 6 4 8 3 5 -3 -5 -8 -60 -10
-86 -4 -5 1 20 31 26 31 2 0 1 -5 -3 -11z m353 -4 c0 -8 -4 -12 -9 -9 -5 3 -6
10 -3 15 9 13 12 11 12 -6z m118 6 c3 -5 2 -12 -3 -15 -5 -3 -9 1 -9 9 0 17 3
19 12 6z m369 0 c-8 -8 -34 -10 -38 -2 -3 4 6 7 19 7 14 0 22 -2 19 -5z m70
-13 c-5 -8 -1 -9 10 -5 9 4 15 3 11 -2 -3 -6 -14 -9 -25 -8 -13 1 -16 5 -10
13 6 6 6 15 2 19 -4 5 -1 5 6 1 7 -4 9 -12 6 -18z m-7114 -13 c-7 -9 -15 -13
-19 -10 -3 3 1 10 9 15 21 14 24 12 10 -5z m5525 5 c-3 -5 -12 -10 -18 -10 -7
0 -6 4 3 10 19 12 23 12 15 0z m35 0 c0 -5 -5 -10 -11 -10 -5 0 -7 5 -4 10 3
6 8 10 11 10 2 0 4 -4 4 -10z m-5522 -25 c-3 -3 -9 2 -12 12 -6 14 -5 15 5 6
7 -7 10 -15 7 -18z m5562 21 c0 -2 -8 -10 -17 -17 -16 -13 -17 -12 -4 4 13 16
21 21 21 13z m236 -11 c-1 -8 -5 -17 -8 -21 -5 -4 -4 16 1 34 3 9 9 -1 7 -13z
m574 0 c0 -8 -13 -21 -29 -29 -24 -13 -31 -13 -47 -2 -17 13 -15 14 14 11 17
-1 29 1 26 6 -3 5 -10 7 -15 4 -5 -4 -9 -1 -9 4 0 14 17 14 25 1 9 -15 25 -12
25 5 0 8 2 15 5 15 3 0 5 -7 5 -15z m71 -5 c-13 -11 -20 -20 -17 -20 4 0 4 -5
1 -10 -5 -8 -11 -7 -20 0 -8 7 -18 9 -24 6 -5 -3 -7 3 -4 14 5 19 6 19 19 3
12 -17 13 -17 19 -1 4 10 11 16 15 13 5 -3 11 -1 15 5 3 5 9 10 13 10 4 -1 -4
-10 -17 -20z m694 10 c4 -6 -1 -7 -11 -3 -12 4 -15 3 -10 -5 4 -7 2 -12 -3
-12 -12 0 -14 13 -4 23 9 10 21 9 28 -3z m-7214 -23 c-10 -9 -11 -8 -5 6 3 10
9 15 12 12 3 -3 0 -11 -7 -18z m5734 14 c-9 -8 -36 -10 -30 -2 2 4 11 8 20 8
8 0 13 -3 10 -6z m269 1 c3 -5 -1 -9 -9 -9 -8 0 -12 4 -9 9 3 4 7 8 9 8 2 0 6
-4 9 -8z m-208 -28 c1 -9 0 -13 -4 -10 -3 4 -7 14 -8 22 -1 9 0 13 4 10 3 -4
7 -14 8 -22z m1021 11 c0 -8 -4 -12 -9 -9 -5 3 -6 10 -3 15 9 13 12 11 12 -6z
m-6730 -11 c-3 -3 -12 -4 -19 -1 -8 3 -5 6 6 6 11 1 17 -2 13 -5z m5646 -9
c-3 -9 -8 -14 -10 -11 -3 3 -2 9 2 15 9 16 15 13 8 -4z m919 8 c-6 -2 -9 -10
-6 -15 4 -7 2 -8 -5 -4 -13 9 -5 26 12 25 9 0 8 -2 -1 -6z m-6496 -18 c-3 -8
0 -15 6 -15 6 0 9 -3 5 -6 -10 -11 -26 6 -20 21 3 8 7 15 10 15 3 0 3 -7 -1
-15z m5295 -8 c-10 -9 -11 -8 -5 6 3 10 9 15 12 12 3 -3 0 -11 -7 -18z m595 0
c1 -9 -2 -19 -7 -23 -5 -3 -7 -10 -4 -15 3 -5 -1 -6 -8 -3 -8 3 -17 15 -21 27
-5 21 -4 21 9 4 7 -11 16 -14 19 -8 4 5 2 12 -4 16 -14 9 -13 28 2 23 6 -2 12
-12 14 -21z m844 13 c0 -5 -3 -9 -7 -9 -5 1 -10 1 -13 -1 -21 -8 -50 -8 -50
-1 0 6 9 8 20 6 11 -2 20 0 20 6 0 5 7 9 15 9 8 0 15 -4 15 -10z m-1695 -28
c-3 -3 -11 0 -18 7 -9 10 -8 11 6 5 10 -3 15 -9 12 -12z m490 8 c-3 -5 -12
-10 -18 -10 -7 0 -6 4 3 10 19 12 23 12 15 0z m-584 -17 c13 -16 12 -17 -3 -4
-17 13 -22 21 -14 21 2 0 10 -8 17 -17z m-4887 -1 c3 -5 -1 -9 -9 -9 -8 0 -12
4 -9 9 3 4 7 8 9 8 2 0 6 -4 9 -8z m4926 -2 c0 -5 -2 -10 -4 -10 -3 0 -8 5
-11 10 -3 6 -1 10 4 10 6 0 11 -4 11 -10z m320 0 c0 -5 -5 -10 -11 -10 -5 0
-7 5 -4 10 3 6 8 10 11 10 2 0 4 -4 4 -10z m455 -9 c3 -5 2 -12 -3 -15 -5 -3
-9 1 -9 9 0 17 3 19 12 6z m45 -9 c0 -5 -7 -9 -15 -9 -8 0 -12 4 -9 9 3 4 9 8
15 8 5 0 9 -4 9 -8z m-902 -27 c-3 -3 -9 2 -12 12 -6 14 -5 15 5 6 7 -7 10
-15 7 -18z m80 0 c-3 -3 -9 2 -12 12 -6 14 -5 15 5 6 7 -7 10 -15 7 -18z m339
10 c0 -8 -4 -12 -9 -9 -5 3 -6 10 -3 15 9 13 12 11 12 -6z m240 0 c0 -8 -4
-12 -9 -9 -5 3 -6 10 -3 15 9 13 12 11 12 -6z m-497 -5 c0 -5 -5 -10 -11 -10
-5 0 -7 5 -4 10 3 6 8 10 11 10 2 0 4 -4 4 -10z m91 -7 c12 -16 12 -17 -2 -6
-9 7 -20 9 -24 5 -5 -4 -5 -1 -1 6 9 16 11 15 27 -5z m689 3 c0 -8 -4 -17 -8
-20 -4 -2 -8 4 -8 15 0 10 4 19 8 19 4 0 8 -6 8 -14z m30 -1 c-6 -8 -9 -19 -6
-24 7 -11 -12 -26 -21 -17 -6 6 24 56 33 56 4 0 1 -7 -6 -15z m-5750 -5 c8 -5
11 -10 5 -10 -5 0 -17 5 -25 10 -8 5 -10 10 -5 10 6 0 17 -5 25 -10z m5681 -7
c13 -16 12 -17 -3 -4 -10 7 -18 15 -18 17 0 8 8 3 21 -13z m-5636 -3 c3 -6 -1
-7 -9 -4 -18 7 -21 14 -7 14 6 0 13 -4 16 -10z m5110 -21 c1 -11 -1 -22 -5
-24 -3 -2 -6 9 -6 25 0 33 9 32 11 -1z m40 13 c-3 -3 -11 0 -18 7 -9 10 -8 11
6 5 10 -3 15 -9 12 -12z m201 -6 c1 -7 -4 -13 -12 -13 -9 0 -11 4 -4 12 5 7 8
15 5 18 -3 4 -2 5 2 2 4 -3 8 -11 9 -19z m39 6 c-3 -3 -11 0 -18 7 -9 10 -8
11 6 5 10 -3 15 -9 12 -12z m-5359 -17 c1 -9 -4 -11 -14 -7 -10 4 -12 7 -4 10
7 2 9 9 5 15 -3 7 -2 8 2 4 5 -4 10 -14 11 -22z m82 0 c-3 -3 -9 2 -12 12 -6
14 -5 15 5 6 7 -7 10 -15 7 -18z m4502 22 c0 -2 -10 -12 -22 -23 l-23 -19 19
23 c18 21 26 27 26 19z m454 -27 c-6 -6 -10 -3 -10 10 0 13 4 16 10 10 7 -7 7
-13 0 -20z m-357 5 c0 -8 -4 -12 -9 -9 -5 3 -6 10 -3 15 9 13 12 11 12 -6z
m278 5 c3 -5 1 -10 -4 -10 -6 0 -11 5 -11 10 0 6 2 10 4 10 3 0 8 -4 11 -10z
m560 -8 c-3 -3 -11 0 -18 7 -9 10 -8 11 6 5 10 -3 15 -9 12 -12z m-5475 4 c0
-2 -8 -10 -17 -17 -16 -13 -17 -12 -4 4 13 16 21 21 21 13z m75 -5 c3 -5 2
-12 -3 -15 -5 -3 -9 1 -9 9 0 17 3 19 12 6z m4480 0 c3 -5 2 -12 -3 -15 -5 -3
-9 1 -9 9 0 17 3 19 12 6z m1005 5 c0 -2 -8 -10 -17 -17 -16 -13 -17 -12 -4 4
13 16 21 21 21 13z m-5631 -22 c12 8 34 -11 26 -24 -8 -13 -46 15 -44 34 0 6
3 6 6 -2 2 -6 8 -10 12 -8z m5151 12 c0 -2 -7 -7 -16 -10 -8 -3 -12 -2 -9 4 6
10 25 14 25 6z m325 -6 c3 -6 -1 -7 -9 -4 -18 7 -21 14 -7 14 6 0 13 -4 16
-10z m35 0 c0 -5 -2 -10 -4 -10 -3 0 -8 5 -11 10 -3 6 -1 10 4 10 6 0 11 -4
11 -10z m80 6 c0 -3 -4 -8 -10 -11 -5 -3 -10 -1 -10 4 0 6 5 11 10 11 6 0 10
-2 10 -4z m-1147 -21 c-3 -9 -8 -14 -10 -11 -3 3 -2 9 2 15 9 16 15 13 8 -4z
m547 11 c0 -2 -6 -9 -14 -15 -11 -9 -16 -9 -22 0 -4 7 -3 9 4 5 6 -3 13 -2 17
4 6 10 15 14 15 6z m-523 -21 c0 -8 -4 -12 -9 -9 -5 3 -6 10 -3 15 9 13 12 11
12 -6z m414 -8 c-10 -9 -11 -8 -5 6 3 10 9 15 12 12 3 -3 0 -11 -7 -18z m266
8 c0 -8 -4 -12 -9 -9 -5 3 -6 10 -3 15 9 13 12 11 12 -6z m257 7 c3 -5 -1 -9
-9 -9 -8 0 -12 4 -9 9 3 4 7 8 9 8 2 0 6 -4 9 -8z m61 -1 c3 -5 2 -12 -3 -15
-5 -3 -9 1 -9 9 0 17 3 19 12 6z m-1095 -21 c0 -5 -5 -10 -11 -10 -5 0 -7 5
-4 10 3 6 8 10 11 10 2 0 4 -4 4 -10z m140 6 c0 -2 -7 -7 -16 -10 -8 -3 -12
-2 -9 4 6 10 25 14 25 6z m458 -31 c-3 -3 -9 2 -12 12 -6 14 -5 15 5 6 7 -7
10 -15 7 -18z m562 21 c0 -2 -8 -10 -17 -17 -16 -13 -17 -12 -4 4 13 16 21 21
21 13z m38 -21 c-3 -3 -9 2 -12 12 -6 14 -5 15 5 6 7 -7 10 -15 7 -18z m-5358
-11 c0 -2 -9 0 -20 6 -11 6 -20 13 -20 16 0 2 9 0 20 -6 11 -6 20 -13 20 -16z
m4225 16 c3 -6 -1 -7 -9 -4 -18 7 -21 14 -7 14 6 0 13 -4 16 -10z m215 0 c0
-5 -2 -10 -4 -10 -3 0 -8 5 -11 10 -3 6 -1 10 4 10 6 0 11 -4 11 -10z m34 2
c3 -5 -1 -9 -9 -9 -8 0 -12 4 -9 9 3 4 7 8 9 8 2 0 6 -4 9 -8z m40 -8 c3 -8 2
-12 -4 -9 -6 3 -10 10 -10 16 0 14 7 11 14 -7z m102 1 c-1 -8 -5 -17 -8 -21
-5 -4 -4 16 1 34 3 9 9 -1 7 -13z m118 7 c3 -5 -1 -9 -9 -9 -8 0 -12 4 -9 9 3
4 7 8 9 8 2 0 6 -4 9 -8z m186 -2 c0 -5 -2 -10 -4 -10 -3 0 -8 5 -11 10 -3 6
-1 10 4 10 6 0 11 -4 11 -10z m360 4 c0 -8 -19 -13 -24 -6 -3 5 1 9 9 9 8 0
15 -2 15 -3z m-1225 -33 c3 -5 2 -12 -3 -15 -5 -3 -9 1 -9 9 0 17 3 19 12 6z
m383 -16 c-3 -3 -9 2 -12 12 -6 14 -5 15 5 6 7 -7 10 -15 7 -18z m480 0 c-3
-3 -9 2 -12 12 -6 14 -5 15 5 6 7 -7 10 -15 7 -18z m355 10 c-3 -9 -8 -14 -10
-11 -3 3 -2 9 2 15 9 16 15 13 8 -4z m-1208 -25 c-3 -5 -12 -10 -18 -10 -7 0
-6 4 3 10 19 12 23 12 15 0z m32 3 c-4 -3 -2 -11 3 -18 7 -8 5 -12 -4 -12 -8
0 -12 7 -11 16 5 22 4 21 12 21 3 0 3 -3 0 -7z m398 -11 c-3 -3 -11 0 -18 7
-9 10 -8 11 6 5 10 -3 15 -9 12 -12z m-4300 -1 c3 -5 2 -12 -3 -15 -5 -3 -9 1
-9 9 0 17 3 19 12 6z m72 -9 c-10 -10 -15 -21 -12 -24 3 -2 -2 -5 -10 -5 -12
0 -10 6 7 24 25 27 39 32 15 5z m4088 6 c5 4 5 1 1 -6 -6 -10 -11 -10 -22 -1
-8 6 -14 14 -14 16 0 3 6 0 13 -6 8 -6 18 -7 22 -3z m185 9 c0 -2 -10 -12 -22
-23 l-23 -19 19 23 c18 21 26 27 26 19z m275 -6 c3 -5 2 -12 -3 -15 -5 -3 -9
1 -9 9 0 17 3 19 12 6z m-841 -17 c3 -8 2 -12 -4 -9 -6 3 -10 10 -10 16 0 14
7 11 14 -7z m672 4 c3 -4 -1 -5 -10 -4 -8 1 -18 5 -22 8 -3 4 1 5 10 4 8 -1
18 -5 22 -8z m454 -2 c-7 -7 -13 -7 -20 0 -6 6 -3 10 10 10 13 0 16 -4 10 -10z
m33 -1 c4 -8 3 -16 -1 -19 -4 -3 -9 4 -9 15 -2 23 3 25 10 4z m232 6 c-9 -8
-36 -10 -30 -2 2 4 11 8 20 8 8 0 13 -3 10 -6z m-1070 -10 c3 -5 2 -12 -3 -15
-5 -3 -9 1 -9 9 0 17 3 19 12 6z m165 -11 c0 -5 -2 -10 -4 -10 -3 0 -8 5 -11
10 -3 6 -1 10 4 10 6 0 11 -4 11 -10z m565 0 c3 -6 -1 -7 -9 -4 -18 7 -21 14
-7 14 6 0 13 -4 16 -10z m35 0 c0 -5 -2 -10 -4 -10 -3 0 -8 5 -11 10 -3 6 -1
10 4 10 6 0 11 -4 11 -10z m120 6 c0 -2 -7 -7 -16 -10 -8 -3 -12 -2 -9 4 6 10
25 14 25 6z m-4707 -21 c-3 -9 -8 -14 -10 -11 -3 3 -2 9 2 15 9 16 15 13 8 -4z
m3281 -11 c3 -8 2 -12 -4 -9 -6 3 -10 10 -10 16 0 14 7 11 14 -7z m117 -7
c-10 -9 -11 -8 -5 6 3 10 9 15 12 12 3 -3 0 -11 -7 -18z m109 18 c0 -7 -30
-13 -34 -7 -3 4 4 9 15 9 10 1 19 0 19 -2z m64 -3 c3 -5 -1 -9 -9 -9 -8 0 -12
4 -9 9 3 4 7 8 9 8 2 0 6 -4 9 -8z m480 0 c3 -5 -1 -9 -9 -9 -8 0 -12 4 -9 9
3 4 7 8 9 8 2 0 6 -4 9 -8z m270 -8 c3 -8 2 -12 -4 -9 -6 3 -10 10 -10 16 0
14 7 11 14 -7z m160 8 c3 -5 -1 -9 -9 -9 -8 0 -12 4 -9 9 3 4 7 8 9 8 2 0 6
-4 9 -8z m61 -1 c3 -5 2 -12 -3 -15 -5 -3 -9 1 -9 9 0 17 3 19 12 6z m162 -6
c0 -8 -4 -12 -9 -9 -5 3 -6 10 -3 15 9 13 12 11 12 -6z m-722 -4 c3 -5 2 -12
-3 -15 -5 -3 -9 1 -9 9 0 17 3 19 12 6z m-4080 -10 c3 -5 2 -12 -3 -15 -5 -3
-9 1 -9 9 0 17 3 19 12 6z m3810 -1 c-3 -5 -12 -10 -18 -10 -7 0 -6 4 3 10 19
12 23 12 15 0z m-3708 -15 c0 -8 -4 -15 -9 -15 -10 0 -11 14 -1 23 9 10 10 9
10 -8z m156 0 c-3 -9 -8 -14 -10 -11 -3 3 -2 9 2 15 9 16 15 13 8 -4z m3325
-10 c-3 -3 -9 2 -12 12 -6 14 -5 15 5 6 7 -7 10 -15 7 -18z m-3444 -1 c3 -8 2
-12 -4 -9 -6 3 -10 10 -10 16 0 14 7 11 14 -7z m37 -7 c-10 -9 -11 -8 -5 6 3
10 9 15 12 12 3 -3 0 -11 -7 -18z m53 15 c3 -5 -1 -9 -9 -9 -8 0 -12 4 -9 9 3
4 7 8 9 8 2 0 6 -4 9 -8z m2853 -10 c0 -10 -6 -19 -13 -19 -9 0 -9 5 -1 19 7
10 13 18 14 18 1 0 1 -8 0 -18z m177 10 c3 -5 -1 -9 -9 -9 -8 0 -12 4 -9 9 3
4 7 8 9 8 2 0 6 -4 9 -8z m182 -7 c-1 -8 -5 -17 -8 -21 -5 -4 -4 16 1 34 3 9
9 -1 7 -13z m118 7 c3 -5 -1 -9 -9 -9 -8 0 -12 4 -9 9 3 4 7 8 9 8 2 0 6 -4 9
-8z m206 4 c0 -2 -7 -7 -16 -10 -8 -3 -12 -2 -9 4 6 10 25 14 25 6z m654 -4
c3 -5 -1 -9 -9 -9 -8 0 -12 4 -9 9 3 4 7 8 9 8 2 0 6 -4 9 -8z m37 -9 c13 -16
12 -17 -3 -4 -10 7 -18 15 -18 17 0 8 8 3 21 -13z m-416 -2 c3 -5 2 -12 -3
-15 -5 -3 -9 1 -9 9 0 17 3 19 12 6z m-715 -11 c0 -5 -2 -10 -4 -10 -3 0 -8 5
-11 10 -3 6 -1 10 4 10 6 0 11 -4 11 -10z m1360 6 c0 -2 -7 -7 -16 -10 -8 -3
-12 -2 -9 4 6 10 25 14 25 6z m85 -6 c3 -6 -1 -7 -9 -4 -18 7 -21 14 -7 14 6
0 13 -4 16 -10z m-4512 -15 c-3 -9 -8 -14 -10 -11 -3 3 -2 9 2 15 9 16 15 13
8 -4z m80 0 c-3 -9 -8 -14 -10 -11 -3 3 -2 9 2 15 9 16 15 13 8 -4z m3504 0
c0 -8 -4 -12 -9 -9 -5 3 -6 10 -3 15 9 13 12 11 12 -6z m558 6 c3 -5 2 -12 -3
-15 -5 -3 -9 1 -9 9 0 17 3 19 12 6z m565 -6 c0 -1 -6 -8 -14 -15 -12 -9 -15
-8 -13 8 0 12 6 18 14 15 7 -3 13 -6 13 -8z m-4880 -3 c0 -5 -7 -9 -15 -9 -8
0 -12 4 -9 9 3 4 9 8 15 8 5 0 9 -4 9 -8z m50 2 c0 -8 -19 -13 -24 -6 -3 5 1
9 9 9 8 0 15 -2 15 -3z m2754 -2 c3 -5 -1 -9 -9 -9 -8 0 -12 4 -9 9 3 4 7 8 9
8 2 0 6 -4 9 -8z m127 -15 c-10 -9 -11 -8 -5 6 3 10 9 15 12 12 3 -3 0 -11 -7
-18z m240 0 c-10 -9 -11 -8 -5 6 3 10 9 15 12 12 3 -3 0 -11 -7 -18z m659 17
c0 -8 -19 -13 -24 -6 -3 5 1 9 9 9 8 0 15 -2 15 -3z m430 0 c0 -8 -19 -13 -24
-6 -3 5 1 9 9 9 8 0 15 -2 15 -3z m414 -2 c3 -5 -1 -9 -9 -9 -8 0 -12 4 -9 9
3 4 7 8 9 8 2 0 6 -4 9 -8z m60 -8 c3 -8 2 -12 -4 -9 -6 3 -10 10 -10 16 0 14
7 11 14 -7z m99 -4 c10 -12 9 -12 -4 -2 -9 6 -18 9 -21 6 -3 -3 -9 -1 -12 4
-9 15 22 8 37 -8z m-4393 6 c0 -2 -8 -10 -17 -17 -16 -13 -17 -12 -4 4 13 16
21 21 21 13z m-480 -16 c0 -5 -2 -10 -4 -10 -3 0 -8 5 -11 10 -3 6 -1 10 4 10
6 0 11 -4 11 -10z m67 -22 c-4 -12 -1 -18 6 -15 7 3 11 11 9 18 -2 8 0 11 4 6
4 -4 8 -16 9 -26 2 -21 -15 -22 -37 -3 -8 6 -19 8 -23 4 -5 -4 -5 -1 -1 6 4 7
12 10 17 7 5 -4 9 1 9 10 0 10 -5 13 -12 9 -7 -4 -8 -3 -4 5 11 17 28 2 23
-21z m493 28 c0 -2 -7 -7 -16 -10 -8 -3 -12 -2 -9 4 6 10 25 14 25 6z m2235
-14 c-3 -3 -11 0 -18 7 -9 10 -8 11 6 5 10 -3 15 -9 12 -12z m959 9 c3 -5 -2
-15 -12 -22 -15 -12 -16 -12 -5 2 7 9 10 19 6 22 -3 4 -4 7 0 7 3 0 8 -4 11
-9z m41 -9 c-3 -3 -11 0 -18 7 -9 10 -8 11 6 5 10 -3 15 -9 12 -12z m570 8
c-3 -5 -12 -10 -18 -10 -7 0 -6 4 3 10 19 12 23 12 15 0z m35 0 c0 -5 -5 -10
-11 -10 -5 0 -7 5 -4 10 3 6 8 10 11 10 2 0 4 -4 4 -10z m-1100 -4 c0 -2 -8
-10 -17 -17 -16 -13 -17 -12 -4 4 13 16 21 21 21 13z m1137 -11 c0 -8 -4 -12
-9 -9 -5 3 -6 10 -3 15 9 13 12 11 12 -6z m-4237 -5 c0 -5 -2 -10 -4 -10 -3 0
-8 5 -11 10 -3 6 -1 10 4 10 6 0 11 -4 11 -10z m2630 6 c0 -2 -8 -10 -17 -17
-16 -13 -17 -12 -4 4 13 16 21 21 21 13z m119 -10 c9 -11 9 -16 -1 -22 -7 -4
-10 -4 -6 1 4 4 3 14 -3 22 -6 7 -9 13 -6 13 2 0 10 -6 16 -14z m241 10 c0 -2
-8 -10 -17 -17 -16 -13 -17 -12 -4 4 13 16 21 21 21 13z m30 -6 c0 -5 -5 -10
-11 -10 -5 0 -7 5 -4 10 3 6 8 10 11 10 2 0 4 -4 4 -10z m40 4 c0 -8 -19 -13
-24 -6 -3 5 1 9 9 9 8 0 15 -2 15 -3z m160 0 c0 -8 -19 -13 -24 -6 -3 5 1 9 9
9 8 0 15 -2 15 -3z m580 0 c0 -8 -19 -13 -24 -6 -3 5 1 9 9 9 8 0 15 -2 15 -3z
m11 -17 c-10 -9 -11 -8 -5 6 3 10 9 15 12 12 3 -3 0 -11 -7 -18z m175 11 c3
-4 -1 -5 -10 -4 -8 1 -18 5 -22 8 -3 4 1 5 10 4 8 -1 18 -5 22 -8z m80 0 c3
-4 -1 -5 -10 -4 -8 1 -18 5 -22 8 -3 4 1 5 10 4 8 -1 18 -5 22 -8z m308 -4 c3
-8 2 -12 -4 -9 -6 3 -10 10 -10 16 0 14 7 11 14 -7z m-1259 -3 c3 -5 2 -12 -3
-15 -5 -3 -9 1 -9 9 0 17 3 19 12 6z m282 -6 c0 -8 -4 -12 -9 -9 -5 3 -6 10
-3 15 9 13 12 11 12 -6z m360 0 c0 -8 -4 -12 -9 -9 -5 3 -6 10 -3 15 9 13 12
11 12 -6z m-1542 -4 c3 -5 2 -12 -3 -15 -5 -3 -9 1 -9 9 0 17 3 19 12 6z
m1150 -1 c3 -6 -1 -7 -9 -4 -18 7 -21 14 -7 14 6 0 13 -4 16 -10z m360 0 c3
-6 -1 -7 -9 -4 -18 7 -21 14 -7 14 6 0 13 -4 16 -10z m-3245 -4 c0 -2 -6 -9
-14 -15 -11 -9 -16 -9 -22 0 -4 7 -3 9 4 5 6 -3 13 -2 17 4 6 10 15 14 15 6z
m119 -9 c8 -10 7 -14 -2 -14 -8 0 -14 6 -14 14 0 7 1 13 2 13 2 0 8 -6 14 -13z
m1961 9 c0 -2 -6 -9 -14 -15 -11 -9 -16 -9 -22 0 -4 7 -3 9 4 5 6 -3 13 -2 17
4 6 10 15 14 15 6z m493 -11 c-3 -9 -8 -14 -10 -11 -3 3 -2 9 2 15 9 16 15 13
8 -4z m1245 -10 c-3 -3 -9 2 -12 12 -6 14 -5 15 5 6 7 -7 10 -15 7 -18z
m-4207 -2 c13 -16 12 -17 -3 -4 -15 11 -21 11 -35 0 -16 -13 -17 -12 -4 4 7 9
17 17 21 17 4 0 14 -8 21 -17z m83 1 c3 -8 2 -12 -4 -9 -6 3 -10 10 -10 16 0
14 7 11 14 -7z m80 0 c3 -8 2 -12 -4 -9 -6 3 -10 10 -10 16 0 14 7 11 14 -7z
m126 6 c0 -5 -2 -10 -4 -10 -3 0 -8 5 -11 10 -3 6 -1 10 4 10 6 0 11 -4 11
-10z m160 1 c0 -6 -4 -12 -8 -15 -5 -3 -9 1 -9 9 0 8 4 15 9 15 4 0 8 -4 8 -9z
m1431 -14 c-10 -9 -11 -8 -5 6 3 10 9 15 12 12 3 -3 0 -11 -7 -18z m64 5 c-3
-3 -11 0 -18 7 -9 10 -8 11 6 5 10 -3 15 -9 12 -12z m96 -5 c-10 -9 -11 -8 -5
6 3 10 9 15 12 12 3 -3 0 -11 -7 -18z m123 7 c3 -8 2 -12 -4 -9 -6 3 -10 10
-10 16 0 14 7 11 14 -7z m197 -7 c-10 -9 -11 -8 -5 6 3 10 9 15 12 12 3 -3 0
-11 -7 -18z m169 13 c0 -5 -5 -10 -11 -10 -5 0 -7 5 -4 10 3 6 8 10 11 10 2 0
4 -4 4 -10z m674 2 c3 -5 -1 -9 -9 -9 -8 0 -12 4 -9 9 3 4 7 8 9 8 2 0 6 -4 9
-8z m61 -1 c3 -5 2 -12 -3 -15 -5 -3 -9 1 -9 9 0 17 3 19 12 6z m465 -1 c0 -5
-5 -10 -11 -10 -5 0 -7 5 -4 10 3 6 8 10 11 10 2 0 4 -4 4 -10z m695 -8 c-3
-3 -11 0 -18 7 -9 10 -8 11 6 5 10 -3 15 -9 12 -12z m-2638 -7 c0 -8 -4 -12
-9 -9 -5 3 -6 10 -3 15 9 13 12 11 12 -6z m1884 -2 c13 -16 12 -17 -3 -4 -17
13 -22 21 -14 21 2 0 10 -8 17 -17z m-2066 -3 c3 -5 1 -10 -4 -10 -6 0 -11 5
-11 10 0 6 2 10 4 10 3 0 8 -4 11 -10z m955 6 c0 -2 -8 -10 -17 -17 -16 -13
-17 -12 -4 4 13 16 21 21 21 13z m27 -3 c-4 -3 -2 -11 3 -18 7 -8 5 -12 -4
-12 -8 0 -12 7 -11 16 5 22 4 21 12 21 3 0 3 -3 0 -7z m318 -3 c3 -5 1 -10 -4
-10 -6 0 -11 5 -11 10 0 6 2 10 4 10 3 0 8 -4 11 -10z m40 -10 c10 -11 16 -20
13 -20 -3 0 -13 9 -23 20 -10 11 -16 20 -13 20 3 0 13 -9 23 -20z m85 16 c0
-2 -7 -7 -16 -10 -8 -3 -12 -2 -9 4 6 10 25 14 25 6z m515 -14 c-3 -3 -11 0
-18 7 -9 10 -8 11 6 5 10 -3 15 -9 12 -12z m330 8 c-3 -5 -12 -10 -18 -10 -7
0 -6 4 3 10 19 12 23 12 15 0z m395 0 c0 -5 -5 -10 -11 -10 -5 0 -7 5 -4 10 3
6 8 10 11 10 2 0 4 -4 4 -10z m-4200 -32 c0 -5 -4 -8 -10 -8 -5 0 -10 5 -10
11 0 5 -5 7 -10 4 -8 -5 -7 -11 1 -21 6 -8 14 -12 17 -9 3 3 12 -1 20 -8 13
-10 15 -9 9 7 -6 16 -5 17 8 6 12 -10 13 -15 3 -21 -7 -4 -18 -3 -25 3 -7 6
-13 7 -13 3 0 -5 -9 0 -20 10 -11 10 -20 14 -20 9 0 -5 -5 -2 -10 6 -5 8 -10
20 -10 25 0 6 4 4 9 -4 5 -7 14 -10 20 -7 6 4 9 12 5 17 -3 6 3 5 15 -3 12 -7
21 -16 21 -20z m221 15 c13 -16 12 -17 -3 -4 -10 7 -18 15 -18 17 0 8 8 3 21
-13z m1119 13 c0 -2 -6 -9 -14 -15 -11 -9 -16 -9 -22 0 -4 7 -3 9 4 5 6 -3 13
-2 17 4 6 10 15 14 15 6z m95 -5 c3 -5 2 -12 -3 -15 -5 -3 -9 1 -9 9 0 17 3
19 12 6z m943 -16 c-3 -3 -9 2 -12 12 -6 14 -5 15 5 6 7 -7 10 -15 7 -18z
m1862 22 c0 -2 -10 -12 -22 -23 l-23 -19 19 23 c18 21 26 27 26 19z m-3143
-22 c0 -8 -4 -12 -9 -9 -5 3 -6 10 -3 15 9 13 12 11 12 -6z m137 -1 c3 -8 2
-12 -4 -9 -6 3 -10 10 -10 16 0 14 7 11 14 -7z m140 0 c3 -8 2 -12 -4 -9 -6 3
-10 10 -10 16 0 14 7 11 14 -7z m562 4 c4 -7 3 -10 -1 -5 -5 4 -18 -1 -29 -10
-21 -18 -21 -18 -2 5 22 26 23 26 32 10z m159 2 c3 -5 1 -10 -4 -10 -6 0 -11
5 -11 10 0 6 2 10 4 10 3 0 8 -4 11 -10z m259 2 c3 -5 -1 -9 -9 -9 -8 0 -12 4
-9 9 3 4 7 8 9 8 2 0 6 -4 9 -8z m242 -8 c-1 -8 -6 -17 -12 -21 -5 -4 -6 -4
-2 1 4 5 3 14 -2 21 -7 8 -5 12 4 12 8 0 13 -6 12 -13z m624 12 c0 -3 -4 -8
-10 -11 -5 -3 -10 -1 -10 4 0 6 5 11 10 11 6 0 10 -2 10 -4z m1114 -12 c3 -8
2 -12 -4 -9 -6 3 -10 10 -10 16 0 14 7 11 14 -7z m-1694 2 c0 -2 -8 -10 -17
-17 -16 -13 -17 -12 -4 4 13 16 21 21 21 13z m-2516 -14 c2 -4 -4 -8 -14 -8
-10 0 -16 4 -14 8 3 4 9 8 14 8 5 0 11 -4 14 -8z m76 4 c0 -2 -7 -7 -16 -10
-8 -3 -12 -2 -9 4 6 10 25 14 25 6z m160 0 c0 -2 -7 -7 -16 -10 -8 -3 -12 -2
-9 4 6 10 25 14 25 6z m191 -13 c13 -16 12 -17 -3 -4 -17 13 -22 21 -14 21 2
0 10 -8 17 -17z m614 7 c3 -6 -1 -7 -9 -4 -18 7 -21 14 -7 14 6 0 13 -4 16
-10z m715 6 c0 -3 -4 -8 -10 -11 -5 -3 -10 -1 -10 4 0 6 5 11 10 11 6 0 10 -2
10 -4z m2396 -22 c1 -9 0 -13 -4 -10 -3 4 -7 14 -8 22 -1 9 0 13 4 10 3 -4 7
-14 8 -22z m-3301 4 c5 4 5 1 1 -6 -6 -10 -11 -10 -22 -1 -8 6 -14 14 -14 16
0 3 6 0 13 -6 8 -6 18 -7 22 -3z m2238 -3 c-3 -9 -8 -14 -10 -11 -3 3 -2 9 2
15 9 16 15 13 8 -4z m162 3 c5 4 5 1 1 -6 -6 -10 -11 -10 -22 -1 -8 6 -14 14
-14 16 0 3 6 0 13 -6 8 -6 18 -7 22 -3z m-3164 -15 c13 -16 12 -17 -3 -4 -10
7 -18 15 -18 17 0 8 8 3 21 -13z m289 13 c0 -3 -4 -8 -10 -11 -5 -3 -10 -1
-10 4 0 6 5 11 10 11 6 0 10 -2 10 -4z m314 -4 c2 -4 -5 -9 -17 -9 -17 -2 -19
0 -7 7 18 12 18 12 24 2z m81 -2 c3 -5 1 -10 -4 -10 -6 0 -11 5 -11 10 0 6 2
10 4 10 3 0 8 -4 11 -10z m401 -2 c4 -7 4 -10 -1 -6 -4 4 -15 2 -24 -5 -14
-11 -14 -10 -2 6 16 20 18 21 27 5z m79 2 c3 -5 1 -10 -4 -10 -6 0 -11 5 -11
10 0 6 2 10 4 10 3 0 8 -4 11 -10z m1279 -6 c3 -8 2 -12 -4 -9 -6 3 -10 10
-10 16 0 14 7 11 14 -7z m162 4 c3 -4 -1 -5 -10 -4 -8 1 -18 5 -22 8 -3 4 1 5
10 4 8 -1 18 -5 22 -8z m708 4 c3 -5 -1 -9 -9 -9 -8 0 -12 4 -9 9 3 4 7 8 9 8
2 0 6 -4 9 -8z m170 0 c3 -5 -1 -9 -9 -9 -8 0 -12 4 -9 9 3 4 7 8 9 8 2 0 6
-4 9 -8z m81 -2 c3 -5 1 -10 -4 -10 -6 0 -11 5 -11 10 0 6 2 10 4 10 3 0 8 -4
11 -10z m79 -6 c3 -8 2 -12 -4 -9 -6 3 -10 10 -10 16 0 14 7 11 14 -7z m381 8
c-3 -3 1 -12 7 -21 10 -12 7 -12 -8 2 -11 9 -24 14 -29 10 -4 -5 -5 -3 -2 3 3
6 13 11 22 11 8 0 13 -3 10 -5z m-2798 -15 c0 -8 -6 -14 -14 -14 -9 0 -10 4
-2 14 6 7 12 13 14 13 1 0 2 -6 2 -13z m1279 -2 c-1 -8 -5 -17 -8 -21 -5 -4
-4 16 1 34 3 9 9 -1 7 -13z m-2432 -7 c-3 -4 -9 -8 -15 -8 -5 0 -9 4 -9 8 0 5
7 9 15 9 8 0 12 -4 9 -9z m272 -14 c1 -9 0 -13 -4 -10 -3 4 -7 14 -8 22 -1 9
0 13 4 10 3 -4 7 -14 8 -22z m39 8 c-3 -3 -11 0 -18 7 -9 10 -8 11 6 5 10 -3
15 -9 12 -12z m440 8 c3 -5 1 -10 -4 -10 -6 0 -11 5 -11 10 0 6 2 10 4 10 3 0
8 -4 11 -10z m40 -8 c-3 -3 -11 0 -18 7 -9 10 -8 11 6 5 10 -3 15 -9 12 -12z
m880 0 c-3 -3 -11 0 -18 7 -9 10 -8 11 6 5 10 -3 15 -9 12 -12z m135 12 c0 -8
-19 -13 -24 -6 -3 5 1 9 9 9 8 0 15 -2 15 -3z m27 -9 c0 -8 -4 -12 -9 -9 -5 3
-6 10 -3 15 9 13 12 11 12 -6z m238 6 c3 -5 2 -12 -3 -15 -5 -3 -9 1 -9 9 0
17 3 19 12 6z m1080 -1 c3 -5 1 -10 -4 -10 -6 0 -11 5 -11 10 0 6 2 10 4 10 3
0 8 -4 11 -10z m40 -8 c-3 -3 -11 0 -18 7 -9 10 -8 11 6 5 10 -3 15 -9 12 -12z
m820 8 c-3 -5 -14 -10 -23 -9 -14 0 -13 2 3 9 27 11 27 11 20 0z m-3980 -9 c3
-5 2 -12 -3 -15 -5 -3 -9 1 -9 9 0 17 3 19 12 6z m178 -6 c-3 -9 -8 -14 -10
-11 -3 3 -2 9 2 15 9 16 15 13 8 -4z m1420 0 c-3 -9 -8 -14 -10 -11 -3 3 -2 9
2 15 9 16 15 13 8 -4z m883 -11 c1 -9 0 -13 -4 -10 -3 4 -7 14 -8 22 -1 9 0
13 4 10 3 -4 7 -14 8 -22z m521 11 c0 -8 -4 -12 -9 -9 -5 3 -6 10 -3 15 9 13
12 11 12 -6z m56 0 c-3 -9 -8 -14 -10 -11 -3 3 -2 9 2 15 9 16 15 13 8 -4z
m-3180 -16 c-8 -8 -13 -7 -18 2 -5 8 -4 10 3 5 7 -4 12 -2 12 5 0 7 3 9 7 6 4
-4 2 -12 -4 -18z m44 -1 c-3 -8 -6 -5 -6 6 -1 11 2 17 5 13 3 -3 4 -12 1 -19z
m287 14 c3 -5 -1 -9 -9 -9 -8 0 -12 4 -9 9 3 4 7 8 9 8 2 0 6 -4 9 -8z m171
-1 c-9 -8 -36 -10 -30 -2 2 4 11 8 20 8 8 0 13 -3 10 -6z m662 -6 c0 -8 -4
-12 -9 -9 -5 3 -6 10 -3 15 9 13 12 11 12 -6z m1197 -1 c3 -8 2 -12 -4 -9 -6
3 -10 10 -10 16 0 14 7 11 14 -7z m402 4 c3 -4 -1 -5 -10 -4 -8 1 -18 5 -22 8
-3 4 1 5 10 4 8 -1 18 -5 22 -8z m448 4 c3 -5 -1 -9 -9 -9 -8 0 -12 4 -9 9 3
4 7 8 9 8 2 0 6 -4 9 -8z m157 -5 c-6 -8 -7 -18 -3 -22 4 -5 1 -5 -6 -1 -10 6
-10 11 -1 22 6 8 14 14 16 14 3 0 0 -6 -6 -13z m284 3 c-3 -5 -12 -10 -18 -10
-7 0 -6 4 3 10 19 12 23 12 15 0z m65 6 c0 -2 -8 -10 -17 -17 -16 -13 -17 -12
-4 4 13 16 21 21 21 13z m187 -13 c0 -9 -4 -10 -14 -2 -7 6 -13 12 -13 14 0 1
6 2 13 2 8 0 14 -6 14 -14z m133 11 c0 -8 -19 -13 -24 -6 -3 5 1 9 9 9 8 0 15
-2 15 -3z m-3635 -13 c3 -5 2 -12 -3 -15 -5 -3 -9 1 -9 9 0 17 3 19 12 6z
m160 0 c3 -5 2 -12 -3 -15 -5 -3 -9 1 -9 9 0 17 3 19 12 6z m722 -6 c0 -8 -4
-12 -9 -9 -5 3 -6 10 -3 15 9 13 12 11 12 -6z m238 6 c3 -5 2 -12 -3 -15 -5
-3 -9 1 -9 9 0 17 3 19 12 6z m361 -17 c1 -9 0 -13 -4 -10 -3 4 -7 14 -8 22
-1 9 0 13 4 10 3 -4 7 -14 8 -22z m800 11 c-1 -8 -5 -17 -8 -21 -5 -4 -4 16 1
34 3 9 9 -1 7 -13z m-2604 -4 c8 11 9 10 4 -3 -3 -10 -1 -20 4 -23 6 -4 10 2
11 12 0 14 3 12 11 -7 l11 -25 6 25 c7 25 7 25 13 2 4 -14 11 -20 21 -16 8 3
18 1 21 -4 3 -6 -9 -9 -32 -7 -20 2 -37 4 -37 5 0 1 -9 3 -19 5 -20 4 -36 23
-35 40 0 6 3 4 6 -4 5 -11 7 -11 15 0z m128 1 c0 -5 -7 -9 -15 -9 -8 0 -12 4
-9 9 3 4 9 8 15 8 5 0 9 -4 9 -8z m400 4 c0 -2 -7 -7 -16 -10 -8 -3 -12 -2 -9
4 6 10 25 14 25 6z m645 -6 c3 -6 -1 -7 -9 -4 -18 7 -21 14 -7 14 6 0 13 -4
16 -10z m1155 6 c0 -2 -7 -7 -16 -10 -8 -3 -12 -2 -9 4 6 10 25 14 25 6z m480
0 c0 -3 -4 -8 -10 -11 -5 -3 -10 -1 -10 4 0 6 5 11 10 11 6 0 10 -2 10 -4z
m40 0 c0 -2 -7 -7 -16 -10 -8 -3 -12 -2 -9 4 6 10 25 14 25 6z m1080 -2 c0 -8
-19 -13 -24 -6 -3 5 1 9 9 9 8 0 15 -2 15 -3z m-1262 -29 c-3 -3 -9 2 -12 12
-6 14 -5 15 5 6 7 -7 10 -15 7 -18z m819 11 c0 -15 -21 -16 -34 -1 -4 4 -3 5
4 1 6 -3 14 -2 18 4 8 14 12 13 12 -4z m463 10 c0 -2 -8 -10 -17 -17 -16 -13
-17 -12 -4 4 13 16 21 21 21 13z m-3740 -16 c0 -5 -2 -10 -4 -10 -3 0 -8 5
-11 10 -3 6 -1 10 4 10 6 0 11 -4 11 -10z m476 -5 c-1 -8 -5 -17 -8 -21 -5 -4
-4 16 1 34 3 9 9 -1 7 -13z m1564 9 c0 -8 -19 -13 -24 -6 -3 5 1 9 9 9 8 0 15
-2 15 -3z m125 -4 c3 -6 -1 -7 -9 -4 -18 7 -21 14 -7 14 6 0 13 -4 16 -10z
m472 -5 c0 -8 -4 -12 -9 -9 -5 3 -6 10 -3 15 9 13 12 11 12 -6z m67 7 c3 -5
-1 -9 -9 -9 -8 0 -12 4 -9 9 3 4 7 8 9 8 2 0 6 -4 9 -8z m147 -15 c-10 -9 -11
-8 -5 6 3 10 9 15 12 12 3 -3 0 -11 -7 -18z m569 13 c0 -5 -5 -10 -11 -10 -5
0 -7 5 -4 10 3 6 8 10 11 10 2 0 4 -4 4 -10z m-1184 -15 c-1 -8 -5 -17 -8 -21
-5 -4 -4 16 1 34 3 9 9 -1 7 -13z m-2251 -13 c-3 -3 -11 0 -18 7 -9 10 -8 11
6 5 10 -3 15 -9 12 -12z m1500 8 c-3 -5 -12 -10 -18 -10 -7 0 -6 4 3 10 19 12
23 12 15 0z m560 0 c-3 -5 -12 -10 -18 -10 -7 0 -6 4 3 10 19 12 23 12 15 0z
m475 0 c0 -5 -5 -10 -11 -10 -5 0 -7 5 -4 10 3 6 8 10 11 10 2 0 4 -4 4 -10z
m680 0 c0 -5 -2 -10 -4 -10 -3 0 -8 5 -11 10 -3 6 -1 10 4 10 6 0 11 -4 11
-10z m277 3 c-4 -3 -2 -11 3 -18 7 -8 5 -12 -4 -12 -8 0 -12 7 -11 16 5 22 4
21 12 21 3 0 3 -3 0 -7z m-216 -20 c13 -16 12 -17 -3 -4 -17 13 -22 21 -14 21
2 0 10 -8 17 -17z m-3301 -3 c0 -5 -4 -10 -10 -10 -5 0 -10 5 -10 10 0 6 5 10
10 10 6 0 10 -4 10 -10z m48 -10 c-13 -20 -32 -23 -26 -5 2 6 6 9 11 8 4 -2 7
2 7 7 0 6 5 10 10 10 6 0 5 -8 -2 -20z m189 0 c-2 -11 -6 -22 -9 -26 -4 -3 -5
2 -3 13 2 10 4 21 4 26 1 4 3 7 6 7 3 0 4 -9 2 -20z m103 11 c0 -6 -4 -12 -8
-15 -5 -3 -9 1 -9 9 0 8 4 15 9 15 4 0 8 -4 8 -9z m495 -11 c10 -11 16 -20 13
-20 -3 0 -13 9 -23 20 -10 11 -16 20 -13 20 3 0 13 -9 23 -20z m185 16 c0 -3
-4 -8 -10 -11 -5 -3 -10 -1 -10 4 0 6 5 11 10 11 6 0 10 -2 10 -4z m280 -6 c0
-5 -2 -10 -4 -10 -3 0 -8 5 -11 10 -3 6 -1 10 4 10 6 0 11 -4 11 -10z m140 -5
c-5 -7 -9 -14 -7 -16 1 -2 0 -3 -2 -1 -11 7 -7 29 5 29 9 0 11 -4 4 -12z m611
-2 c13 -16 12 -17 -3 -4 -17 13 -22 21 -14 21 2 0 10 -8 17 -17z m819 13 c0
-2 -8 -10 -17 -17 -16 -13 -17 -12 -4 4 13 16 21 21 21 13z m41 -13 c12 -16
12 -17 -2 -6 -9 7 -20 9 -24 5 -5 -4 -5 -1 -1 6 9 16 11 15 27 -5z m183 1 c3
-8 2 -12 -4 -9 -6 3 -10 10 -10 16 0 14 7 11 14 -7z m36 10 c0 -8 -19 -13 -24
-6 -3 5 1 9 9 9 8 0 15 -2 15 -3z m435 -4 c3 -6 -1 -7 -9 -4 -18 7 -21 14 -7
14 6 0 13 -4 16 -10z m35 -15 c14 -19 14 -19 -2 -6 -10 7 -18 18 -18 24 0 6 1
8 3 6 1 -2 9 -13 17 -24z m95 15 c-3 -5 1 -10 10 -10 9 0 13 5 10 10 -3 6 -2
10 3 10 6 0 13 -8 16 -17 4 -10 4 -14 0 -10 -4 4 -17 1 -28 -7 -19 -12 -21
-11 -22 10 -1 13 2 24 8 24 5 0 6 -4 3 -10z m-3220 -9 c3 -5 2 -12 -3 -15 -5
-3 -9 1 -9 9 0 17 3 19 12 6z m402 -6 c0 -8 -4 -12 -9 -9 -5 3 -6 10 -3 15 9
13 12 11 12 -6z m524 -2 c13 -16 12 -17 -3 -4 -17 13 -22 21 -14 21 2 0 10 -8
17 -17z m916 2 c0 -8 -4 -12 -9 -9 -5 3 -6 10 -3 15 9 13 12 11 12 -6z m918 6
c3 -5 2 -12 -3 -15 -5 -3 -9 1 -9 9 0 17 3 19 12 6z m-3079 -16 c-3 -23 -12
-26 -13 -5 -1 11 2 20 7 20 4 0 7 -7 6 -15z m614 11 c0 -2 -8 -10 -17 -17 -16
-13 -17 -12 -4 4 13 16 21 21 21 13z m1875 -6 c3 -6 -1 -7 -9 -4 -18 7 -21 14
-7 14 6 0 13 -4 16 -10z m635 6 c0 -2 -7 -7 -16 -10 -8 -3 -12 -2 -9 4 6 10
25 14 25 6z m-2980 -10 c0 -2 -8 -10 -17 -17 -16 -13 -17 -12 -4 4 13 16 21
21 21 13z m495 -5 c3 -5 2 -12 -3 -15 -5 -3 -9 1 -9 9 0 17 3 19 12 6z m218
-6 c-3 -9 -8 -14 -10 -11 -3 3 -2 9 2 15 9 16 15 13 8 -4z m285 -10 c-3 -3 -9
2 -12 12 -6 14 -5 15 5 6 7 -7 10 -15 7 -18z m259 10 c0 -8 -4 -12 -9 -9 -5 3
-6 10 -3 15 9 13 12 11 12 -6z m958 6 c3 -5 2 -12 -3 -15 -5 -3 -9 1 -9 9 0
17 3 19 12 6z m658 -6 c-3 -9 -8 -14 -10 -11 -3 3 -2 9 2 15 9 16 15 13 8 -4z
m-2362 -18 c-10 -9 -11 -8 -5 6 3 10 9 15 12 12 3 -3 0 -11 -7 -18z m569 14
c0 -6 -4 -12 -8 -15 -5 -3 -9 1 -9 9 0 8 4 15 9 15 4 0 8 -4 8 -9z m256 -3 c3
-4 -1 -5 -10 -4 -8 1 -18 5 -22 8 -3 4 1 5 10 4 8 -1 18 -5 22 -8z m264 6 c0
-8 -19 -13 -24 -6 -3 5 1 9 9 9 8 0 15 -2 15 -3z m152 -5 c2 -2 1 -3 -1 -2 -2
2 -9 -2 -16 -7 -8 -7 -12 -5 -12 4 0 12 22 16 29 5z m1043 1 c3 -5 1 -10 -4
-10 -6 0 -11 5 -11 10 0 6 2 10 4 10 3 0 8 -4 11 -10z m409 1 c-8 -8 -34 -10
-38 -2 -3 4 6 7 19 7 14 0 22 -2 19 -5z m-3304 -12 c0 -11 -29 -19 -34 -10 -3
5 -3 10 -1 13 8 7 35 5 35 -3z m80 -17 c8 -2 21 -7 28 -11 12 -7 11 -9 -2 -14
-10 -4 -19 -1 -23 9 -4 10 -8 12 -13 5 -4 -7 -11 -1 -18 16 -10 23 -10 25 0
13 7 -8 20 -16 28 -18z m35 18 c-3 -5 -1 -10 6 -10 7 0 10 -3 6 -6 -9 -9 -28
6 -22 17 4 5 8 9 11 9 3 0 2 -4 -1 -10z m362 -5 c0 -8 -4 -12 -9 -9 -5 3 -6
10 -3 15 9 13 12 11 12 -6z m-300 -15 c-1 -11 -5 -20 -9 -20 -10 0 -10 4 -2
24 8 22 13 20 11 -4z m348 10 c-3 -5 -12 -10 -18 -10 -7 0 -6 4 3 10 19 12 23
12 15 0z m32 3 c-4 -3 -2 -11 3 -18 7 -8 5 -12 -4 -12 -8 0 -12 7 -11 16 5 22
4 21 12 21 3 0 3 -3 0 -7z m758 -3 c3 -5 1 -10 -4 -10 -6 0 -11 5 -11 10 0 6
2 10 4 10 3 0 8 -4 11 -10z m40 -8 c-3 -3 -11 0 -18 7 -9 10 -8 11 6 5 10 -3
15 -9 12 -12z m970 8 c-3 -5 -12 -10 -18 -10 -7 0 -6 4 3 10 19 12 23 12 15 0z
m32 -5 c0 -8 -4 -12 -9 -9 -5 3 -6 10 -3 15 9 13 12 11 12 -6z m318 5 c3 -5 1
-10 -4 -10 -6 0 -11 5 -11 10 0 6 2 10 4 10 3 0 8 -4 11 -10z m40 -8 c-3 -3
-11 0 -18 7 -9 10 -8 11 6 5 10 -3 15 -9 12 -12z m-1795 4 c0 -2 -6 -9 -14
-15 -11 -9 -16 -9 -22 0 -4 7 -3 9 4 5 6 -3 13 -2 17 4 6 10 15 14 15 6z m75
-5 c3 -5 2 -12 -3 -15 -5 -3 -9 1 -9 9 0 17 3 19 12 6z m1419 -21 c-6 -6 -10
-3 -10 10 0 13 4 16 10 10 7 -7 7 -13 0 -20z m460 0 c-6 -6 -10 -3 -10 10 0
13 4 16 10 10 7 -7 7 -13 0 -20z m226 26 c0 -2 -8 -10 -17 -17 -16 -13 -17
-12 -4 4 13 16 21 21 21 13z m-2883 -28 c-3 -8 -6 -5 -6 6 -1 11 2 17 5 13 3
-3 4 -12 1 -19z m443 14 c0 -5 -7 -9 -15 -9 -8 0 -12 4 -9 9 3 4 9 8 15 8 5 0
9 -4 9 -8z m34 -8 c3 -8 2 -12 -4 -9 -6 3 -10 10 -10 16 0 14 7 11 14 -7z
m890 8 c3 -5 -1 -9 -9 -9 -8 0 -12 4 -9 9 3 4 7 8 9 8 2 0 6 -4 9 -8z m247
-15 c-10 -9 -11 -8 -5 6 3 10 9 15 12 12 3 -3 0 -11 -7 -18z m1159 17 c0 -8
-19 -13 -24 -6 -3 5 1 9 9 9 8 0 15 -2 15 -3z m70 0 c0 -8 -19 -13 -24 -6 -3
5 1 9 9 9 8 0 15 -2 15 -3z m171 -27 c-10 -9 -11 -8 -5 6 3 10 9 15 12 12 3
-3 0 -11 -7 -18z m-3028 -1 c4 -10 1 -13 -8 -9 -8 3 -12 9 -9 14 7 12 11 11
17 -5z m55 -6 c-7 -11 -14 -16 -16 -10 -2 6 -9 7 -14 4 -7 -4 -8 -2 -4 5 4 6
11 9 16 6 5 -3 11 -1 15 5 3 5 8 10 11 10 2 0 -1 -9 -8 -20z m53 2 c-7 -2 -18
1 -23 6 -8 8 -4 9 13 5 13 -4 18 -8 10 -11z m129 10 c0 -5 -7 -9 -15 -9 -8 0
-12 4 -9 9 3 4 9 8 15 8 5 0 9 -4 9 -8z m720 4 c0 -2 -7 -7 -16 -10 -8 -3 -12
-2 -9 4 6 10 25 14 25 6z m560 0 c0 -3 -4 -8 -10 -11 -5 -3 -10 -1 -10 4 0 6
5 11 10 11 6 0 10 -2 10 -4z m40 0 c0 -2 -7 -7 -16 -10 -8 -3 -12 -2 -9 4 6
10 25 14 25 6z m360 -6 c0 -5 -2 -10 -4 -10 -3 0 -8 5 -11 10 -3 6 -1 10 4 10
6 0 11 -4 11 -10z m1044 2 c2 -4 -4 -8 -14 -8 -10 0 -16 4 -14 8 3 4 9 8 14 8
5 0 11 -4 14 -8z m-111 -17 c-3 -9 -8 -14 -10 -11 -3 3 -2 9 2 15 9 16 15 13
8 -4z m-2509 -4 c-8 -8 -64 -9 -60 -2 2 3 18 6 35 6 16 1 28 -2 25 -4z m436 5
c0 -3 -4 -8 -10 -11 -5 -3 -10 -1 -10 4 0 6 5 11 10 11 6 0 10 -2 10 -4z m74
-12 c3 -8 2 -12 -4 -9 -6 3 -10 10 -10 16 0 14 7 11 14 -7z m156 10 c0 -8 -19
-13 -24 -6 -3 5 1 9 9 9 8 0 15 -2 15 -3z m724 -10 c3 -8 2 -12 -4 -9 -6 3
-10 10 -10 16 0 14 7 11 14 -7z m1140 -6 c-5 -8 -1 -9 12 -4 14 5 16 4 7 -5
-13 -13 -37 -3 -28 12 4 5 8 9 11 9 3 0 2 -5 -2 -12z m-719 -16 c-3 -3 -11 0
-18 7 -9 10 -8 11 6 5 10 -3 15 -9 12 -12z m90 8 c-3 -5 -12 -10 -18 -10 -7 0
-6 4 3 10 19 12 23 12 15 0z m230 -20 c1 -10 -2 -17 -6 -14 -4 2 -7 13 -6 24
2 23 10 17 12 -10z m-1698 5 c0 -8 -4 -15 -9 -15 -10 0 -11 14 -1 23 9 10 10
9 10 -8z m724 -2 c13 -16 12 -17 -3 -4 -17 13 -22 21 -14 21 2 0 10 -8 17 -17z
m439 13 c0 -2 -8 -10 -17 -17 -16 -13 -17 -12 -4 4 13 16 21 21 21 13z m-1500
-12 c0 -8 -19 -13 -24 -6 -3 5 1 9 9 9 8 0 15 -2 15 -3z m93 -9 c4 -8 3 -16
-1 -19 -4 -3 -9 4 -9 15 -2 23 3 25 10 4z m278 -2 c13 -16 12 -17 -3 -4 -17
13 -22 21 -14 21 2 0 10 -8 17 -17z m739 11 c0 -8 -19 -13 -24 -6 -3 5 1 9 9
9 8 0 15 -2 15 -3z m186 -6 c4 -7 3 -10 -1 -5 -5 4 -18 -1 -29 -10 -21 -18
-21 -18 -2 5 22 26 23 26 32 10z m35 -5 c13 -16 12 -17 -3 -4 -17 13 -22 21
-14 21 2 0 10 -8 17 -17z m123 5 c-3 -4 -11 -5 -19 -1 -21 7 -19 12 4 10 11 0
18 -5 15 -9z m946 2 c0 -5 -5 -10 -11 -10 -5 0 -7 5 -4 10 3 6 8 10 11 10 2 0
4 -4 4 -10z m-1165 -9 c3 -5 2 -12 -3 -15 -5 -3 -9 1 -9 9 0 17 3 19 12 6z
m1045 5 c0 -2 -8 -10 -17 -17 -16 -13 -17 -12 -4 4 13 16 21 21 21 13z m-2259
-33 c-12 -20 -14 -14 -5 12 4 9 9 14 11 11 3 -2 0 -13 -6 -23z m869 23 c0 -2
-8 -10 -17 -17 -16 -13 -17 -12 -4 4 13 16 21 21 21 13z m781 -13 c13 -16 12
-17 -3 -4 -10 7 -18 15 -18 17 0 8 8 3 21 -13z m-1611 3 c0 -2 -7 -9 -15 -16
-13 -11 -14 -10 -9 4 5 14 24 23 24 12z m474 -26 c-6 -6 -10 -3 -10 10 0 13 4
16 10 10 7 -7 7 -13 0 -20z m59 15 c-3 -9 -8 -14 -10 -11 -3 3 -2 9 2 15 9 16
15 13 8 -4z m322 6 c3 -5 2 -12 -3 -15 -5 -3 -9 1 -9 9 0 17 3 19 12 6z m183
-16 c-3 -3 -9 2 -12 12 -6 14 -5 15 5 6 7 -7 10 -15 7 -18z m355 10 c-3 -9 -8
-14 -10 -11 -3 3 -2 9 2 15 9 16 15 13 8 -4z m-1478 -13 c-3 -3 -11 0 -18 7
-9 10 -8 11 6 5 10 -3 15 -9 12 -12z m205 14 c0 -2 -7 -7 -16 -10 -8 -3 -12
-2 -9 4 6 10 25 14 25 6z m45 -5 c3 -5 2 -12 -3 -15 -5 -3 -9 1 -9 9 0 17 3
19 12 6z m152 -5 c4 -4 1 -6 -7 -4 -9 2 -14 -3 -12 -12 2 -8 0 -11 -4 -7 -4 4
-9 14 -10 21 -2 14 20 16 33 2z m53 8 c0 -8 -19 -13 -24 -6 -3 5 1 9 9 9 8 0
15 -2 15 -3z m501 -17 c-10 -9 -11 -8 -5 6 3 10 9 15 12 12 3 -3 0 -11 -7 -18z
m683 7 c3 -8 2 -12 -4 -9 -6 3 -10 10 -10 16 0 14 7 11 14 -7z m426 12 c0 -2
-7 -7 -16 -10 -8 -3 -12 -2 -9 4 6 10 25 14 25 6z m180 -7 c0 -8 -49 -9 -54 0
-2 3 9 6 25 6 16 1 29 -2 29 -6z m-1933 -15 c-3 -3 -12 -4 -19 -1 -8 3 -5 6 6
6 11 1 17 -2 13 -5z m558 -4 c-3 -5 -12 -10 -18 -10 -7 0 -6 4 3 10 19 12 23
12 15 0z m32 -5 c0 -8 -4 -12 -9 -9 -5 3 -6 10 -3 15 9 13 12 11 12 -6z m443
5 c0 -5 -5 -10 -11 -10 -5 0 -7 5 -4 10 3 6 8 10 11 10 2 0 4 -4 4 -10z m355
1 c3 -5 2 -12 -3 -15 -5 -3 -9 1 -9 9 0 17 3 19 12 6z m45 -3 c0 -4 -4 -8 -9
-8 -6 0 -12 4 -15 8 -3 5 1 9 9 9 8 0 15 -4 15 -9z m84 0 c-3 -4 -9 -8 -15 -8
-5 0 -9 4 -9 8 0 5 7 9 15 9 8 0 12 -4 9 -9z m368 -2 c7 4 8 2 4 -4 -3 -6 -15
-9 -26 -7 -11 2 -20 0 -20 -4 0 -4 -7 -8 -16 -8 -15 0 -14 2 1 13 10 8 22 11
26 8 5 -3 9 1 10 8 0 10 2 10 6 0 2 -6 10 -9 15 -6z m-1722 -27 c-6 -10 -8
-19 -5 -19 10 0 35 27 30 32 -3 3 2 5 10 5 8 0 15 -4 15 -9 0 -4 -5 -8 -11 -8
-5 0 -7 -6 -3 -12 4 -7 4 -10 -1 -6 -4 4 -14 3 -21 -3 -19 -16 -36 -2 -24 20
5 10 6 22 2 26 -4 5 -1 5 6 1 9 -5 9 -12 2 -27z m347 1 c-1 -11 -4 -20 -8 -20
-4 0 -6 11 -5 24 0 13 4 22 8 20 4 -2 6 -13 5 -24z m560 15 c0 -8 -4 -12 -9
-9 -5 3 -6 10 -3 15 9 13 12 11 12 -6z m-802 -5 c3 -5 1 -10 -4 -10 -6 0 -11
5 -11 10 0 6 2 10 4 10 3 0 8 -4 11 -10z m105 4 c0 -8 -19 -13 -24 -6 -3 5 1
9 9 9 8 0 15 -2 15 -3z m551 -17 c-10 -9 -11 -8 -5 6 3 10 9 15 12 12 3 -3 0
-11 -7 -18z m46 8 c0 -8 -4 -12 -9 -9 -4 3 -8 9 -8 15 0 5 4 9 8 9 5 0 9 -7 9
-15z m279 3 c4 -7 4 -10 -1 -6 -4 4 -15 2 -24 -5 -14 -11 -14 -10 -2 6 16 20
18 21 27 5z m104 2 c0 -5 -5 -10 -11 -10 -5 0 -7 5 -4 10 3 6 8 10 11 10 2 0
4 -4 4 -10z m124 2 c3 -5 -1 -9 -9 -9 -8 0 -15 4 -15 9 0 10 17 10 24 0z m129
-22 c3 6 4 5 3 -1 -1 -7 -10 -13 -19 -15 -9 -1 -14 2 -11 7 3 6 2 16 -3 22 -4
7 -1 5 9 -5 9 -11 18 -14 21 -8z m88 10 c6 0 8 4 5 8 -3 5 1 9 9 9 10 0 12 -4
5 -12 -5 -7 -6 -15 -2 -20 4 -4 -3 -2 -15 4 -13 6 -23 17 -22 24 0 9 2 9 6 0
2 -7 9 -13 14 -13z m59 8 c0 -9 4 -8 11 2 8 12 10 12 7 1 -2 -8 -14 -15 -25
-16 -14 -1 -19 3 -16 12 6 17 23 17 23 1z m-719 -15 c13 -16 12 -17 -3 -4 -10
7 -18 15 -18 17 0 8 8 3 21 -13z m-641 -3 c0 -5 -4 -10 -10 -10 -5 0 -10 5
-10 10 0 6 5 10 10 10 6 0 10 -4 10 -10z m280 6 c0 -2 -7 -7 -16 -10 -8 -3
-12 -2 -9 4 6 10 25 14 25 6z m180 0 c0 -2 -7 -7 -16 -10 -8 -3 -12 -2 -9 4 6
10 25 14 25 6z m-420 -16 c-8 -5 -11 -10 -7 -10 5 0 5 -5 1 -11 -4 -8 -9 -8
-18 1 -8 8 -7 13 4 20 8 5 20 10 25 10 6 0 3 -5 -5 -10z m235 -22 c-3 -30 -3
-30 -15 -23 -7 4 -7 13 0 26 14 25 18 24 15 -3z m80 12 c-3 -5 -12 -10 -18
-10 -7 0 -6 4 3 10 19 12 23 12 15 0z m415 -6 c0 -2 -11 -3 -24 -2 -14 1 -23
5 -20 9 4 7 44 0 44 -7z m24 7 c3 -5 -2 -15 -12 -22 -15 -12 -16 -12 -5 2 7 9
10 19 6 22 -3 4 -4 7 0 7 3 0 8 -4 11 -9z m-483 -15 c5 3 9 1 9 -5 0 -5 -4
-13 -10 -16 -5 -3 -10 -4 -10 -1 0 2 -2 10 -3 18 -2 7 -2 10 0 5 3 -4 9 -5 14
-1z m509 -12 c0 -8 -5 -12 -10 -9 -6 4 -8 11 -5 16 9 14 15 11 15 -7z m60 8
c0 -5 -7 -9 -15 -9 -8 0 -12 4 -9 9 3 4 9 8 15 8 5 0 9 -4 9 -8z"/>
<path d="M8534 12306 c1 -8 5 -18 8 -22 4 -3 5 1 4 10 -1 8 -5 18 -8 22 -4 3
-5 -1 -4 -10z"/>
<path d="M1510 2742 c0 -5 7 -9 15 -9 8 0 12 4 9 9 -3 4 -9 8 -15 8 -5 0 -9
-4 -9 -8z"/>
<path d="M1467 2399 c7 -7 15 -10 18 -7 3 3 -2 9 -12 12 -14 6 -15 5 -6 -5z"/>
<path d="M1506 2285 c4 -8 12 -15 20 -15 20 0 17 7 -6 20 -16 9 -18 8 -14 -5z"/>
<path d="M1540 2241 c0 -5 5 -13 10 -16 6 -3 10 -2 10 4 0 5 -4 13 -10 16 -5
3 -10 2 -10 -4z"/>
<path d="M10070 2120 c0 -9 14 -14 33 -11 4 0 7 -3 7 -7 0 -4 9 -8 20 -9 11
-1 20 3 20 8 0 6 -4 8 -9 4 -5 -3 -16 2 -24 10 -12 11 -17 12 -20 2 -4 -9 -6
-9 -6 1 -1 14 -21 17 -21 2z"/>
<path d="M10187 2059 c7 -7 15 -10 18 -7 3 3 -2 9 -12 12 -14 6 -15 5 -6 -5z"/>
<path d="M1640 1960 c-9 -6 -10 -10 -3 -10 6 0 15 5 18 10 8 12 4 12 -15 0z"/>
<path d="M10316 1883 c-6 -14 -5 -15 5 -6 7 7 10 15 7 18 -3 3 -9 -2 -12 -12z"/>
<path d="M1761 1851 c-8 -5 -9 -11 -3 -15 5 -3 12 1 16 9 6 17 6 18 -13 6z"/>
<path d="M10350 1826 c0 -2 7 -7 16 -10 8 -3 12 -2 9 4 -6 10 -25 14 -25 6z"/>
<path d="M1775 1810 c4 -6 13 -10 21 -10 8 0 12 -4 9 -10 -3 -6 1 -7 9 -4 22
8 20 11 -14 23 -18 6 -28 6 -25 1z"/>
<path d="M10335 1800 c4 -6 11 -8 16 -5 14 9 11 15 -7 15 -8 0 -12 -5 -9 -10z"/>
<path d="M1834 1726 c1 -8 5 -18 8 -22 4 -3 5 1 4 10 -1 8 -5 18 -8 22 -4 3
-5 -1 -4 -10z"/>
<path d="M10414 1695 c-3 -8 -4 -20 -2 -27 3 -7 7 -1 10 15 6 29 1 36 -8 12z"/>
<path d="M10390 1640 c0 -5 5 -10 10 -10 6 0 10 5 10 10 0 6 -4 10 -10 10 -5
0 -10 -4 -10 -10z"/>
<path d="M2047 1556 c-4 -10 -1 -13 9 -9 9 3 14 -1 14 -12 0 -9 5 -13 10 -10
9 6 14 -8 11 -28 -1 -5 4 -5 10 -1 8 5 10 2 7 -8 -4 -8 0 -15 8 -15 16 0 -9
47 -42 78 -18 17 -22 18 -27 5z"/>
<path d="M10394 1502 c3 -5 0 -13 -6 -15 -9 -4 -10 -6 -1 -6 17 -1 25 16 12
25 -7 4 -9 3 -5 -4z"/>
<path d="M2182 1453 c-9 -3 -7 -10 9 -24 12 -10 26 -19 31 -19 5 0 6 -4 3 -10
-4 -6 1 -7 11 -3 11 4 13 8 6 11 -7 2 -9 9 -6 14 4 7 2 8 -5 4 -14 -9 -43 12
-35 25 6 10 5 10 -14 2z"/>
<path d="M10240 1319 c0 -5 5 -7 10 -4 6 3 10 8 10 11 0 2 -4 4 -10 4 -5 0
-10 -5 -10 -11z"/>
<path d="M2397 1290 c6 -7 9 -20 6 -29 -4 -13 -3 -13 5 -2 8 11 10 11 15 0 4
-10 6 -10 6 -1 2 24 1 27 -6 27 -5 0 -15 4 -23 9 -12 7 -12 6 -3 -4z"/>
<path d="M2550 1168 c0 -6 3 -9 6 -5 4 3 13 -1 21 -9 9 -8 20 -13 25 -12 13 5
6 23 -9 23 -6 0 -15 4 -19 8 -11 11 -24 8 -24 -5z"/>
<path d="M8750 1165 c-10 -13 -9 -15 9 -15 14 0 20 -4 15 -12 -4 -7 -3 -8 4
-4 9 5 9 13 2 27 -13 23 -14 23 -30 4z"/>
<path d="M10045 1159 c-3 -4 2 -6 10 -5 21 3 28 13 10 13 -9 0 -18 -4 -20 -8z"/>
<path d="M10033 1125 c0 -8 4 -12 9 -9 5 3 6 10 3 15 -9 13 -12 11 -12 -6z"/>
<path d="M2600 1119 c0 -5 5 -7 10 -4 6 3 10 8 10 11 0 2 -4 4 -10 4 -5 0 -10
-5 -10 -11z"/>
<path d="M9743 1077 c-9 -9 -13 -20 -10 -24 4 -3 7 -1 7 5 0 6 6 10 13 8 6 -1
9 -1 4 1 -4 3 -4 9 -1 14 3 6 11 5 20 -2 11 -9 14 -9 14 0 0 7 5 9 10 6 6 -3
10 -2 10 3 0 16 -50 8 -67 -11z"/>
<path d="M9460 1075 c-10 -12 -9 -16 4 -21 9 -3 13 -10 10 -15 -3 -5 0 -9 5
-9 14 0 14 17 1 25 -5 3 -10 11 -10 16 0 6 5 7 12 3 7 -4 8 -3 4 4 -9 15 -11
15 -26 -3z"/>
<path d="M9630 1050 c-9 -6 -10 -10 -3 -10 6 0 15 5 18 10 8 12 4 12 -15 0z"/>
<path d="M8755 1040 c-3 -5 -1 -10 4 -10 6 0 11 5 11 10 0 6 -2 10 -4 10 -3 0
-8 -4 -11 -10z"/>
<path d="M9428 1043 c7 -3 16 -2 19 1 4 3 -2 6 -13 5 -11 0 -14 -3 -6 -6z"/>
<path d="M2797 1013 c-10 -9 -9 -23 1 -23 5 0 9 7 9 15 0 17 -1 18 -10 8z"/>
<path d="M2854 1007 c-8 -22 2 -36 24 -33 9 2 20 -1 23 -6 3 -5 9 -2 13 8 4
10 4 15 0 11 -4 -4 -18 3 -30 14 -21 19 -24 20 -30 6z m25 -10 c8 -10 7 -14
-4 -14 -8 0 -15 6 -15 14 0 7 2 13 4 13 2 0 9 -6 15 -13z"/>
<path d="M2945 949 c-3 -4 2 -6 10 -5 21 3 28 13 10 13 -9 0 -18 -4 -20 -8z"/>
<path d="M2950 926 c0 -2 9 -6 20 -9 11 -3 18 -1 14 4 -5 9 -34 13 -34 5z"/>
<path d="M3065 900 c3 -5 0 -10 -7 -12 -9 -3 -9 -6 0 -12 7 -4 12 -2 12 3 0 6
8 11 17 11 9 0 13 3 9 7 -10 10 -37 13 -31 3z"/>
<path d="M8710 898 c0 -4 4 -8 9 -8 6 0 12 4 15 8 3 5 -1 9 -9 9 -8 0 -15 -4
-15 -9z"/>
<path d="M3174 849 c-4 -7 -2 -15 4 -17 7 -2 9 -9 5 -15 -4 -7 1 -6 10 2 15
12 21 9 18 -11 0 -4 6 -5 15 -1 9 3 20 0 25 -8 6 -10 9 -11 9 -1 0 7 -7 15
-16 19 -13 5 -13 8 -2 15 9 7 8 8 -6 4 -11 -4 -26 0 -36 9 -14 13 -20 14 -26
4z"/>
<path d="M3270 800 c0 -5 5 -10 11 -10 5 0 7 5 4 10 -3 6 -8 10 -11 10 -2 0
-4 -4 -4 -10z"/>
<path d="M8615 709 c-4 -6 -5 -12 -2 -15 2 -3 7 2 10 11 7 17 1 20 -8 4z"/>
<path d="M3521 691 c-8 -5 -9 -11 -3 -15 5 -3 12 1 16 9 6 17 6 18 -13 6z"/>
<path d="M3863 555 c-7 -8 -9 -16 -4 -19 5 -3 12 1 15 10 8 22 4 25 -11 9z"/>
<path d="M3895 549 c-4 -6 -5 -12 -2 -15 2 -3 7 2 10 11 7 17 1 20 -8 4z"/>
<path d="M8385 540 c3 -5 8 -10 11 -10 2 0 4 5 4 10 0 6 -5 10 -11 10 -5 0 -7
-4 -4 -10z"/>
<path d="M8455 540 c-3 -5 -1 -10 4 -10 6 0 11 5 11 10 0 6 -2 10 -4 10 -3 0
-8 -4 -11 -10z"/>
<path d="M8311 476 c-6 -7 -7 -16 -3 -20 4 -5 -1 -6 -12 -4 -13 2 -20 -4 -22
-19 -2 -13 1 -23 7 -23 5 0 8 4 4 10 -3 5 7 16 22 24 15 8 22 15 15 16 -7 0
-10 5 -7 10 5 8 11 7 21 -1 8 -6 16 -10 19 -8 2 3 -4 10 -15 16 -14 9 -21 9
-29 -1z"/>
<path d="M4158 443 c7 -3 16 -2 19 1 4 3 -2 6 -13 5 -11 0 -14 -3 -6 -6z"/>
<path d="M8224 417 c-23 -20 -24 -25 -11 -30 12 -4 14 -2 10 10 -5 12 -3 14 7
8 9 -6 11 -4 5 5 -6 9 -4 12 7 8 9 -4 15 0 15 8 0 18 -1 18 -33 -9z"/>
<path d="M8014 325 c-12 -8 -24 -11 -28 -7 -4 3 -4 -1 0 -11 6 -17 7 -17 20 0
13 17 14 17 7 -1 -4 -12 -3 -17 4 -13 9 5 26 47 19 47 -1 0 -11 -7 -22 -15z"/>
<path d="M4926 267 c3 -10 9 -15 12 -12 3 3 0 11 -7 18 -10 9 -11 8 -5 -6z"/>
<path d="M4820 266 c0 -2 7 -7 16 -10 8 -3 12 -2 9 4 -6 10 -25 14 -25 6z"/>
<path d="M4956 254 c-21 -20 -21 -30 0 -13 12 10 17 10 23 0 6 -10 9 -9 14 2
11 29 -13 36 -37 11z"/>
<path d="M5006 243 c-6 -14 -5 -15 5 -6 7 7 10 15 7 18 -3 3 -9 -2 -12 -12z"/>
<path d="M5030 250 c0 -5 5 -10 11 -10 5 0 7 5 4 10 -3 6 -8 10 -11 10 -2 0
-4 -4 -4 -10z"/>
<path d="M7825 250 c-4 -6 -11 -8 -16 -5 -5 4 -9 2 -9 -3 0 -6 7 -13 16 -16 8
-3 12 -2 9 3 -3 6 3 14 12 20 10 6 13 11 6 11 -6 0 -15 -5 -18 -10z"/>
<path d="M5433 155 c0 -8 4 -12 9 -9 5 3 6 10 3 15 -9 13 -12 11 -12 -6z"/>
<path d="M7506 162 c-3 -5 1 -9 9 -9 8 0 12 4 9 9 -3 4 -7 8 -9 8 -2 0 -6 -4
-9 -8z"/>
<path d="M5628 123 c7 -3 16 -2 19 1 4 3 -2 6 -13 5 -11 0 -14 -3 -6 -6z"/>
<path d="M6355 110 c-3 -5 -1 -10 4 -10 6 0 11 5 11 10 0 6 -2 10 -4 10 -3 0
-8 -4 -11 -10z"/>
<path d="M6091 97 c-1 -11 -6 -15 -13 -11 -7 5 -8 3 -3 -5 10 -16 29 2 22 21
-4 8 -6 7 -6 -5z"/>
<path d="M5948 93 c7 -3 16 -2 19 1 4 3 -2 6 -13 5 -11 0 -14 -3 -6 -6z"/>
<path d="M6494 89 c-3 -6 -3 -13 0 -16 3 -4 6 -1 6 5 0 7 4 12 10 12 5 0 6 -8
3 -17 -6 -17 -6 -17 10 -1 9 9 17 18 17 20 0 9 -40 6 -46 -3z"/>
<path d="M6585 91 c-3 -6 -1 -11 5 -11 6 0 8 -4 5 -10 -3 -5 -2 -18 4 -27 8
-14 9 -11 6 16 -4 38 -10 47 -20 32z"/>
<path d="M6646 86 c7 -19 20 -21 30 -3 4 6 4 9 -1 5 -4 -4 -14 -3 -22 4 -11 8
-12 7 -7 -6z"/>
<path d="M6710 81 c0 -6 4 -12 8 -15 5 -3 9 1 9 9 0 8 -4 15 -9 15 -4 0 -8 -4
-8 -9z"/>
<path d="M6550 76 c0 -2 7 -7 16 -10 8 -3 12 -2 9 4 -6 10 -25 14 -25 6z"/>
<path d="M6675 60 c-3 -6 1 -7 9 -4 18 7 21 14 7 14 -6 0 -13 -4 -16 -10z"/>
</g>
</svg>
