<?xml version="1.0" standalone="no"?>
<!DOCTYPE svg PUBLIC "-//W3C//DTD SVG 20010904//EN"
 "http://www.w3.org/TR/2001/REC-SVG-20010904/DTD/svg10.dtd">
<svg version="1.0" xmlns="http://www.w3.org/2000/svg"
 width="1280.000000pt" height="1280.000000pt" viewBox="0 0 1280.000000 1280.000000"
 preserveAspectRatio="xMidYMid meet">
<metadata>
Created by potrace 1.11, written by Peter Selinger 2001-2013
</metadata>
<g transform="translate(0.000000,1280.000000) scale(0.100000,-0.100000)"
fill="#000000" stroke="none">
<path d="M5623 12169 c-75 -169 -185 -339 -291 -454 -102 -110 -157 -191 -177
-258 -21 -69 -19 -183 5 -322 11 -64 20 -134 20 -155 0 -21 4 -40 10 -42 5 -1
13 -45 16 -96 l7 -93 49 48 c46 44 87 102 282 401 37 56 92 129 122 161 51 55
136 121 156 121 4 0 8 -33 9 -72 0 -40 4 -122 9 -183 8 -103 7 -111 -11 -125
-19 -15 -19 -16 5 -49 14 -19 33 -57 42 -85 9 -28 22 -58 29 -66 6 -8 15 -23
18 -33 4 -11 12 -15 19 -11 7 5 42 27 78 50 79 51 337 194 349 194 5 0 32 16
61 35 66 44 73 44 30 0 -19 -20 -75 -58 -125 -85 -107 -57 -280 -170 -348
-227 -27 -22 -65 -45 -85 -51 -20 -7 -61 -30 -89 -52 -29 -22 -53 -38 -53 -35
0 2 20 29 45 59 25 31 45 59 45 64 0 5 11 19 25 32 35 33 25 35 -33 6 -101
-51 -219 -221 -272 -391 -27 -88 -37 -222 -21 -295 19 -90 99 -230 131 -230 5
0 47 -17 92 -38 82 -38 83 -38 103 -19 22 21 110 68 184 97 l49 19 6 -37 c26
-146 99 -329 167 -420 41 -54 118 -102 164 -102 17 0 16 3 -10 24 -16 13 -26
28 -22 33 5 4 27 -12 48 -36 l40 -45 20 21 21 20 -26 42 c-14 22 -26 48 -26
57 0 20 45 64 66 64 15 0 20 45 5 54 -5 3 -7 23 -4 44 4 32 -3 52 -44 127 -39
70 -55 90 -72 90 -16 0 -27 11 -41 43 -21 47 -19 46 51 -4 26 -19 78 -50 118
-69 82 -41 78 -28 55 -195 -26 -190 -50 -267 -102 -322 -37 -40 -78 -45 -132
-14 -25 14 -71 32 -103 40 -31 8 -62 18 -67 21 -6 3 -10 2 -10 -3 0 -5 -18
-10 -39 -10 -112 -2 -190 -60 -251 -187 -62 -132 -80 -212 -110 -512 -24 -239
-54 -366 -110 -470 -22 -41 -40 -76 -40 -78 0 -2 14 -8 30 -14 22 -7 30 -16
30 -35 0 -21 8 -26 68 -44 37 -11 96 -28 132 -37 36 -9 66 -18 68 -20 2 -1
-42 -182 -97 -401 -102 -410 -140 -595 -168 -815 -15 -119 -12 -239 5 -239 11
0 38 127 72 330 42 253 94 482 200 892 49 191 90 350 90 353 0 3 4 4 9 1 5 -4
11 -3 14 1 2 5 2 1 0 -7 -3 -8 -13 -57 -23 -107 -11 -51 -64 -274 -119 -495
-93 -375 -151 -642 -151 -694 0 -12 5 -24 11 -26 7 -2 8 -22 2 -63 -8 -56 -10
-60 -38 -66 -21 -4 -26 -8 -15 -13 11 -5 14 -18 12 -47 -4 -39 -3 -40 24 -37
20 2 28 9 29 25 1 12 -1 21 -4 19 -3 -2 -13 3 -21 12 -13 14 -13 15 0 10 8 -3
143 -48 300 -101 224 -74 334 -105 512 -142 128 -27 225 -52 221 -58 -3 -5 7
-6 26 -2 17 4 31 3 31 -3 0 -5 12 -8 28 -5 24 3 25 2 7 -7 -16 -8 -13 -9 18
-6 25 3 35 1 31 -6 -5 -7 2 -9 20 -4 15 4 25 3 23 -2 -3 -4 12 -8 33 -9 54 -2
198 -61 355 -144 74 -39 135 -66 135 -60 0 6 -25 35 -55 66 -55 55 -142 105
-274 159 -73 29 -94 51 -78 78 15 24 -20 60 -94 97 -32 16 -56 31 -54 33 2 2
-4 4 -13 4 -9 1 -69 20 -132 42 -170 61 -383 116 -505 132 -68 9 -214 -1 -280
-18 -29 -8 6 -22 275 -110 15 -5 24 -15 24 -25 -1 -9 5 -17 14 -17 8 0 12 -3
9 -6 -4 -4 -105 25 -224 64 -120 39 -237 75 -259 79 l-42 8 49 85 c52 91 81
169 99 265 14 72 71 317 111 474 32 122 42 176 41 204 0 9 3 17 7 17 5 0 11
-23 14 -51 4 -29 8 -54 11 -56 8 -8 101 98 143 164 l42 65 3 -142 3 -143 64
89 c58 81 148 251 138 260 -4 5 -92 -83 -124 -124 -18 -23 -18 -21 -11 95 3
65 11 140 18 167 11 52 8 60 -27 70 -17 5 -23 2 -29 -16 -19 -63 -100 -238
-133 -290 -35 -55 -39 -58 -44 -37 -4 13 -7 67 -7 119 0 52 -5 122 -11 155 -6
33 -10 104 -9 157 1 103 -16 255 -31 264 -5 3 -9 -3 -9 -12 0 -10 -2 -15 -5
-13 -2 3 2 45 11 92 8 48 13 127 12 175 l-3 87 -27 -71 c-14 -39 -43 -147 -63
-240 -51 -240 -52 -243 -73 -237 -14 3 -24 -8 -42 -47 -22 -48 -26 -50 -54
-46 -18 3 -6 -4 27 -17 31 -12 57 -28 57 -35 0 -8 -3 -12 -7 -10 -45 23 -93
41 -122 45 -20 2 -62 14 -93 25 l-57 20 29 52 c38 68 77 224 91 361 6 60 14
121 17 135 5 22 6 21 9 -10 6 -60 34 -180 43 -180 13 0 23 201 16 308 -11 161
26 392 62 385 6 -2 9 3 7 10 -2 6 2 20 9 30 11 15 19 16 34 8 14 -7 19 -7 19
4 0 7 -7 11 -15 7 -27 -10 -2 17 31 35 21 11 54 16 97 16 55 -1 76 -7 135 -38
56 -29 78 -36 113 -33 l43 3 52 -87 c29 -49 58 -88 65 -88 6 0 12 -4 12 -10 0
-5 -5 -10 -10 -10 -6 0 -2 -17 9 -37 38 -74 215 -222 359 -301 77 -42 127 -76
181 -125 42 -38 96 -105 89 -112 -8 -9 -112 25 -186 60 -205 97 -358 265 -497
544 -27 55 -54 100 -59 100 -10 1 0 -76 19 -145 20 -69 106 -208 189 -305 161
-186 364 -304 560 -324 l69 -8 -7 29 c-12 48 -53 131 -76 154 -19 19 -19 21
-3 16 40 -12 171 -30 213 -28 103 3 163 22 113 35 -15 4 -15 5 2 6 19 1 189
51 227 66 12 5 21 -2 33 -25 23 -45 68 -195 100 -335 43 -189 85 -343 116
-428 29 -81 81 -174 107 -193 20 -14 13 -17 -116 -40 l-103 -19 3 -30 c3 -27
6 -30 44 -33 25 -2 66 6 100 18 33 12 93 29 134 37 41 8 86 17 99 19 20 4 15
9 -36 33 -93 45 -135 106 -193 286 -17 55 -51 181 -75 280 -70 296 -108 412
-160 492 l-14 21 -53 -20 c-29 -11 -106 -35 -171 -54 -65 -19 -130 -40 -145
-48 -25 -13 -39 -12 -120 4 -163 33 -245 66 -397 161 -121 75 -203 144 -269
225 -24 29 -46 50 -50 47 -3 -4 -6 5 -6 18 0 14 -20 58 -45 98 -25 40 -45 76
-45 79 0 4 14 20 30 36 31 30 67 100 77 147 4 20 10 28 19 25 47 -18 70 149
38 279 -5 19 0 21 53 20 41 0 70 6 101 22 47 25 47 25 30 -57 -10 -49 -9 -64
10 -125 25 -83 62 -144 123 -203 43 -42 132 -92 163 -92 28 0 17 -14 -65 -78
-62 -49 -79 -69 -77 -85 2 -12 10 -23 18 -24 19 -4 191 134 197 158 5 16 48
34 69 27 5 -1 29 11 53 27 41 28 51 30 135 30 79 0 97 -3 135 -25 55 -31 81
-73 88 -145 5 -49 -11 -242 -23 -287 -4 -15 1 -18 30 -18 l34 0 18 101 18 102
14 -54 c19 -73 30 -95 80 -150 29 -33 42 -56 42 -77 0 -37 9 -39 150 -48 87
-6 119 -3 190 14 47 11 120 26 163 33 74 11 77 13 77 39 0 25 -5 28 -83 47
-378 94 -595 331 -741 815 -20 65 -60 232 -91 370 -128 585 -176 742 -255 838
l-21 25 7 -40 c4 -22 11 -50 15 -63 14 -36 11 -59 -9 -64 -16 -5 -17 -13 -11
-95 4 -49 15 -117 24 -152 9 -35 14 -65 12 -68 -7 -6 -35 117 -52 226 -14 90
-39 175 -57 196 -13 15 -8 -194 6 -270 8 -38 13 -71 11 -73 -1 -1 -15 26 -30
60 -15 35 -52 114 -82 177 -30 62 -53 115 -51 116 2 1 48 12 103 24 173 39
307 98 352 157 70 92 70 247 1 463 -16 53 -32 97 -33 99 -4 4 -245 -15 -380
-30 -108 -12 -189 -35 -236 -69 -36 -26 -34 -32 9 -20 68 20 13 -45 -59 -70
-30 -10 -55 -18 -56 -19 -1 0 -12 24 -26 53 -41 90 -181 213 -363 319 -104 61
-573 289 -771 374 -7 3 -23 -20 -40 -57z m93 -34 c18 -14 18 -14 -8 -15 -27 0
-28 -2 -28 -52 -1 -50 -2 -54 -35 -69 -19 -9 -35 -14 -35 -10 0 19 67 161 76
161 5 0 19 -7 30 -15z m109 -50 l56 -24 -16 -31 c-8 -16 -17 -30 -19 -30 -2 0
-15 18 -30 40 -14 22 -33 40 -41 40 -8 0 -15 7 -15 15 0 19 0 19 65 -10z
m-156 -157 c-16 -30 -71 -99 -76 -95 -6 6 27 77 55 120 23 35 27 38 30 19 2
-11 -2 -31 -9 -44z m115 16 c9 -24 7 -54 -4 -54 -5 0 -10 6 -10 13 0 6 -3 22
-6 35 -7 25 11 31 20 6z m484 -67 c39 -20 72 -41 72 -46 0 -24 -31 -13 -90 32
-96 73 -96 73 18 14z m-363 6 c5 -20 2 -31 -11 -40 -23 -17 -27 -12 -19 31 8
43 20 46 30 9z m175 -53 c0 -5 -4 -10 -10 -10 -5 0 -10 5 -10 10 0 6 5 10 10
10 6 0 10 -4 10 -10z m363 -52 c18 -13 17 -16 -16 -41 l-35 -26 -6 39 c-3 21
-9 46 -12 55 -6 16 -5 16 22 2 16 -9 37 -22 47 -29z m-663 -23 c-7 -9 -15 -13
-17 -11 -7 7 7 26 19 26 6 0 6 -6 -2 -15z m-302 -27 c-12 -35 -48 -92 -54 -85
-6 5 50 117 58 117 4 0 2 -15 -4 -32z m1102 -43 c32 -24 94 -84 138 -132 l81
-87 -37 -24 c-20 -14 -53 -39 -72 -57 -38 -36 -108 -85 -121 -85 -4 0 -10 9
-14 20 -3 10 -26 46 -50 79 -37 50 -42 61 -30 71 8 7 32 43 54 80 l39 68 -25
11 c-13 6 -29 8 -35 4 -8 -4 -9 0 -5 11 4 10 7 33 7 52 0 19 3 34 6 34 3 0 32
-20 64 -45z m-393 -2 c-3 -10 -5 -4 -5 12 0 17 2 24 5 18 2 -7 2 -21 0 -30z
m93 -72 c-12 -33 -29 -66 -38 -73 -13 -11 -14 -10 -9 7 3 11 9 31 12 45 9 33
46 93 52 86 3 -3 -4 -32 -17 -65z m1230 -1 c9 -16 8 -20 -5 -20 -8 0 -15 2
-15 4 0 2 -3 11 -6 20 -9 23 13 20 26 -4z m-2213 -66 c-29 -74 -63 -187 -73
-239 -15 -86 -25 -69 -21 35 2 77 8 114 21 140 23 44 87 132 92 127 2 -2 -7
-30 -19 -63z m604 -8 l-16 -51 -3 43 -3 42 -37 -15 -37 -15 39 35 c31 28 41
32 56 23 16 -10 16 -14 1 -62z m1101 4 c2 -5 45 -11 95 -12 51 -2 93 -6 93 -9
0 -4 -7 -12 -15 -19 -12 -10 -18 -10 -30 0 -12 10 -26 0 -82 -57 -37 -38 -120
-104 -183 -147 l-115 -78 71 74 c99 102 117 130 118 190 1 32 6 52 16 58 19
12 28 12 32 0z m-1256 -32 c-11 -6 -39 -29 -63 -51 -59 -54 -54 -37 9 29 37
39 54 52 62 44 8 -8 5 -14 -8 -22z m1694 0 l0 -33 -19 25 c-21 26 -19 40 5 40
9 0 14 -11 14 -32z m-50 19 c0 -2 -9 -12 -20 -22 -19 -18 -20 -17 -20 3 0 15
6 22 20 22 11 0 20 -2 20 -3z m-1963 -67 c-6 -25 -3 -30 13 -30 11 0 20 -4 20
-9 0 -4 -20 -48 -45 -97 -25 -48 -45 -81 -45 -73 0 21 40 220 46 230 11 18 16
8 11 -21z m933 15 c-7 -8 -17 -15 -22 -15 -6 0 -5 7 2 15 7 8 17 15 22 15 6 0
5 -7 -2 -15z m1054 -126 c-15 -22 -28 -38 -30 -37 -4 5 23 101 37 133 l14 30
3 -44 c3 -34 -3 -51 -24 -82z m-1394 49 c0 -13 -29 -48 -40 -48 -4 0 -5 14 -2
30 3 21 10 30 23 30 11 0 19 -5 19 -12z m450 -60 l42 -63 -34 -28 c-53 -46
-68 -51 -68 -27 0 26 -16 57 -43 88 l-21 22 34 35 c19 19 37 35 41 35 4 0 26
-28 49 -62z m275 -34 c-125 -118 -151 -126 -32 -10 53 53 103 96 110 96 6 -1
-28 -39 -78 -86z m811 -89 c-9 -23 -30 -54 -46 -70 -36 -35 -37 -31 -6 26 13
24 32 71 42 104 l19 60 3 -39 c2 -22 -4 -58 -12 -81z m-1372 92 c-3 -8 -22
-21 -42 -31 l-37 -17 35 30 c38 33 52 39 44 18z m179 -61 c20 -18 37 -39 37
-45 0 -6 -18 -20 -39 -31 l-39 -20 -4 65 c-1 36 -1 65 3 65 3 0 22 -15 42 -34z
m617 4 c0 -5 -5 -10 -11 -10 -5 0 -7 5 -4 10 3 6 8 10 11 10 2 0 4 -4 4 -10z
m-777 -37 c3 -5 8 -33 11 -64 l7 -57 -78 -42 c-43 -24 -101 -58 -130 -76 l-52
-33 -25 56 c-15 30 -26 59 -26 64 0 5 48 33 108 63 59 30 121 64 137 75 34 22
42 24 48 14z m587 -56 c0 -2 -10 -12 -22 -23 l-23 -19 19 23 c18 21 26 27 26
19z m517 -87 c2 -22 -17 -29 -175 -61 -73 -15 -107 -18 -114 -11 -8 8 -2 13
18 18 16 4 81 22 144 40 63 18 117 33 120 33 3 1 6 -8 7 -19z m-734 -29 c-4
-16 -71 -47 -81 -37 -2 3 77 55 85 56 0 0 -1 -8 -4 -19z m-1269 -30 c-4 -9
-12 -37 -18 -63 -17 -73 -26 -68 -26 14 l0 75 26 -5 c19 -3 23 -9 18 -21z
m1166 -51 c0 -13 -9 -22 -27 -26 -16 -3 -40 -10 -55 -14 -41 -13 -33 1 20 36
51 33 62 34 62 4z m127 -7 c-18 -17 -87 -41 -93 -32 -8 13 -6 15 41 27 50 13
60 14 52 5z m452 -60 c-1 -34 -2 -35 -9 -13 -11 36 -11 50 0 50 6 0 10 -17 9
-37z m-54 -74 c13 -52 33 -121 44 -153 12 -33 21 -63 21 -69 0 -9 -65 -5 -127
8 -31 7 -33 5 -33 -19 0 -37 52 -58 132 -55 l60 3 33 -63 c19 -35 41 -71 49
-80 8 -9 22 -33 30 -52 14 -34 13 -42 -11 -123 -18 -58 -37 -99 -60 -125 -37
-44 -276 -192 -340 -211 -40 -12 -44 -11 -135 35 -238 122 -352 237 -393 400
-7 27 -8 28 -15 10 -25 -60 -1 -152 60 -232 31 -42 36 -53 22 -53 -9 0 -27 -3
-39 -6 -26 -7 -45 26 -89 156 l-29 85 -5 -40 c-6 -42 -4 -104 6 -167 3 -23 2
-38 -4 -38 -11 0 -17 25 -27 110 -9 71 -36 193 -42 187 -13 -14 -21 -138 -13
-210 5 -44 8 -83 6 -85 -7 -6 -76 -20 -76 -16 0 3 8 17 18 32 14 22 17 47 15
147 0 66 -6 139 -11 163 -10 41 -9 43 26 72 19 16 39 27 43 25 4 -3 26 2 48
10 41 14 42 14 53 -10 16 -36 5 -49 -61 -70 -34 -11 -61 -24 -61 -29 0 -4 42
-6 93 -4 109 5 176 31 307 115 105 68 285 246 364 360 44 64 63 82 84 85 15 2
28 3 30 2 2 -1 14 -44 27 -95z m-185 55 c0 -21 -166 -208 -179 -200 -4 3 -17
-4 -27 -17 l-19 -22 25 20 c22 17 21 15 -4 -12 -15 -17 -36 -31 -45 -30 -9 0
-50 -21 -91 -48 -89 -58 -190 -112 -190 -101 0 3 29 20 64 40 137 77 298 210
376 312 37 46 52 58 83 63 4 0 7 -2 7 -5z m-300 -135 c-35 -28 -60 -41 -60
-32 0 7 68 52 80 52 3 0 -6 -8 -20 -20z m-360 -113 c0 -2 -27 -13 -60 -24 -33
-12 -60 -17 -60 -13 0 16 25 29 60 34 19 2 41 5 48 5 6 1 12 0 12 -2z m140
-31 c0 -2 -10 -9 -22 -15 -22 -11 -22 -10 -4 4 21 17 26 19 26 11z m255 -5
c-3 -5 -20 -19 -38 -30 -32 -22 -32 -22 3 9 37 32 45 37 35 21z m-475 -80 c0
-5 -5 -10 -11 -10 -5 0 -7 5 -4 10 3 6 8 10 11 10 2 0 4 -4 4 -10z m370 6 c0
-5 -69 -46 -78 -46 -6 1 69 50 76 50 1 0 2 -2 2 -4z m810 -110 c0 -18 -17 8
-24 34 l-7 25 15 -25 c9 -14 15 -29 16 -34z m-950 34 c-8 -5 -19 -10 -25 -10
-5 0 -3 5 5 10 8 5 20 10 25 10 6 0 3 -5 -5 -10z m1128 -149 c32 -37 59 -80
71 -113 10 -29 31 -78 46 -108 16 -30 54 -146 86 -258 106 -369 230 -591 412
-737 77 -62 225 -143 292 -160 29 -8 28 -8 -20 -16 -27 -5 -86 -16 -131 -24
-92 -17 -118 -13 -110 19 4 14 -1 27 -17 39 -12 9 9 1 48 -19 l70 -36 17 22
c10 12 18 26 18 30 0 15 -115 94 -170 117 -30 12 -71 23 -90 23 -19 0 -40 4
-46 8 -6 4 -21 45 -33 92 -31 115 -43 141 -93 206 -31 40 -60 63 -105 86 -58
28 -69 30 -140 26 -64 -4 -90 -11 -142 -39 -55 -29 -73 -33 -135 -33 -60 0
-80 4 -125 29 -29 16 -70 48 -91 72 -35 40 -38 50 -58 170 -34 208 -35 200 12
232 23 16 60 38 83 50 23 11 58 35 78 52 l35 31 0 -110 c0 -85 -3 -112 -15
-122 -13 -11 -15 -7 -15 29 0 40 -1 41 -33 41 l-34 0 4 -46 c3 -29 0 -50 -7
-54 -8 -5 -5 -24 10 -70 11 -34 19 -64 17 -66 -4 -4 -87 199 -87 215 0 6 -5
11 -11 11 -19 0 -5 -147 20 -211 25 -64 77 -130 132 -165 47 -29 49 -29 49 -2
l0 21 23 -20 c12 -11 32 -25 43 -32 25 -12 27 -8 39 82 l7 47 38 -34 c37 -33
104 -61 122 -50 4 3 8 42 8 86 l0 81 25 -23 c22 -21 24 -25 10 -30 -15 -5 -14
-8 3 -30 l20 -25 11 27 c8 20 7 36 -4 61 -8 19 -12 43 -9 53 3 11 -7 56 -21
99 -14 44 -34 114 -45 155 -31 122 -57 174 -90 187 -19 7 -32 8 -36 2 -8 -13
23 -210 43 -272 18 -56 33 -161 22 -150 -4 4 -19 37 -32 73 l-24 65 -7 -33
c-5 -18 -3 -38 2 -45 5 -7 17 -38 26 -70 13 -43 21 -57 32 -53 11 4 14 -5 14
-41 l0 -46 -26 24 c-33 31 -74 111 -74 144 0 15 -4 24 -10 20 -16 -10 -12 15
11 75 19 50 20 61 9 122 -13 75 -16 78 -83 103 -36 14 -46 22 -42 34 4 9 11
36 18 61 14 58 13 57 34 31 14 -18 24 -21 46 -16 24 6 27 12 27 51 0 43 1 44
33 45 l32 1 -35 14 c-30 13 -38 24 -57 77 l-22 62 37 -42 c20 -23 61 -69 90
-102z m-1749 -2 c-6 -35 -14 -77 -19 -94 -8 -29 -8 -29 -9 10 -1 54 23 164 34
153 2 -2 0 -33 -6 -69z m146 -32 c-16 -60 -25 -126 -25 -171 0 -80 -4 -86 -61
-86 -23 0 -29 4 -29 23 0 49 11 67 40 67 25 0 28 4 35 48 7 51 43 201 52 215
14 23 10 -8 -12 -96z m107 16 c-3 -16 -7 -22 -10 -15 -4 13 4 42 11 42 2 0 2
-12 -1 -27z m-32 -202 c0 -30 -4 -40 -19 -44 -16 -4 -20 2 -23 35 -4 44 -2 48
24 48 14 0 18 -8 18 -39z m287 -108 c2 -26 2 -45 -1 -42 -9 8 -24 88 -18 94
10 9 15 -4 19 -52z m-20 -1545 c-3 -8 -6 -5 -6 6 -1 11 2 17 5 13 3 -3 4 -12
1 -19z m-30 -130 c-3 -8 -6 -5 -6 6 -1 11 2 17 5 13 3 -3 4 -12 1 -19z m-100
-80 c-3 -8 -6 -5 -6 6 -1 11 2 17 5 13 3 -3 4 -12 1 -19z m140 -160 c-3 -7 -5
-2 -5 12 0 14 2 19 5 13 2 -7 2 -19 0 -25z m0 -290 c-2 -13 -4 -3 -4 22 0 25
2 35 4 23 2 -13 2 -33 0 -45z m-167 -368 c0 -11 -4 -20 -9 -20 -5 0 -7 9 -4
20 3 11 7 20 9 20 2 0 4 -9 4 -20z m607 -906 c-3 -3 -12 -4 -19 -1 -8 3 -5 6
6 6 11 1 17 -2 13 -5z m40 -10 c-3 -3 -12 -4 -19 -1 -8 3 -5 6 6 6 11 1 17 -2
13 -5z m100 -20 c-3 -3 -12 -4 -19 -1 -8 3 -5 6 6 6 11 1 17 -2 13 -5z m100
-20 c-3 -3 -12 -4 -19 -1 -8 3 -5 6 6 6 11 1 17 -2 13 -5z m50 -10 c-3 -3 -12
-4 -19 -1 -8 3 -5 6 6 6 11 1 17 -2 13 -5z m50 -10 c-3 -3 -12 -4 -19 -1 -8 3
-5 6 6 6 11 1 17 -2 13 -5z m80 -20 c-3 -3 -12 -4 -19 -1 -8 3 -5 6 6 6 11 1
17 -2 13 -5z"/>
<path d="M6746 10344 c-10 -25 13 -44 53 -44 48 0 65 12 56 39 -5 18 -14 21
-55 21 -35 0 -50 -4 -54 -16z"/>
<path d="M6763 10198 c-13 -6 -25 -19 -28 -29 -4 -13 -16 -19 -36 -19 -42 0
-49 -27 -15 -57 32 -28 67 -37 102 -29 24 6 124 91 124 106 0 12 -70 40 -98
39 -15 0 -37 -5 -49 -11z m44 -54 c-3 -3 -12 -4 -19 -1 -8 3 -5 6 6 6 11 1 17
-2 13 -5z"/>
<path d="M6565 10630 c-3 -5 -2 -10 4 -10 5 0 13 5 16 10 3 6 2 10 -4 10 -5 0
-13 -4 -16 -10z"/>
<path d="M7387 10203 c-12 -11 -7 -21 13 -26 11 -3 20 -2 20 3 0 12 -26 31
-33 23z"/>
<path d="M6168 9333 c7 -3 16 -2 19 1 4 3 -2 6 -13 5 -11 0 -14 -3 -6 -6z"/>
<path d="M6120 9320 c-8 -5 -10 -10 -5 -10 6 0 17 5 25 10 8 5 11 10 5 10 -5
0 -17 -5 -25 -10z"/>
<path d="M6337 9279 c7 -7 15 -10 18 -7 3 3 -2 9 -12 12 -14 6 -15 5 -6 -5z"/>
<path d="M6380 9260 c0 -5 7 -7 15 -4 8 4 15 8 15 10 0 2 -7 4 -15 4 -8 0 -15
-4 -15 -10z"/>
<path d="M6006 9218 c3 -5 10 -6 15 -3 13 9 11 12 -6 12 -8 0 -12 -4 -9 -9z"/>
<path d="M7832 8635 c0 -16 2 -22 5 -12 2 9 2 23 0 30 -3 6 -5 -1 -5 -18z"/>
<path d="M5841 8364 c0 -11 3 -14 6 -6 3 7 2 16 -1 19 -3 4 -6 -2 -5 -13z"/>
<path d="M7593 8298 c4 -37 31 -172 61 -300 56 -240 111 -515 166 -836 17
-101 38 -201 45 -223 9 -25 10 -39 4 -39 -6 0 1 -14 15 -31 34 -41 33 -69 -6
-106 -47 -45 -175 -111 -243 -125 l-57 -11 6 -49 c4 -27 18 -74 31 -104 13
-30 22 -54 19 -54 -2 0 -34 15 -71 34 -79 40 -203 80 -214 69 -4 -5 -10 -18
-13 -30 -5 -17 0 -25 24 -39 17 -10 28 -24 26 -31 -3 -7 0 -15 6 -19 7 -4 8
-3 4 4 -4 7 -3 12 2 12 14 0 81 -82 130 -157 36 -57 97 -191 90 -198 -2 -2
-50 10 -108 26 -310 88 -660 150 -1264 224 -274 34 -466 45 -466 26 0 -21 170
-54 495 -96 632 -80 968 -143 1294 -241 63 -19 119 -34 126 -32 31 7 -66 266
-138 367 -52 73 -52 72 -20 60 49 -18 107 -56 142 -92 29 -31 36 -34 57 -25
13 6 24 15 24 19 0 4 -22 54 -50 111 -27 57 -53 117 -56 134 -6 30 -5 31 70
58 87 32 182 90 214 131 31 39 30 98 -3 131 -21 21 -25 34 -25 88 0 61 -24
217 -75 491 -13 72 -27 146 -30 165 -14 88 -94 445 -115 515 -28 93 -68 193
-86 218 -15 21 -16 19 -11 -45z"/>
<path d="M5986 8297 c3 -10 9 -15 12 -12 3 3 0 11 -7 18 -10 9 -11 8 -5 -6z"/>
<path d="M5940 8280 c-8 -5 -10 -10 -5 -10 6 0 17 5 25 10 8 5 11 10 5 10 -5
0 -17 -5 -25 -10z"/>
<path d="M5860 8248 c-10 -20 -9 -21 2 -7 8 9 22 19 33 22 18 4 18 5 -2 6 -14
1 -26 -7 -33 -21z"/>
<path d="M5797 8209 c7 -7 15 -10 18 -7 3 3 -2 9 -12 12 -14 6 -15 5 -6 -5z"/>
<path d="M5866 8212 c-2 -4 13 -6 35 -4 21 2 39 6 39 8 0 7 -69 4 -74 -4z"/>
<path d="M5865 8180 c27 -12 43 -12 25 0 -8 5 -22 9 -30 9 -10 0 -8 -3 5 -9z"/>
<path d="M7281 8019 c-7 -34 -15 -150 -18 -259 l-5 -197 24 -6 c39 -11 44 -8
57 32 6 21 20 50 30 62 19 24 19 24 40 5 26 -23 50 -102 60 -194 l8 -67 17 39
c22 49 22 149 1 204 -19 46 -75 102 -103 102 -10 0 -28 -7 -40 -16 l-22 -15 0
113 c-1 101 -18 239 -32 253 -3 3 -11 -22 -17 -56z"/>
<path d="M6915 8037 c-8 -13 -18 -51 -21 -85 l-7 -61 -46 -3 c-42 -3 -46 -5
-46 -28 0 -22 5 -25 40 -28 l40 -3 -9 -78 c-20 -171 40 -179 63 -7 6 43 14 83
18 89 8 13 14 187 7 210 -7 23 -21 21 -39 -6z"/>
<path d="M5795 8020 c-4 -6 -1 -67 6 -135 10 -96 17 -129 30 -141 33 -29 41
14 32 156 l-8 125 -27 3 c-14 2 -29 -2 -33 -8z"/>
<path d="M6690 7990 c0 -27 3 -30 30 -30 27 0 30 3 30 30 0 27 -3 30 -30 30
-27 0 -30 -3 -30 -30z"/>
<path d="M7572 7895 c0 -16 2 -22 5 -12 2 9 2 23 0 30 -3 6 -5 -1 -5 -18z"/>
<path d="M6683 7832 c-14 -9 -47 -158 -39 -178 8 -20 44 -17 56 5 5 11 15 51
22 91 11 61 10 73 -2 80 -18 12 -22 12 -37 2z"/>
<path d="M7038 7813 c-26 -4 -28 -8 -28 -51 0 -88 64 -152 151 -152 32 0 55 7
73 21 38 30 20 44 -54 44 -62 1 -93 17 -103 56 -7 25 21 26 39 2 13 -17 15
-17 29 1 40 53 -17 94 -107 79z"/>
<path d="M7818 7763 c6 -2 18 -2 25 0 6 3 1 5 -13 5 -14 0 -19 -2 -12 -5z"/>
<path d="M7830 7720 l-25 -21 28 12 c15 7 27 16 27 21 0 11 -1 10 -30 -12z"/>
<path d="M7828 7623 c7 -3 16 -2 19 1 4 3 -2 6 -13 5 -11 0 -14 -3 -6 -6z"/>
<path d="M8070 7518 c0 -15 48 -135 83 -204 67 -133 71 -164 72 -499 0 -285 1
-302 21 -345 12 -25 29 -54 39 -65 16 -19 16 -19 9 15 -4 19 -8 181 -9 360 -1
218 -5 345 -14 385 -17 83 -101 250 -155 310 -25 28 -45 47 -46 43z"/>
<path d="M6091 7284 c0 -11 3 -14 6 -6 3 7 2 16 -1 19 -3 4 -6 -2 -5 -13z"/>
<path d="M7778 7263 c5 -21 7 -23 10 -9 2 10 0 22 -6 28 -6 6 -7 0 -4 -19z"/>
<path d="M11580 6853 c-116 -19 -497 -62 -584 -67 -148 -8 -354 -39 -576 -87
-102 -22 -381 -71 -620 -110 -239 -38 -601 -97 -804 -129 -340 -55 -512 -93
-501 -111 3 -4 -3 -9 -13 -11 -15 -4 -17 -13 -14 -42 l4 -36 92 -1 c86 -1 88
-2 41 -10 -170 -31 -179 -31 -190 -13 -16 29 -77 90 -72 73 29 -92 31 -101 16
-111 -11 -7 -11 -11 -1 -15 16 -6 15 -62 -3 -143 -8 -36 -14 -84 -15 -107 0
-31 -4 -43 -15 -43 -29 0 -65 24 -92 62 l-27 40 -18 -36 c-10 -20 -29 -43 -43
-52 -22 -14 -27 -14 -56 0 -31 15 -34 15 -54 -4 -28 -27 -70 -26 -89 2 -23 32
-20 61 14 128 16 33 44 107 60 165 37 126 60 181 99 238 l28 42 -51 142 c-29
78 -55 145 -59 149 -18 19 -6 -138 17 -207 l24 -74 -28 -47 c-16 -26 -40 -77
-52 -113 l-23 -65 -90 0 c-71 0 -96 -4 -119 -19 -28 -19 -28 -19 -7 -30 29
-16 26 -27 -10 -40 -25 -9 -30 -15 -27 -38 3 -27 5 -28 67 -31 59 -3 121 11
121 27 0 4 -5 12 -12 19 -8 8 -5 14 17 22 15 6 29 9 32 7 10 -11 -19 -152 -37
-174 -29 -37 -35 -85 -15 -126 21 -46 52 -61 106 -53 24 4 69 8 101 10 37 2
66 11 86 25 26 18 31 19 42 6 22 -27 85 -40 130 -26 l40 12 0 62 c1 34 7 91
15 127 8 36 14 82 15 103 l0 37 58 0 c115 0 559 59 1734 229 453 66 947 136
1098 156 358 47 328 39 351 89 21 47 23 67 9 117 -10 36 -52 90 -67 88 -4 -1
-19 -4 -33 -6z m46 -110 c9 -47 -9 -83 -41 -83 -23 0 -25 3 -25 49 0 53 -8 61
-62 61 -49 0 -25 12 39 19 67 8 80 2 89 -46z m-164 -42 c14 -5 -28 -10 -122
-13 -131 -5 -147 -4 -174 14 l-31 20 152 -6 c84 -4 163 -10 175 -15z m-1036
-90 c-4 -5 -28 -13 -54 -16 -26 -3 -60 -9 -77 -12 -61 -11 -11 13 58 28 77 16
83 16 73 0z m669 -16 c-33 -13 -464 -65 -526 -64 -94 2 -85 4 206 38 214 26
348 36 320 26z m-1025 -144 c-32 -18 -314 -51 -377 -45 -35 4 -63 10 -63 14 0
15 60 22 245 29 105 4 195 8 200 9 6 1 3 -2 -5 -7z"/>
<path d="M7866 6792 c-3 -5 1 -9 9 -9 8 0 12 4 9 9 -3 4 -7 8 -9 8 -2 0 -6 -4
-9 -8z"/>
<path d="M7708 6683 c7 -3 16 -2 19 1 4 3 -2 6 -13 5 -11 0 -14 -3 -6 -6z"/>
<path d="M5630 6595 c-11 -13 -10 -14 4 -9 9 3 16 10 16 15 0 13 -6 11 -20 -6z"/>
<path d="M5670 6559 c-19 -16 -41 -27 -48 -24 -7 2 -11 1 -8 -4 3 -4 -11 -23
-30 -42 -97 -93 -86 -176 31 -245 36 -21 65 -43 65 -50 0 -17 -29 -38 -117
-83 -139 -72 -168 -116 -168 -256 1 -66 7 -105 22 -148 20 -53 20 -58 5 -65
-26 -13 -133 -35 -139 -28 -12 12 8 35 36 41 35 7 35 10 21 52 l-11 30 -57
-13 c-70 -16 -380 -64 -412 -64 -46 0 -13 9 110 29 69 12 150 29 180 38 l55
16 -55 9 c-95 16 -404 -32 -647 -100 -88 -25 -104 -27 -116 -15 -8 8 -31 20
-52 27 l-37 13 91 38 c51 21 94 42 97 46 2 4 -1 19 -7 32 l-11 25 -45 -19 -45
-19 33 41 32 41 -22 17 c-22 17 -24 16 -109 -72 -64 -66 -103 -97 -147 -117
-33 -16 -62 -27 -64 -25 -6 7 125 200 172 253 26 29 47 56 47 61 0 4 -8 15
-17 23 -17 15 -31 2 -204 -177 -118 -123 -203 -220 -230 -264 -30 -48 -49 -69
-59 -66 -82 24 -100 27 -135 21 -35 -7 -68 -33 -112 -89 -28 -36 -353 -34
-680 3 -261 30 -475 49 -640 55 -229 10 -589 79 -856 165 -96 30 -217 60 -247
60 -11 -1 -10 -5 5 -16 70 -54 218 -106 491 -172 l159 -39 -55 -7 c-187 -24
-307 -54 -356 -90 -17 -13 -12 -14 46 -10 36 3 108 12 160 20 158 24 278 34
420 34 182 0 197 -15 23 -23 -76 -4 -169 -10 -207 -13 -58 -6 -66 -9 -45 -17
22 -8 18 -11 -36 -23 -33 -7 -120 -20 -193 -28 -73 -9 -163 -22 -201 -30 -67
-14 -183 -65 -196 -86 -8 -12 -1 -12 190 26 158 30 299 42 293 24 -2 -7 -48
-23 -105 -36 -55 -12 -127 -36 -159 -53 l-59 -32 75 6 c41 3 113 14 160 23
102 20 257 16 207 -6 -115 -50 -119 -51 -287 -55 -91 -3 -190 -10 -220 -18
l-55 -12 35 -9 c19 -5 91 -12 160 -16 l125 -7 -92 -54 c-50 -30 -91 -58 -90
-63 1 -4 -18 -21 -43 -38 -54 -36 -42 -38 85 -10 79 18 99 19 163 9 70 -11
448 -7 532 6 35 6 35 6 10 -9 -59 -33 -465 -99 -760 -122 -107 -8 -213 -19
-235 -23 l-40 -8 40 -11 c103 -29 276 -23 565 18 74 11 140 20 145 20 6 0 -38
-22 -97 -49 -59 -27 -137 -70 -174 -96 -50 -35 -95 -55 -180 -80 -221 -68
-302 -105 -363 -169 l-34 -35 94 35 c149 57 258 94 272 94 8 0 19 -22 26 -52
14 -60 19 -53 -85 -116 -34 -20 -81 -54 -105 -76 -43 -38 -44 -38 -14 -32 17
3 89 35 160 71 150 75 198 86 109 24 -74 -52 -75 -53 -39 -45 27 7 25 3 -25
-40 -105 -90 -225 -220 -254 -274 l-30 -55 40 30 c21 16 91 78 154 137 196
183 329 279 440 319 l25 9 -25 -18 c-13 -9 -46 -36 -73 -60 -44 -39 -46 -42
-20 -36 52 13 133 53 336 166 176 98 383 195 394 184 2 -1 -70 -41 -159 -88
-374 -196 -590 -335 -700 -451 l-77 -80 34 -61 c19 -34 40 -62 47 -64 7 -1 70
24 140 57 l126 58 -34 -47 c-19 -26 -34 -52 -34 -58 0 -6 -9 -27 -21 -46 -12
-20 -17 -36 -12 -36 4 0 55 41 113 91 159 138 251 207 421 321 142 95 258 165
234 141 -5 -5 -57 -47 -115 -93 -185 -148 -310 -263 -391 -359 -92 -110 -130
-182 -136 -254 l-4 -52 22 35 c13 19 38 58 56 87 21 34 46 59 72 73 49 24 51
25 51 3 0 -13 7 -8 22 14 13 18 46 45 73 60 75 41 223 143 333 229 53 42 103
82 111 88 8 6 -26 -38 -76 -99 -99 -120 -190 -249 -227 -324 -26 -50 -58 -161
-48 -161 7 0 54 69 169 245 32 49 87 121 123 160 36 38 104 115 151 170 176
205 361 374 580 530 181 129 266 198 249 203 -6 2 28 31 77 63 48 32 104 73
123 90 37 33 39 33 -35 12 -17 -5 -18 -4 -6 10 7 9 11 24 7 32 -5 13 -10 14
-28 4 -22 -11 -22 -11 -8 6 14 16 13 17 -8 11 -31 -10 -28 -3 12 28 l35 26 30
-44 c18 -26 48 -52 73 -65 l43 -21 15 21 c14 17 23 19 66 14 45 -6 53 -4 82
20 37 31 62 74 62 106 0 20 3 21 48 13 51 -9 588 -12 602 -4 5 3 13 17 19 32
9 24 7 28 -12 34 -12 4 -38 19 -57 35 -19 15 -53 36 -75 45 l-40 17 405 82
c344 70 523 109 602 131 21 6 48 -83 49 -161 1 -30 4 -55 8 -55 3 0 29 8 56
19 118 44 355 56 376 18 8 -14 16 -12 73 13 l64 29 78 -77 c134 -131 282 -243
625 -474 170 -115 314 -197 325 -185 12 12 -143 136 -322 257 -311 210 -440
308 -572 434 l-73 70 74 27 c161 59 397 98 717 119 236 14 218 17 226 -27 19
-103 108 -299 199 -438 53 -82 134 -179 142 -172 9 10 -48 130 -111 234 -36
60 -85 154 -109 209 -24 54 -58 123 -75 151 l-31 53 220 -7 c237 -7 238 -6
239 43 0 27 -31 42 -188 94 -407 133 -856 166 -1141 84 -169 -49 -315 -153
-342 -243 -14 -47 -29 -45 -29 5 0 19 -3 34 -7 34 -8 0 -43 -108 -43 -132 0
-10 -24 -13 -93 -14 -53 -1 -116 -8 -149 -17 -57 -17 -86 -21 -76 -11 6 5 -14
101 -27 136 -5 12 2 22 27 35 l33 18 -45 5 -45 5 -27 80 c-30 88 -34 128 -16
187 16 53 45 79 144 129 104 52 149 98 140 142 -8 41 -26 59 -96 96 -33 18
-62 41 -65 52 -8 24 45 116 63 112 7 -2 11 0 10 5 -1 4 10 28 26 54 35 61 31
74 -14 37z m1267 -754 c122 -16 306 -54 383 -80 32 -10 36 -13 13 -9 -18 3
-38 2 -45 -3 -8 -5 22 -10 72 -14 76 -6 73 -6 -30 -4 -63 1 -146 8 -185 15
-102 18 -399 7 -535 -20 -58 -12 -139 -23 -180 -26 -42 -2 -118 -18 -173 -35
-54 -16 -101 -27 -106 -25 -5 3 -8 -5 -7 -17 1 -16 7 -21 21 -20 11 1 2 -6
-20 -17 -53 -26 -56 -25 -95 15 l-34 35 44 46 c74 75 227 140 388 163 97 14
364 12 489 -4z m-2920 -172 c-8 -15 -27 -39 -42 -53 -15 -14 -33 -37 -41 -52
-8 -16 -19 -28 -25 -28 -14 0 9 36 70 112 48 60 62 68 38 21z m623 -8 c0 -3
-10 -10 -22 -15 -18 -7 -19 -9 -5 -9 17 -1 25 -21 8 -21 -23 0 -71 13 -71 20
0 4 19 12 43 17 23 6 43 11 45 12 1 0 2 -1 2 -4z m-313 -22 c-11 -11 -140 -63
-145 -58 -10 9 94 65 122 65 16 0 26 -3 23 -7z m1693 -55 c7 -18 15 -35 17
-38 2 -3 -19 -15 -47 -27 l-50 -21 0 23 c0 26 37 78 51 70 5 -4 6 1 3 9 -12
31 12 15 26 -16z m-1423 -20 c-8 -5 -6 -8 6 -8 9 0 17 -4 17 -9 0 -5 8 -7 18
-5 9 2 37 1 62 -4 45 -8 44 -8 -69 -31 -62 -12 -121 -25 -130 -28 -9 -3 1 9
22 27 20 17 45 46 53 62 12 23 18 28 24 17 6 -8 4 -16 -3 -21z m-87 14 c0 -24
-122 -90 -224 -121 -106 -33 -120 -25 -31 18 44 21 96 51 115 68 20 17 47 33
60 36 43 8 80 7 80 -1z m-740 -97 c30 -15 37 -29 22 -39 -11 -6 -98 19 -94 28
1 3 2 11 2 16 0 15 37 12 70 -5z m68 -64 c3 -8 -1 -12 -9 -9 -7 2 -15 10 -17
17 -3 8 1 12 9 9 7 -2 15 -10 17 -17z m187 -31 c3 -5 -3 -10 -15 -10 -12 0
-18 5 -15 10 3 6 10 10 15 10 5 0 12 -4 15 -10z m-225 -35 c13 -14 20 -25 15
-25 -4 0 0 -9 9 -19 13 -14 16 -33 14 -72 -2 -29 -7 -54 -13 -56 -24 -7 -36
17 -40 78 -2 36 -9 77 -14 92 -13 34 -2 35 29 2z m85 5 c3 -5 1 -10 -4 -10 -6
0 -11 5 -11 10 0 6 2 10 4 10 3 0 8 -4 11 -10z m-321 -72 c13 -67 12 -71 -19
-79 l-30 -8 25 20 25 21 -30 -7 c-16 -4 -73 -11 -125 -15 -52 -4 -104 -12
-114 -16 -13 -5 -17 -4 -13 3 14 22 218 111 258 112 11 1 19 -10 23 -31z m111
-83 c30 -39 32 -45 10 -25 -15 14 -34 39 -42 55 -19 37 -15 33 32 -30z m-1318
-61 c-3 -3 -12 -4 -19 -1 -8 3 -5 6 6 6 11 1 17 -2 13 -5z m-42 -9 c-29 -12
-262 -45 -340 -50 -87 -4 -89 -4 -50 9 22 8 63 15 90 16 28 1 93 7 145 14 93
13 175 18 155 11z m1025 -36 c-33 -26 -81 -52 -86 -46 -5 4 95 67 106 67 3 0
-6 -9 -20 -21z m90 -53 c0 -2 -32 -30 -71 -61 -45 -36 -74 -54 -80 -48 -6 6
19 29 68 61 80 53 83 55 83 48z"/>
<path d="M6848 5753 c6 -2 18 -2 25 0 6 3 1 5 -13 5 -14 0 -19 -2 -12 -5z"/>
<path d="M7033 5753 c9 -2 25 -2 35 0 9 3 1 5 -18 5 -19 0 -27 -2 -17 -5z"/>
<path d="M6695 5730 c-25 -11 1 -11 35 0 20 6 21 8 5 8 -11 0 -29 -3 -40 -8z"/>
<path d="M7150 5736 c0 -2 11 -6 25 -8 13 -3 22 -1 19 3 -5 9 -44 13 -44 5z"/>
<path d="M6190 5713 c8 -3 22 -11 30 -17 13 -10 13 -9 1 7 -7 9 -21 17 -30 16
-13 0 -14 -1 -1 -6z"/>
<path d="M6648 5713 c7 -3 16 -2 19 1 4 3 -2 6 -13 5 -11 0 -14 -3 -6 -6z"/>
<path d="M6135 5670 c-3 -6 1 -7 9 -4 18 7 21 14 7 14 -6 0 -13 -4 -16 -10z"/>
<path d="M5584 6548 l-19 -23 23 19 c12 11 22 21 22 23 0 8 -8 2 -26 -19z"/>
<path d="M6146 6483 c-6 -14 -5 -15 5 -6 7 7 10 15 7 18 -3 3 -9 -2 -12 -12z"/>
<path d="M6648 6173 c7 -3 16 -2 19 1 4 3 -2 6 -13 5 -11 0 -14 -3 -6 -6z"/>
<path d="M7181 5973 c7 -12 15 -20 18 -17 3 2 -3 12 -13 22 -17 16 -18 16 -5
-5z"/>
<path d="M6178 5913 c7 -3 16 -2 19 1 4 3 -2 6 -13 5 -11 0 -14 -3 -6 -6z"/>
<path d="M7513 5865 c0 -33 2 -45 4 -27 2 18 2 45 0 60 -2 15 -4 0 -4 -33z"/>
<path d="M7543 5855 c0 -33 2 -45 4 -27 2 18 2 45 0 60 -2 15 -4 0 -4 -33z"/>
<path d="M7657 5824 c-3 -49 -6 -140 -6 -202 -1 -63 -8 -171 -16 -240 -8 -70
-21 -181 -29 -247 -14 -117 -11 -262 5 -234 36 65 88 431 96 676 6 185 -4 281
-32 320 -10 14 -13 2 -18 -73z"/>
<path d="M7158 5873 c6 -2 18 -2 25 0 6 3 1 5 -13 5 -14 0 -19 -2 -12 -5z"/>
<path d="M3585 4977 c-65 -35 -138 -105 -595 -576 -421 -433 -550 -582 -635
-736 -34 -61 -69 -167 -63 -187 2 -6 49 58 103 142 137 211 194 280 465 555
130 132 294 303 365 380 71 77 191 201 266 276 113 113 172 180 157 179 -2 0
-30 -15 -63 -33z"/>
<path d="M7480 4653 c-1 -224 -24 -385 -101 -717 -28 -116 -99 -445 -160 -730
-89 -424 -113 -555 -129 -710 -42 -412 -12 -849 70 -1021 l28 -60 1 47 c1 26
-10 121 -23 210 -14 90 -30 207 -36 260 -6 53 -19 125 -28 159 -17 62 -17 65
5 129 12 36 26 117 33 180 11 115 40 343 43 347 1 1 2 -181 2 -405 0 -411 5
-485 40 -551 12 -23 13 -21 18 30 4 30 6 236 6 459 0 223 3 452 6 510 4 58 2
132 -2 166 -7 42 -5 80 3 120 7 32 37 179 68 326 30 146 80 371 110 500 79
341 116 597 101 712 -8 64 -36 156 -47 156 -4 0 -8 -53 -8 -117z"/>
<path d="M7626 4655 c-18 -41 -18 -274 -1 -597 31 -576 6 -893 -125 -1619 -27
-151 -57 -326 -67 -389 -19 -127 -23 -321 -6 -360 10 -24 11 -22 21 26 6 28
18 111 27 185 17 141 43 305 101 629 74 416 110 728 120 1025 6 165 2 264 -32
899 -8 141 -25 232 -38 201z"/>
<path d="M7012 4547 c-95 -123 -244 -501 -291 -737 -33 -169 -41 -262 -41
-485 0 -383 82 -1060 132 -1091 17 -11 3 228 -26 461 -38 305 -46 418 -46 627
0 364 59 643 205 973 61 136 119 294 112 301 -2 3 -23 -20 -45 -49z"/>
<path d="M6792 2140 c-18 -73 -62 -354 -71 -452 -9 -101 0 -215 23 -268 8 -19
28 -54 45 -77 l31 -42 47 14 c56 17 75 19 51 4 -10 -5 -22 -18 -28 -29 -10
-18 -9 -18 25 -5 19 8 42 15 52 14 10 0 -9 -10 -42 -23 -89 -34 -95 -37 -95
-47 0 -5 14 -38 31 -72 39 -77 26 -65 -36 33 l-47 75 7 -50 c19 -135 147 -328
275 -414 l63 -41 49 142 c82 239 89 261 94 323 3 33 1 71 -4 85 -9 24 -10 24
-17 -12 -7 -39 -25 -53 -25 -20 0 9 -9 32 -20 50 -11 18 -20 39 -20 46 0 10
-23 16 -77 22 -92 10 -150 7 -211 -12 -25 -7 -49 -11 -54 -8 -19 12 -48 86
-58 150 -12 77 -8 143 22 319 21 127 26 260 11 310 l-9 30 -12 -45z m176 -962
c-15 -44 -16 -45 -28 -13 -8 22 -8 30 2 37 29 18 37 9 26 -24z m102 -149 c0
-5 -4 -9 -10 -9 -5 0 -10 7 -10 16 0 8 5 12 10 9 6 -3 10 -10 10 -16z m34
-134 c-14 -45 -19 -46 -51 -13 l-32 33 44 0 c41 1 44 -1 39 -20z"/>
<path d="M7475 1473 c2 -16 6 -55 9 -88 3 -34 21 -107 41 -163 19 -55 35 -103
35 -106 0 -9 -73 -25 -147 -32 l-73 -7 0 -31 c0 -17 -2 -61 -4 -97 -2 -36 0
-98 3 -137 4 -40 4 -72 1 -72 -3 0 -16 16 -29 35 -13 20 -25 34 -27 32 -6 -5
26 -115 47 -164 12 -27 24 -68 28 -93 l7 -45 81 80 c129 128 194 247 192 349
0 39 -15 92 -20 71 -1 -5 -5 6 -8 25 -6 28 -3 38 12 51 19 15 19 17 2 50 -10
18 -35 83 -55 144 -46 136 -83 225 -92 225 -4 0 -6 -12 -3 -27z m57 -489 c8
-7 -17 -113 -29 -125 -5 -5 -5 19 0 61 9 65 15 79 29 64z m-82 -220 c-18 -21
-24 -10 -9 18 8 14 14 18 17 10 2 -7 -2 -19 -8 -28z m-30 -124 c-8 -5 -17 -7
-19 -4 -3 3 1 9 9 14 8 5 17 7 19 4 3 -3 -1 -9 -9 -14z"/>
</g>
</svg>
